{"asset":{"version":"2.0","generator":"Codex original Unity character rig converter"},"scene":0,"scenes":[{"name":"Jigurda","nodes":[0]}],"nodes":[{"name":"Jigurda","translation":[1.472,0.0,-0.0],"rotation":[-0.0,-0.0,0.0,1.0],"scale":[1.0,1.0,1.0],"children":[1,2,3,4,34,35,36,37,38,39,40,41,42,43,44]},{"name":"ax","translation":[-0.0,0.0,-0.0],"rotation":[-0.0,0.0,-0.0,1.0],"scale":[1.0,1.0,1.0],"mesh":0,"skin":0},{"name":"cigarette","translation":[-0.0,0.0,-0.0],"rotation":[-0.0,0.0,-0.0,1.0],"scale":[1.0,1.0,1.0]},{"name":"glock","translation":[-0.0,0.0,-0.0],"rotation":[-0.0,0.0,-0.0,1.0],"scale":[1.0,1.0,1.0]},{"name":"Hips","translation":[-0.0,1.0142282,-0.0066957306],"rotation":[-0.032444403,-0.03224387,-0.70544595,0.7072862],"scale":[0.99999994,1.0,0.9999999],"children":[5,9,13]},{"name":"LeftUpLeg","translation":[-0.013565604,-0.08065275,0.027092358],"rotation":[0.090101585,-0.0136895,0.9949072,0.043057255],"scale":[0.99999964,1.0000002,0.9999998],"children":[6]},{"name":"LeftLeg","translation":[-0.46590608,-3.3735578e-05,2.3960154e-05],"rotation":[0.02346844,0.13179277,0.034685396,0.99039227],"scale":[1.0000002,1.0,0.99999994],"children":[7]},{"name":"LeftFoot","translation":[-0.5210636,4.4143994e-06,1.1958404e-05],"rotation":[0.019643297,-0.7115827,0.01951105,0.7020567],"scale":[0.99999994,1.0,1.0000001],"children":[8]},{"name":"LeftToeBase","translation":[-0.07434048,-1.2715225e-06,2.87705e-06],"rotation":[0.0015102029,0.07063709,0.036466643,0.99683416],"scale":[1.0000006,1.0000002,0.99999964]},{"name":"RightUpLeg","translation":[-0.013143966,0.08053555,0.027119173],"rotation":[0.09012993,0.013288676,0.9950186,-0.040472325],"scale":[1.0,1.0,1.0],"children":[10]},{"name":"RightLeg","translation":[-0.46589082,2.1450529e-05,2.4208046e-05],"rotation":[-0.023469193,0.13179176,-0.0346858,0.9903924],"scale":[1.0,1.0,0.99999994],"children":[11]},{"name":"RightFoot","translation":[-0.521101,1.0937866e-05,2.0539124e-05],"rotation":[-0.013802175,-0.7115325,-0.023665994,0.70211893],"scale":[1.0000001,1.0,0.99999994],"children":[12]},{"name":"RightToeBase","translation":[-0.07433805,-1.1928564e-06,1.6052654e-06],"rotation":[-0.0015085022,0.07063779,-0.036467608,0.9968341],"scale":[0.9999998,1.0,1.0]},{"name":"Spine","translation":[-0.09709522,0.00016874357,-0.008134935],"rotation":[0.00010005884,0.06712898,-0.0011845315,0.9977436],"scale":[0.9999998,1.0,0.9999999],"children":[14]},{"name":"Spine1","translation":[-0.18412946,3.255165e-07,-9.1093733e-07],"rotation":[0.0011661922,-0.016093992,-0.0006032786,0.99986964],"scale":[1.0000004,1.0000001,0.99999964],"children":[15,16,25]},{"name":"Head","translation":[-0.30435738,2.3125847e-06,-7.4164095e-06],"rotation":[0.0011652553,-0.23362023,0.002654153,0.9723236],"scale":[0.9999999,1.0000001,1.0]},{"name":"LeftShoulder","translation":[-0.25328398,-0.073238306,0.05357903],"rotation":[-0.028079221,0.015987244,0.70706016,0.7064148],"scale":[1.0000005,0.99999964,1.0000002],"children":[17]},{"name":"LeftArm","translation":[-0.14903861,-2.6355226e-08,-9.029953e-07],"rotation":[-0.061077207,0.046683036,0.0031608648,0.9970358],"scale":[1.0000004,0.9999998,0.99999964],"children":[18]},{"name":"LeftForeArm","translation":[-0.26080576,0.00038991176,0.00020263105],"rotation":[0.0113941515,-0.13165009,-0.0155126825,0.9911094],"scale":[1.0000005,0.99999964,0.9999998],"children":[19]},{"name":"LeftHand","translation":[-0.30509806,-1.3918144e-06,2.5086692e-06],"rotation":[0.05622906,0.01704683,0.0008450046,0.998272],"scale":[0.9999969,1.0000029,1.0000001],"children":[20,22,24]},{"name":"LeftHandMiddle1","translation":[-0.07187971,1.5201905e-06,9.385532e-07],"rotation":[0.002422211,-0.009001082,8.2466475e-05,0.9999566],"scale":[0.99999845,1.0000015,1.0000001],"children":[21]},{"name":"LeftHandMiddle2","translation":[-0.0500007,1.5022734e-07,4.0774498e-07],"rotation":[-0.0,0.0,-0.0,1.0],"scale":[0.99999785,1.0000021,0.99999994]},{"name":"LeftHandThumb1","translation":[-0.005210357,-0.0028866727,-0.035752118],"rotation":[0.6884184,-0.09049035,0.19463769,0.692826],"scale":[1.0000024,0.9999995,0.99999785],"children":[23]},{"name":"LeftHandThumb2","translation":[-0.057259873,6.994274e-07,4.514034e-07],"rotation":[0.0039843284,0.03189568,-0.12389008,0.9917752],"scale":[0.9999992,1.0000011,0.99999976]},{"name":"walkie","translation":[-0.068999924,-0.07319989,-0.01649999],"rotation":[0.26028457,0.11892241,0.040168863,0.957338],"scale":[1.0,1.0,1.0]},{"name":"RightShoulder","translation":[-0.25343227,0.073028915,0.05326196],"rotation":[0.026533242,0.014485704,-0.7063708,0.70719624],"scale":[1.0000001,1.0,1.0000004],"children":[26]},{"name":"RightArm","translation":[-0.14904603,-3.3342674e-06,4.75325e-06],"rotation":[0.061078176,0.04667385,-0.0031601873,0.99703616],"scale":[0.9999999,1.0000001,0.9999998],"children":[27]},{"name":"RightForeArm","translation":[-0.26080874,-7.032455e-05,4.151064e-05],"rotation":[-0.011391569,-0.13163789,0.015511705,0.99111104],"scale":[1.0000002,0.9999998,0.9999998],"children":[28]},{"name":"RightHand","translation":[-0.30510896,-1.5803524e-05,-1.4383835e-06],"rotation":[-0.05866045,0.008054745,-0.0003797087,0.9982454],"scale":[0.9999998,0.9999999,1.0000002],"children":[29,30,32]},{"name":"gun","translation":[-0.059039127,0.053654213,0.015360275],"rotation":[-0.068044886,-0.21563391,-0.6382023,0.7359143],"scale":[1.0,1.0,1.0]},{"name":"RightHandMiddle1","translation":[-0.07019541,-1.746647e-07,1.9038324e-06],"rotation":[-0.0,2.6741639e-06,-0.0,1.0],"scale":[1.0,0.9999999,1.0],"children":[31]},{"name":"RightHandMiddle2","translation":[-0.050000776,7.51865e-07,6.9248074e-07],"rotation":[-0.0,0.0,-0.0,1.0],"scale":[1.0000001,0.99999994,1.0]},{"name":"RightHandThumb1","translation":[-0.0056515397,0.00322989,-0.035652455],"rotation":[-0.69362736,-0.058725283,-0.21355174,0.68544006],"scale":[0.9999997,1.0000002,1.0000001],"children":[33]},{"name":"RightHandThumb2","translation":[-0.057257473,-8.627416e-07,1.0278769e-07],"rotation":[-0.003984343,0.031895842,0.123889886,0.9917752],"scale":[1.0,0.9999999,1.0]},{"name":"jigurda","translation":[-0.0,0.0,-0.0],"rotation":[-0.0,0.0,-0.0,1.0],"scale":[1.0,1.0,1.0],"mesh":1,"skin":1},{"name":"jigurda_bandana_v1","translation":[-0.0,0.0,-0.0],"rotation":[-0.0,0.0,-0.0,1.0],"scale":[1.0,1.0,1.0],"mesh":2,"skin":2},{"name":"jigurda_bandana_v2","translation":[-0.0,0.0,-0.0],"rotation":[-0.0,0.0,-0.0,1.0],"scale":[1.0,1.0,1.0]},{"name":"jigurda_beard","translation":[-0.0,0.0,-0.0],"rotation":[-0.0,0.0,-0.0,1.0],"scale":[1.0,1.0,1.0],"mesh":3,"skin":3},{"name":"jigurda_hairstyle_v1","translation":[-0.0,0.0,-0.0],"rotation":[-0.0,0.0,-0.0,1.0],"scale":[1.0,1.0,1.0],"mesh":4,"skin":4},{"name":"jigurda_hairstyle_v2","translation":[-0.0,0.0,-0.0],"rotation":[-0.0,0.0,-0.0,1.0],"scale":[1.0,1.0,1.0]},{"name":"revolver","translation":[-0.0,0.0,-0.0],"rotation":[-0.0,0.0,-0.0,1.0],"scale":[1.0,1.0,1.0]},{"name":"rifle","translation":[-0.0,0.0,-0.0],"rotation":[-0.0,0.0,-0.0,1.0],"scale":[1.0,1.0,1.0]},{"name":"rifle_back","translation":[-0.0,0.0,-0.0],"rotation":[-0.0,0.0,-0.0,1.0],"scale":[1.0,1.0,1.0]},{"name":"shotgun","translation":[-0.0,0.0,-0.0],"rotation":[-0.0,0.0,-0.0,1.0],"scale":[1.0,1.0,1.0]},{"name":"shotgun_back","translation":[-0.0,0.0,-0.0],"rotation":[-0.0,0.0,-0.0,1.0],"scale":[1.0,1.0,1.0]}],"meshes":[{"name":"ax","primitives":[{"attributes":{"POSITION":0,"NORMAL":1,"TEXCOORD_0":2,"COLOR_0":3,"WEIGHTS_0":4,"JOINTS_0":5},"indices":6,"mode":4,"material":0}]},{"name":"jigurda","primitives":[{"attributes":{"POSITION":8,"NORMAL":9,"TEXCOORD_0":10,"COLOR_0":11,"WEIGHTS_0":12,"JOINTS_0":13},"indices":14,"mode":4,"material":0}]},{"name":"jigurda_bandana_v1","primitives":[{"attributes":{"POSITION":16,"NORMAL":17,"TEXCOORD_0":18,"COLOR_0":19,"WEIGHTS_0":20,"JOINTS_0":21},"indices":22,"mode":4,"material":0}]},{"name":"jigurda_beard","primitives":[{"attributes":{"POSITION":24,"NORMAL":25,"TEXCOORD_0":26,"COLOR_0":27,"WEIGHTS_0":28,"JOINTS_0":29},"indices":30,"mode":4,"material":0}]},{"name":"jigurda_hairstyle_v1","primitives":[{"attributes":{"POSITION":32,"NORMAL":33,"TEXCOORD_0":34,"COLOR_0":35,"WEIGHTS_0":36,"JOINTS_0":37},"indices":38,"mode":4,"material":0}]}],"skins":[{"name":"ax bones","joints":[29],"skeleton":29,"inverseBindMatrices":7},{"name":"jigurda bones","joints":[4,9,10,11,12,5,6,7,8,13,14,15,25,26,27,28,30,31,32,33,29,16,17,18,19,20,21,22,23],"skeleton":4,"inverseBindMatrices":15},{"name":"jigurda_bandana_v1 bones","joints":[15],"skeleton":15,"inverseBindMatrices":23},{"name":"jigurda_beard bones","joints":[15],"skeleton":15,"inverseBindMatrices":31},{"name":"jigurda_hairstyle_v1 bones","joints":[25,16,15,14],"skeleton":14,"inverseBindMatrices":39}],"materials":[{"name":"CopVertexColor","pbrMetallicRoughness":{"baseColorFactor":[1,1,1,1],"metallicFactor":0,"roughnessFactor":1},"doubleSided":true}],"buffers":[{"uri":"Jigurda.bin","byteLength":454212}],"bufferViews":[{"buffer":0,"byteOffset":0,"byteLength":2268},{"buffer":0,"byteOffset":2268,"byteLength":2268},{"buffer":0,"byteOffset":4536,"byteLength":1512},{"buffer":0,"byteOffset":6048,"byteLength":3024},{"buffer":0,"byteOffset":9072,"byteLength":3024},{"buffer":0,"byteOffset":12096,"byteLength":1512},{"buffer":0,"byteOffset":13608,"byteLength":2112},{"buffer":0,"byteOffset":15720,"byteLength":64},{"buffer":0,"byteOffset":15784,"byteLength":51552},{"buffer":0,"byteOffset":67336,"byteLength":51552},{"buffer":0,"byteOffset":118888,"byteLength":34368},{"buffer":0,"byteOffset":153256,"byteLength":68736},{"buffer":0,"byteOffset":221992,"byteLength":68736},{"buffer":0,"byteOffset":290728,"byteLength":34368},{"buffer":0,"byteOffset":325096,"byteLength":45024},{"buffer":0,"byteOffset":370120,"byteLength":1856},{"buffer":0,"byteOffset":371976,"byteLength":3504},{"buffer":0,"byteOffset":375480,"byteLength":3504},{"buffer":0,"byteOffset":378984,"byteLength":2336},{"buffer":0,"byteOffset":381320,"byteLength":4672},{"buffer":0,"byteOffset":385992,"byteLength":4672},{"buffer":0,"byteOffset":390664,"byteLength":2336},{"buffer":0,"byteOffset":393000,"byteLength":3048},{"buffer":0,"byteOffset":396048,"byteLength":64},{"buffer":0,"byteOffset":396112,"byteLength":2280},{"buffer":0,"byteOffset":398392,"byteLength":2280},{"buffer":0,"byteOffset":400672,"byteLength":1520},{"buffer":0,"byteOffset":402192,"byteLength":3040},{"buffer":0,"byteOffset":405232,"byteLength":3040},{"buffer":0,"byteOffset":408272,"byteLength":1520},{"buffer":0,"byteOffset":409792,"byteLength":2472},{"buffer":0,"byteOffset":412264,"byteLength":64},{"buffer":0,"byteOffset":412328,"byteLength":6336},{"buffer":0,"byteOffset":418664,"byteLength":6336},{"buffer":0,"byteOffset":425000,"byteLength":4224},{"buffer":0,"byteOffset":429224,"byteLength":8448},{"buffer":0,"byteOffset":437672,"byteLength":8448},{"buffer":0,"byteOffset":446120,"byteLength":4224},{"buffer":0,"byteOffset":450344,"byteLength":3612},{"buffer":0,"byteOffset":453956,"byteLength":256}],"accessors":[{"bufferView":0,"componentType":5126,"count":189,"type":"VEC3","min":[0.8068346381187439,1.2883421182632446,-0.3714945912361145],"max":[1.0722870826721191,1.6028028726577759,0.19723068177700043]},{"bufferView":1,"componentType":5126,"count":189,"type":"VEC3"},{"bufferView":2,"componentType":5126,"count":189,"type":"VEC2"},{"bufferView":3,"componentType":5126,"count":189,"type":"VEC4"},{"bufferView":4,"componentType":5126,"count":189,"type":"VEC4"},{"bufferView":5,"componentType":5123,"count":189,"type":"VEC4"},{"bufferView":6,"componentType":5125,"count":528,"type":"SCALAR"},{"bufferView":7,"componentType":5126,"count":1,"type":"MAT4"},{"bufferView":8,"componentType":5126,"count":4296,"type":"VEC3","min":[-0.9478166699409485,0.001583808334544301,-0.19611689448356628],"max":[0.9478306174278259,1.834563970565796,0.20851585268974304]},{"bufferView":9,"componentType":5126,"count":4296,"type":"VEC3"},{"bufferView":10,"componentType":5126,"count":4296,"type":"VEC2"},{"bufferView":11,"componentType":5126,"count":4296,"type":"VEC4"},{"bufferView":12,"componentType":5126,"count":4296,"type":"VEC4"},{"bufferView":13,"componentType":5123,"count":4296,"type":"VEC4"},{"bufferView":14,"componentType":5125,"count":11256,"type":"SCALAR"},{"bufferView":15,"componentType":5126,"count":29,"type":"MAT4"},{"bufferView":16,"componentType":5126,"count":292,"type":"VEC3","min":[-0.15358278155326843,1.726799488067627,-0.18018728494644165],"max":[0.0999639481306076,1.809600591659546,0.054278235882520676]},{"bufferView":17,"componentType":5126,"count":292,"type":"VEC3"},{"bufferView":18,"componentType":5126,"count":292,"type":"VEC2"},{"bufferView":19,"componentType":5126,"count":292,"type":"VEC4"},{"bufferView":20,"componentType":5126,"count":292,"type":"VEC4"},{"bufferView":21,"componentType":5123,"count":292,"type":"VEC4"},{"bufferView":22,"componentType":5125,"count":762,"type":"SCALAR"},{"bufferView":23,"componentType":5126,"count":1,"type":"MAT4"},{"bufferView":24,"componentType":5126,"count":190,"type":"VEC3","min":[-0.08156393468379974,1.5617387294769287,-0.17304128408432007],"max":[0.08156893402338028,1.6791071891784668,-0.04574510082602501]},{"bufferView":25,"componentType":5126,"count":190,"type":"VEC3"},{"bufferView":26,"componentType":5126,"count":190,"type":"VEC2"},{"bufferView":27,"componentType":5126,"count":190,"type":"VEC4"},{"bufferView":28,"componentType":5126,"count":190,"type":"VEC4"},{"bufferView":29,"componentType":5123,"count":190,"type":"VEC4"},{"bufferView":30,"componentType":5125,"count":618,"type":"SCALAR"},{"bufferView":31,"componentType":5126,"count":1,"type":"MAT4"},{"bufferView":32,"componentType":5126,"count":528,"type":"VEC3","min":[-0.1605728715658188,1.4708455801010132,-0.17414720356464386],"max":[0.15846385061740875,1.8545435667037964,0.1790943294763565]},{"bufferView":33,"componentType":5126,"count":528,"type":"VEC3"},{"bufferView":34,"componentType":5126,"count":528,"type":"VEC2"},{"bufferView":35,"componentType":5126,"count":528,"type":"VEC4"},{"bufferView":36,"componentType":5126,"count":528,"type":"VEC4"},{"bufferView":37,"componentType":5123,"count":528,"type":"VEC4"},{"bufferView":38,"componentType":5125,"count":903,"type":"SCALAR"},{"bufferView":39,"componentType":5126,"count":4,"type":"MAT4"}]}