{"asset":{"version":"2.0","generator":"Codex original Unity character rig converter"},"scene":0,"scenes":[{"name":"hostage_prostitute_v1","nodes":[0]}],"nodes":[{"name":"HostageProstitute","translation":[0.0,0.0,-0.0],"rotation":[-0.0,-0.0,0.0,1.0],"scale":[1.0,1.0,1.0],"children":[1,30,31,32,33]},{"name":"Hips","translation":[2.2798776e-08,1.0142282,-0.006695709],"rotation":[-0.03244465,-0.032244124,-0.70544577,0.7072863],"scale":[0.99999994,1.0,0.9999999],"children":[2,6,10]},{"name":"LeftUpLeg","translation":[-0.013565481,-0.08065183,0.027092153],"rotation":[0.090098955,-0.013689491,0.99490744,0.043057263],"scale":[0.99999964,1.0000002,0.9999998],"children":[3]},{"name":"LeftLeg","translation":[-0.4658795,-3.5772977e-05,1.8319082e-05],"rotation":[0.023468541,0.13178782,0.03468539,0.990393],"scale":[1.0000002,1.0,0.99999994],"children":[4]},{"name":"LeftFoot","translation":[-0.5209705,-4.6273626e-06,7.0356564e-06],"rotation":[0.019643782,-0.711581,0.019511517,0.7020583],"scale":[0.99999994,1.0,1.0000001],"children":[5]},{"name":"LeftToeBase","translation":[-0.07433133,-1.6833226e-06,9.0448606e-07],"rotation":[0.0015094735,0.0706372,0.036466602,0.99683416],"scale":[1.0000006,1.0000002,0.99999964]},{"name":"RightUpLeg","translation":[-0.01314394,0.080534734,0.027118932],"rotation":[0.09012805,0.013288674,0.9950188,-0.04047222],"scale":[1.0,1.0,1.0],"children":[7]},{"name":"RightLeg","translation":[-0.46586847,1.909595e-05,1.4722098e-05],"rotation":[-0.02346926,0.13178834,-0.034685712,0.9903928],"scale":[1.0,1.0,0.99999994],"children":[8]},{"name":"RightFoot","translation":[-0.52101564,3.4561037e-06,4.2075835e-06],"rotation":[-0.013802185,-0.71153134,-0.023665827,0.70212007],"scale":[1.0000001,1.0,0.99999994],"children":[9]},{"name":"RightToeBase","translation":[-0.074333064,-3.3787896e-07,-1.9282554e-08],"rotation":[-0.0015086514,0.070637755,-0.036467716,0.9968341],"scale":[0.9999998,1.0,1.0]},{"name":"Spine","translation":[-0.097095154,0.0001689306,-0.008135776],"rotation":[0.00010006085,0.067128986,-0.0011846747,0.9977436],"scale":[0.9999998,1.0,0.9999999],"children":[11]},{"name":"Spine1","translation":[-0.18412958,9.938655e-08,6.4751966e-08],"rotation":[0.0011661899,-0.016093992,-0.0006032436,0.99986964],"scale":[1.0000004,1.0000001,0.99999964],"children":[12,13,21]},{"name":"Head","translation":[-0.30432126,5.41978e-07,-2.3200469e-06],"rotation":[0.0011652327,-0.23362024,0.0026540444,0.9723236],"scale":[0.9999999,1.0000001,1.0]},{"name":"LeftShoulder","translation":[-0.25328016,-0.07323735,0.053579826],"rotation":[-0.02807961,0.015987564,0.7070591,0.7064159],"scale":[1.0000005,0.99999964,1.0000002],"children":[14]},{"name":"LeftArm","translation":[-0.14903364,1.0516926e-06,2.056914e-06],"rotation":[-0.061077345,0.046680566,0.0031620553,0.99703586],"scale":[1.0000004,0.9999998,0.99999964],"children":[15]},{"name":"LeftForeArm","translation":[-0.2607981,-2.8551906e-06,6.9692164e-06],"rotation":[0.011394242,-0.13164647,-0.015512254,0.9911099],"scale":[1.0000005,0.99999964,0.9999998],"children":[16]},{"name":"LeftHand","translation":[-0.30508116,-2.2662793e-07,1.0796282e-07],"rotation":[0.056229077,0.017045,0.00084508717,0.99827206],"scale":[0.9999969,1.0000029,1.0000001],"children":[17,19]},{"name":"LeftHandMiddle1","translation":[-0.0718778,6.1875687e-07,-4.660695e-08],"rotation":[0.0024222038,-0.009001078,8.2453706e-05,0.9999566],"scale":[0.99999845,1.0000015,1.0000001],"children":[18]},{"name":"LeftHandMiddle2","translation":[-0.050000474,-2.945354e-07,3.4312157e-07],"rotation":[-0.0,0.0,-0.0,1.0],"scale":[0.99999785,1.0000021,0.99999994]},{"name":"LeftHandThumb1","translation":[-0.0052100024,-0.0028867954,-0.0357515],"rotation":[0.68841845,-0.09049034,0.19463767,0.6928259],"scale":[1.0000024,0.9999995,0.99999785],"children":[20]},{"name":"LeftHandThumb2","translation":[-0.057258274,5.761252e-07,-1.13892575e-07],"rotation":[0.0039843293,0.031895682,-0.12389008,0.9917752],"scale":[0.9999992,1.0000011,0.99999976]},{"name":"RightShoulder","translation":[-0.25342858,0.073027745,0.053262506],"rotation":[0.026533464,0.014485865,-0.70636964,0.70719737],"scale":[1.0000001,1.0,1.0000004],"children":[22]},{"name":"RightArm","translation":[-0.14903864,-1.9358843e-06,2.222884e-06],"rotation":[0.061078332,0.04667297,-0.003161757,0.99703616],"scale":[0.9999999,1.0000001,0.9999998],"children":[23]},{"name":"RightForeArm","translation":[-0.2607984,-3.7964495e-05,3.5359587e-06],"rotation":[-0.011391639,-0.13163705,0.015511604,0.99111116],"scale":[1.0000002,0.9999998,0.9999998],"children":[24]},{"name":"RightHand","translation":[-0.30508813,-1.2209792e-06,-5.600472e-06],"rotation":[-0.05866043,0.0080543915,-0.00037959215,0.9982454],"scale":[0.9999998,0.9999999,1.0000002],"children":[25,26,28]},{"name":"gun","translation":[-0.059039127,0.053654213,0.015360275],"rotation":[-0.068044886,-0.21563391,-0.6382023,0.7359143],"scale":[0.99999976,1.0000001,1.0000001]},{"name":"RightHandMiddle1","translation":[-0.07019421,-1.4080241e-07,2.1912088e-09],"rotation":[-0.0,2.6665782e-06,-0.0,1.0],"scale":[1.0,0.9999999,1.0],"children":[27]},{"name":"RightHandMiddle2","translation":[-0.050000105,4.5743136e-07,4.911974e-07],"rotation":[-0.0,0.0,-0.0,1.0],"scale":[1.0000001,0.99999994,1.0]},{"name":"RightHandThumb1","translation":[-0.005651692,0.003230322,-0.035652447],"rotation":[-0.6936274,-0.058725268,-0.2135517,0.68544],"scale":[0.9999997,1.0000002,1.0000001],"children":[29]},{"name":"RightHandThumb2","translation":[-0.05725725,-9.905499e-08,-2.7460442e-07],"rotation":[-0.003984341,0.031895835,0.12388986,0.9917752],"scale":[1.0,0.9999999,1.0]},{"name":"prostitute_hairstyle_v1","translation":[-0.0,0.0,-0.0],"rotation":[-0.0,0.0,-0.0,1.0],"scale":[1.0,1.0,1.0],"mesh":1,"skin":1},{"name":"prostitute_hairstyle_v2","translation":[-0.0,0.0,-0.0],"rotation":[-0.0,0.0,-0.0,1.0],"scale":[1.0,1.0,1.0]},{"name":"prostitute_v1","translation":[-0.0,0.0,-0.0],"rotation":[-0.0,0.0,-0.0,1.0],"scale":[1.0,1.0,1.0],"mesh":0,"skin":0},{"name":"prostitute_v2","translation":[-0.0,0.0,-0.0],"rotation":[-0.0,0.0,-0.0,1.0],"scale":[1.0,1.0,1.0]}],"meshes":[{"name":"prostitute_v1","primitives":[{"attributes":{"POSITION":0,"NORMAL":1,"TEXCOORD_0":2,"COLOR_0":3,"WEIGHTS_0":4,"JOINTS_0":5},"indices":6,"mode":4,"material":0},{"attributes":{"POSITION":0,"NORMAL":1,"TEXCOORD_0":2,"COLOR_0":3,"WEIGHTS_0":4,"JOINTS_0":5},"indices":7,"mode":4,"material":0},{"attributes":{"POSITION":0,"NORMAL":1,"TEXCOORD_0":2,"COLOR_0":3,"WEIGHTS_0":4,"JOINTS_0":5},"indices":8,"mode":4,"material":0}]},{"name":"prostitute_hairstyle_v1","primitives":[{"attributes":{"POSITION":10,"NORMAL":11,"TEXCOORD_0":12,"COLOR_0":13,"WEIGHTS_0":14,"JOINTS_0":15},"indices":16,"mode":4,"material":0}]}],"skins":[{"name":"prostitute_v1 bones","joints":[1,6,7,8,9,2,3,4,5,10,11,12,21,22,23,24,26,27,28,29,25,13,14,15,16,17,18,19,20],"skeleton":1,"inverseBindMatrices":9},{"name":"prostitute_hairstyle_v1 bones","joints":[12],"skeleton":12,"inverseBindMatrices":17}],"materials":[{"name":"CopVertexColor","pbrMetallicRoughness":{"baseColorFactor":[1,1,1,1],"metallicFactor":0,"roughnessFactor":1},"doubleSided":true}],"buffers":[{"uri":"hostage_prostitute_v1_rig.bin","byteLength":272892}],"bufferViews":[{"buffer":0,"byteOffset":0,"byteLength":35700},{"buffer":0,"byteOffset":35700,"byteLength":35700},{"buffer":0,"byteOffset":71400,"byteLength":23800},{"buffer":0,"byteOffset":95200,"byteLength":47600},{"buffer":0,"byteOffset":142800,"byteLength":47600},{"buffer":0,"byteOffset":190400,"byteLength":23800},{"buffer":0,"byteOffset":214200,"byteLength":15792},{"buffer":0,"byteOffset":229992,"byteLength":5376},{"buffer":0,"byteOffset":235368,"byteLength":13416},{"buffer":0,"byteOffset":248784,"byteLength":1856},{"buffer":0,"byteOffset":250640,"byteLength":3252},{"buffer":0,"byteOffset":253892,"byteLength":3252},{"buffer":0,"byteOffset":257144,"byteLength":2168},{"buffer":0,"byteOffset":259312,"byteLength":4336},{"buffer":0,"byteOffset":263648,"byteLength":4336},{"buffer":0,"byteOffset":267984,"byteLength":2168},{"buffer":0,"byteOffset":270152,"byteLength":2676},{"buffer":0,"byteOffset":272828,"byteLength":64}],"accessors":[{"bufferView":0,"componentType":5126,"count":2975,"type":"VEC3","min":[-0.9478171467781067,0.0015838323161005974,-0.1635243445634842],"max":[0.9478302597999573,1.8334089517593384,0.1658092886209488]},{"bufferView":1,"componentType":5126,"count":2975,"type":"VEC3"},{"bufferView":2,"componentType":5126,"count":2975,"type":"VEC2"},{"bufferView":3,"componentType":5126,"count":2975,"type":"VEC4"},{"bufferView":4,"componentType":5126,"count":2975,"type":"VEC4"},{"bufferView":5,"componentType":5123,"count":2975,"type":"VEC4"},{"bufferView":6,"componentType":5125,"count":3948,"type":"SCALAR"},{"bufferView":7,"componentType":5125,"count":1344,"type":"SCALAR"},{"bufferView":8,"componentType":5125,"count":3354,"type":"SCALAR"},{"bufferView":9,"componentType":5126,"count":29,"type":"MAT4"},{"bufferView":10,"componentType":5126,"count":271,"type":"VEC3","min":[-0.0974760577082634,1.5793639421463013,-0.10162265598773956],"max":[0.11578662693500519,1.8567397594451904,0.11693080514669418]},{"bufferView":11,"componentType":5126,"count":271,"type":"VEC3"},{"bufferView":12,"componentType":5126,"count":271,"type":"VEC2"},{"bufferView":13,"componentType":5126,"count":271,"type":"VEC4"},{"bufferView":14,"componentType":5126,"count":271,"type":"VEC4"},{"bufferView":15,"componentType":5123,"count":271,"type":"VEC4"},{"bufferView":16,"componentType":5125,"count":669,"type":"SCALAR"},{"bufferView":17,"componentType":5126,"count":1,"type":"MAT4"}]}