{"asset":{"version":"2.0"},"scene":0,"scenes":[{"nodes":[0]}],"nodes":[{"name":"gun","translation":[-0.06328802,0.042795572,0.026985766],"rotation":[0.10035708,-0.09418604,-0.62761444,0.7662621],"scale":[0.99999976,1.0000001,1.0000001],"children":[1]},{"name":"Items","translation":[0.0,0.0,-0.0],"rotation":[-0.0,-0.0,0.0,1.0],"scale":[1.0,1.0,1.0],"children":[2]},{"name":"Knife","translation":[0.0075816745,-0.011451462,-0.019294064],"rotation":[0.56027,0.016661018,-0.27421477,0.7814257],"scale":[1.0,1.0,1.0],"mesh":0}],"meshes":[{"primitives":[{"attributes":{"POSITION":0,"NORMAL":1,"TEXCOORD_0":2},"indices":3,"mode":4,"material":0}]}],"materials":[{"doubleSided":true,"pbrMetallicRoughness":{"metallicFactor":0,"roughnessFactor":0.8}}],"buffers":[{"uri":"knife.bin","byteLength":16168}],"bufferViews":[{"buffer":0,"byteOffset":0,"byteLength":4380},{"buffer":0,"byteOffset":4380,"byteLength":4380},{"buffer":0,"byteOffset":8760,"byteLength":2920},{"buffer":0,"byteOffset":11680,"byteLength":4488}],"accessors":[{"bufferView":0,"componentType":5126,"count":365,"type":"VEC3","min":[-0.0169355645775795,-0.36545684933662415,-0.04080616310238838],"max":[0.0169355645775795,0.08102291077375412,0.04080616682767868]},{"bufferView":1,"componentType":5126,"count":365,"type":"VEC3"},{"bufferView":2,"componentType":5126,"count":365,"type":"VEC2"},{"bufferView":3,"componentType":5125,"count":1122,"type":"SCALAR"}]}