{"asset":{"version":"2.0","generator":"Codex Unity YAML static scene converter"},"scene":0,"scenes":[{"name":"coldopendoor2_original static geometry","nodes":[0]}],"nodes":[{"name":"ColdOpenDoor2","translation":[0,0,0],"rotation":[0,0,0,1],"scale":[1.0,1.0,1.0],"children":[1]},{"name":"Right","translation":[-0.6,0.0,0.1],"rotation":[-0.0,-0.0,0.0,1.0],"scale":[1.0,1.0,1.0],"children":[2]},{"name":"Left","translation":[-0.0,0.0,-0.19999842],"rotation":[0.0,0.0,-0.0,1.0],"scale":[1.0,1.0,1.0],"children":[3]},{"name":"Mesh","translation":[0.003,0.0,0.1],"rotation":[0.0,4.371139e-08,-0.0,1.0],"scale":[1.0,1.0,1.0],"mesh":0}],"meshes":[{"name":"Door4_0","primitives":[{"attributes":{"POSITION":0,"NORMAL":1,"TEXCOORD_0":2,"COLOR_0":3},"indices":4,"mode":4,"material":0}]}],"buffers":[{"uri":"coldopendoor2_original.bin","byteLength":18144}],"bufferViews":[{"buffer":0,"byteOffset":0,"byteLength":3936},{"buffer":0,"byteOffset":3936,"byteLength":3936},{"buffer":0,"byteOffset":7872,"byteLength":2624},{"buffer":0,"byteOffset":10496,"byteLength":5248},{"buffer":0,"byteOffset":15744,"byteLength":2400}],"accessors":[{"bufferView":0,"componentType":5126,"count":328,"type":"VEC3","min":[0.05412767827510834,0.17892098426818848,-0.13435502350330353],"max":[1.1458722352981567,2.3290815353393555,0.13435471057891846]},{"bufferView":1,"componentType":5126,"count":328,"type":"VEC3"},{"bufferView":2,"componentType":5126,"count":328,"type":"VEC2"},{"bufferView":3,"componentType":5126,"count":328,"type":"VEC4"},{"bufferView":4,"componentType":5125,"count":600,"type":"SCALAR"}],"images":[],"textures":[],"materials":[{"name":"ColdOpen","pbrMetallicRoughness":{"baseColorFactor":[1.0,1.0,1.0,1.0],"metallicFactor":0,"roughnessFactor":1},"doubleSided":true}]}