{"asset":{"version":"2.0","generator":"Codex original Unity character rig converter"},"scene":0,"scenes":[{"name":"enemy_male","nodes":[0]}],"nodes":[{"name":"EnemyMale","translation":[11.620016,-7.71532e-15,-4.969],"rotation":[-0.0,-0.0,0.0,1.0],"scale":[1.0,1.0,1.0],"children":[1,2]},{"name":"Body","translation":[0.0,0.0,1.5952596e-08],"rotation":[0.7071068,0.0,-0.0,0.7071068],"scale":[1.0,1.0,1.0],"mesh":0,"skin":0},{"name":"Hips","translation":[0.0,1.0142283,-0.0],"rotation":[-0.032443844,-0.032245383,-0.705446,0.70728606],"scale":[1.0,1.0,1.0],"children":[3,7,11]},{"name":"LeftUpLeg","translation":[-0.013565549,-0.08064689,0.027091444],"rotation":[0.046839133,-0.016216502,0.99842626,0.026232848],"scale":[1.0,1.0000001,1.0000001],"children":[4]},{"name":"LeftLeg","translation":[-0.4874366,6.078948e-07,1.4843297e-07],"rotation":[0.027025914,0.04694689,0.020815702,0.99831474],"scale":[1.0,0.9999999,1.0],"children":[5]},{"name":"LeftFoot","translation":[-0.49832702,-8.029358e-07,1.01319344e-07],"rotation":[0.05673796,-0.7164068,-0.024675483,0.69493395],"scale":[0.9999999,1.0,1.0],"children":[6]},{"name":"LeftToeBase","translation":[-0.07712476,-2.2427088e-07,-2.1445733e-07],"rotation":[-0.013508521,0.07535723,0.025828969,0.9967305],"scale":[1.0,1.0000001,1.0000001]},{"name":"RightUpLeg","translation":[-0.013144034,0.08071024,0.027117388],"rotation":[0.046878975,0.015934672,0.99849385,-0.023632538],"scale":[1.0000004,1.0000001,1.0],"children":[8]},{"name":"RightLeg","translation":[-0.48743647,-4.9977666e-07,1.5895544e-07],"rotation":[-0.027024643,0.046950363,-0.020815823,0.9983146],"scale":[1.0,1.0,1.0],"children":[9]},{"name":"RightFoot","translation":[-0.49832705,7.3520874e-07,5.1463065e-08],"rotation":[-0.056738462,-0.7164082,0.024675518,0.6949325],"scale":[1.0000001,0.9999999,1.0000001],"children":[10]},{"name":"RightToeBase","translation":[-0.077124745,2.447541e-07,-2.0989228e-07],"rotation":[0.013508742,0.07535733,-0.02582921,0.9967305],"scale":[1.0,1.0,1.0000001]},{"name":"Spine","translation":[-0.0939731,0.000155763,0.025891347],"rotation":[9.910639e-05,0.067129344,-0.0011844514,0.9977436],"scale":[1.0,1.0,1.0],"children":[12]},{"name":"Spine1","translation":[-0.18412931,-1.2825695e-08,1.7753882e-07],"rotation":[0.0011661908,-0.016093992,-0.0006032711,0.99986964],"scale":[1.0,1.0,1.0],"children":[13,14,23]},{"name":"Head","translation":[-0.30428684,-3.3657265e-08,-4.3285557e-09],"rotation":[0.0013295907,-0.30120984,0.0026444509,0.9535533],"scale":[0.99999994,1.0,1.0]},{"name":"LeftShoulder","translation":[-0.23107976,-0.07328498,0.019646453],"rotation":[0.0010911839,-0.01643772,0.7228642,0.69079375],"scale":[1.0,1.0,0.9999999],"children":[15]},{"name":"LeftArm","translation":[-0.14902464,4.4614328e-07,3.699081e-08],"rotation":[-0.06843014,0.050439443,0.015112908,0.9962655],"scale":[1.0,1.0000001,1.0],"children":[16]},{"name":"LeftForeArm","translation":[-0.22860903,-5.544964e-07,-1.277356e-07],"rotation":[0.031166764,-0.10342221,-0.045789056,0.9930941],"scale":[1.0000001,1.0000001,1.0000001],"children":[17]},{"name":"LeftHand","translation":[-0.33466533,2.0315613e-07,1.6782744e-07],"rotation":[0.009780304,0.011104962,0.007046273,0.9998657],"scale":[1.0,1.0,1.0],"children":[18,19,21]},{"name":"walkie","translation":[-0.069,-0.0732,-0.0165],"rotation":[0.26028454,0.1189224,0.040168796,0.9573379],"scale":[1.0,1.0,1.0]},{"name":"LeftHandMiddle1","translation":[-0.06852245,-9.086807e-08,1.0276842e-08],"rotation":[0.04665526,-0.0047394806,0.017357364,0.998749],"scale":[1.0,0.99999976,0.99999994],"children":[20]},{"name":"LeftHandMiddle2","translation":[-0.049998987,-3.4274242e-07,-2.6609257e-09],"rotation":[-0.0013666381,-0.003442005,0.25880387,0.96592283],"scale":[0.99999994,0.99999994,0.9999999]},{"name":"LeftHandThumb1","translation":[-0.034113295,0.00044460248,-0.041083243],"rotation":[0.7863706,-0.091787025,0.18337998,0.58272487],"scale":[1.0,0.99999994,1.0],"children":[22]},{"name":"LeftHandThumb2","translation":[-0.046286363,1.7458186e-07,1.4139128e-07],"rotation":[-0.05638629,0.0066325846,-0.1660634,0.98447937],"scale":[0.9999998,0.9999991,0.9999997]},{"name":"RightShoulder","translation":[-0.2312293,0.07315125,0.019329067],"rotation":[-0.0025710303,-0.01800519,-0.7221203,0.6915284],"scale":[1.0,1.0000001,0.9999999],"children":[24]},{"name":"RightArm","translation":[-0.14902484,-4.2292066e-07,-1.4482546e-07],"rotation":[0.06843029,0.05043939,-0.015113061,0.9962654],"scale":[1.0000002,0.99999976,1.0],"children":[25]},{"name":"RightForeArm","translation":[-0.2286089,4.1943233e-07,2.1273888e-08],"rotation":[-0.03116698,-0.10342226,0.0457891,0.9930941],"scale":[1.0,1.0000001,1.0],"children":[26]},{"name":"RightHand","translation":[-0.3346651,-2.105554e-07,4.3749068e-07],"rotation":[-0.009780057,0.01110506,-0.007045771,0.9998657],"scale":[1.0,1.0,0.99999994],"children":[27,29,31]},{"name":"gun","translation":[-0.0675338,0.023578491,0.002404461],"rotation":[0.0071457345,-0.72935706,-0.6840946,0.0013379698],"scale":[1.0000001,1.0,0.99999994],"children":[28]},{"name":"Revolver","translation":[-0.021,0.017,0.028],"rotation":[0.32970914,-0.45376477,-0.5272768,-0.63825446],"scale":[1.0,1.0,1.0]},{"name":"RightHandMiddle1","translation":[-0.068522416,2.8846364e-07,-3.0769036e-07],"rotation":[-0.046655536,-0.004739459,-0.0173581,0.99874896],"scale":[0.9999999,1.0,1.0],"children":[30]},{"name":"RightHandMiddle2","translation":[-0.0499988,1.522073e-08,1.5562304e-07],"rotation":[-2.1175994e-08,1.8245126e-08,-0.2164396,0.976296],"scale":[0.99999994,1.0000001,0.99999994]},{"name":"RightHandThumb1","translation":[-0.03411323,-0.00044414765,-0.041083373],"rotation":[-0.7863706,-0.0917869,-0.18338066,0.5827247],"scale":[0.99999994,1.0000001,1.0000002],"children":[32]},{"name":"RightHandThumb2","translation":[-0.046286285,6.73625e-08,-4.3795993e-07],"rotation":[0.056386147,0.006632086,0.16606364,0.98447937],"scale":[1.0000002,0.9999999,0.99999976]}],"meshes":[{"name":"Body","primitives":[{"attributes":{"POSITION":0,"NORMAL":1,"TEXCOORD_0":2,"WEIGHTS_0":3,"JOINTS_0":4},"indices":5,"mode":4,"material":0}]}],"skins":[{"name":"Body bones","joints":[3,2,11,7,12,14,15,16,17,23,24,25,26,13,29,31,32,30,19,21,22,20,5,4,6,8,9,10],"skeleton":2,"inverseBindMatrices":6}],"materials":[{"name":"CopVertexColor","pbrMetallicRoughness":{"baseColorFactor":[1,1,1,1],"metallicFactor":0,"roughnessFactor":1,"baseColorTexture":{"index":0}},"doubleSided":true}],"buffers":[{"uri":"enemy_male_rig.bin","byteLength":261680}],"bufferViews":[{"buffer":0,"byteOffset":0,"byteLength":47544},{"buffer":0,"byteOffset":47544,"byteLength":47544},{"buffer":0,"byteOffset":95088,"byteLength":31696},{"buffer":0,"byteOffset":126784,"byteLength":63392},{"buffer":0,"byteOffset":190176,"byteLength":31696},{"buffer":0,"byteOffset":221872,"byteLength":38016},{"buffer":0,"byteOffset":259888,"byteLength":1792}],"accessors":[{"bufferView":0,"componentType":5126,"count":3962,"type":"VEC3","min":[-0.9394592046737671,-0.18360501527786255,-1.8453432321548462],"max":[0.9394576549530029,0.2178981751203537,-0.001184783293865621]},{"bufferView":1,"componentType":5126,"count":3962,"type":"VEC3"},{"bufferView":2,"componentType":5126,"count":3962,"type":"VEC2"},{"bufferView":3,"componentType":5126,"count":3962,"type":"VEC4"},{"bufferView":4,"componentType":5123,"count":3962,"type":"VEC4"},{"bufferView":5,"componentType":5125,"count":9504,"type":"SCALAR"},{"bufferView":6,"componentType":5126,"count":28,"type":"MAT4"}],"images":[{"uri":"EnemyMale1.png"}],"textures":[{"source":0}]}