{"asset":{"version":"2.0","generator":"Codex Unity YAML static scene converter"},"scene":0,"scenes":[{"name":"Bank original static geometry","nodes":[11,18,21,22,27,30,37,45,55,58,63,79,89,97,98,101,102,105,109,117,157,168,170,171,177,178,179,180]}],"nodes":[{"name":"Untagged_ToonRampSimple_On","translation":[0.0,0.0,-0.0],"rotation":[0.0,0.0,-0.0,1.0],"scale":[1.0,1.0,1.0],"mesh":0},{"name":"GeneratedMesh_2_0_grass9","translation":[-28.0,0.0,22.4],"rotation":[0.0,0.0,-0.0,1.0],"scale":[1.0,1.0,1.0],"mesh":1},{"name":"GeneratedMesh_-1_1_Ground_leaves2","translation":[0.0,0.0,-0.0],"rotation":[0.0,0.0,-0.0,1.0],"scale":[1.0,1.0,1.0],"mesh":2},{"name":"GeneratedMesh_-1_1_Ground_leaves2","translation":[0.0,0.0,-0.0],"rotation":[0.0,0.0,-0.0,1.0],"scale":[1.0,1.0,1.0],"mesh":3},{"name":"GeneratedMesh_0_-1_Ground_leaves2 (4)","translation":[18.15,0.13000011,15.1],"rotation":[0.0,0.9975411,-0.0,-0.07008355],"scale":[1.0,1.0,1.0],"mesh":4},{"name":"GeneratedMesh_0_-1_Ground_leaves2 (1)","translation":[-4.6840916,-1.4200001,9.075428],"rotation":[0.0,0.47279286,-0.0,0.8811736],"scale":[1.0,1.0,1.0],"mesh":4},{"name":"Tutorial3","translation":[14.959999,0.099998474,-8.94],"rotation":[-0.0,-0.0,0.0,1.0],"scale":[1.0,1.0,1.0]},{"name":"Untagged_ToonRampSimpleCutoutTreeAnimated_On","translation":[0.0,0.0,-0.0],"rotation":[0.0,0.0,-0.0,1.0],"scale":[1.0,1.0,1.0],"mesh":5},{"name":"GeneratedMesh_2_0_grass9","translation":[-28.0,0.0,22.4],"rotation":[0.0,0.0,-0.0,1.0],"scale":[1.0,1.0,1.0],"mesh":6},{"name":"Untagged_ToonRampVertexColor_On","translation":[0.0,0.0,-0.0],"rotation":[0.0,0.0,-0.0,1.0],"scale":[1.0,1.0,1.0],"mesh":7},{"name":"CombineMeshRoof1_ToonRampSimpleVertexColorDither_On","translation":[0.0,0.0,-0.0],"rotation":[0.0,0.0,-0.0,1.0],"scale":[1.0,1.0,1.0],"mesh":8},{"name":"CombinedObjects_0_1","translation":[0.0,0.0,-0.0],"rotation":[-0.0,-0.0,0.0,1.0],"scale":[1.0,1.0,1.0],"children":[9,35,41,137,139]},{"name":"Untagged_ToonRampVertexColor_On","translation":[0.0,0.0,-0.0],"rotation":[0.0,0.0,-0.0,1.0],"scale":[1.0,1.0,1.0],"mesh":9},{"name":"Untagged_ToonRampVertexColor_On","translation":[0.0,0.0,-0.0],"rotation":[0.0,0.0,-0.0,1.0],"scale":[1.0,1.0,1.0],"mesh":10},{"name":"Untagged_ToonRampSimpleVertexColorDither_On","translation":[0.0,0.0,-0.0],"rotation":[0.0,0.0,-0.0,1.0],"scale":[1.0,1.0,1.0],"mesh":11},{"name":"Untagged_ToonRampSimpleCutout_On","translation":[0.0,0.0,-0.0],"rotation":[0.0,0.0,-0.0,1.0],"scale":[1.0,1.0,1.0],"mesh":12},{"name":"GeneratedMesh_2_0_grass9","translation":[-28.0,0.0,22.4],"rotation":[0.0,0.0,-0.0,1.0],"scale":[1.0,1.0,1.0],"mesh":13},{"name":"GeneratedMesh_1_2_grass9","translation":[0.0,0.0,-0.0],"rotation":[0.0,0.0,-0.0,1.0],"scale":[1.0,1.0,1.0],"mesh":14},{"name":"GroundQuad00_ToonShading/Opaque/ToonRamp_0","translation":[16.0,0.0005,3.0],"rotation":[-0.0,-0.0,0.0,1.0],"scale":[1.0,1.0,1.0],"mesh":15},{"name":"GeneratedMesh_0_-1_Ground_leaves2 (5)","translation":[9.49,0.13000011,-2.72],"rotation":[0.0,0.5833778,-0.0,-0.812201],"scale":[1.0,1.0,1.0],"mesh":4},{"name":"GeneratedMesh_0_-1_Ground_leaves2 (3)","translation":[16.591007,-1.4200001,21.227238],"rotation":[0.0,0.98907596,-0.0,0.14740725],"scale":[1.0,1.0,1.0],"mesh":4},{"name":"Meshes","translation":[0.0,0.0,-0.0],"rotation":[-0.0,-0.0,0.0,1.0],"scale":[1.0,1.0,1.0],"children":[2,3,4,5,17,19,20,28,56,57,82,87,92,94,103,107,113,130,131,142,167,173,183,184]},{"name":"GroundQuad01_ToonShading/Opaque/ToonRamp_0","translation":[16.0,0.0005,-51.0],"rotation":[-0.0,-0.0,0.0,1.0],"scale":[1.0,1.0,1.0],"mesh":16},{"name":"GeneratedMesh_2_0_grass9","translation":[-28.0,0.0,22.4],"rotation":[0.0,0.0,-0.0,1.0],"scale":[1.0,1.0,1.0],"mesh":17},{"name":"GeneratedMesh_2_0_grass9","translation":[-28.0,0.0,22.4],"rotation":[0.0,0.0,-0.0,1.0],"scale":[1.0,1.0,1.0],"mesh":18},{"name":"GeneratedMesh_2_0_grass9","translation":[-28.0,0.0,22.4],"rotation":[0.0,0.0,-0.0,1.0],"scale":[1.0,1.0,1.0],"mesh":19},{"name":"GeneratedMesh_2_0_grass9","translation":[-28.0,0.0,22.4],"rotation":[0.0,0.0,-0.0,1.0],"scale":[1.0,1.0,1.0],"mesh":20},{"name":"Tutorials","translation":[0.0,0.0,-0.0],"rotation":[0.0,0.0,-0.0,1.0],"scale":[1.0,1.0,1.0],"children":[6,47,61,76,86,119,123]},{"name":"GeneratedMesh_-1_1_Ground_leaves2","translation":[0.0,0.0,-0.0],"rotation":[0.0,0.0,-0.0,1.0],"scale":[1.0,1.0,1.0],"mesh":21},{"name":"GeneratedMesh_2_-1_grass9","translation":[-28.0,0.0,22.4],"rotation":[0.0,0.0,-0.0,1.0],"scale":[1.0,1.0,1.0],"mesh":22},{"name":"GroundQuad10_ToonShading/Opaque/ToonRamp_0","translation":[70.0,0.0005,3.0],"rotation":[-0.0,-0.0,0.0,1.0],"scale":[1.0,1.0,1.0],"mesh":23},{"name":"CombineMeshRoof1_ToonRampSimpleCutoutDither_On","translation":[0.0,0.0,-0.0],"rotation":[0.0,0.0,-0.0,1.0],"scale":[1.0,1.0,1.0],"mesh":24},{"name":"Untagged_ToonRampSimple_On","translation":[0.0,0.0,-0.0],"rotation":[0.0,0.0,-0.0,1.0],"scale":[1.0,1.0,1.0],"mesh":25},{"name":"Untagged_ToonRampSimpleCutoutTreeAnimated_On","translation":[0.0,0.0,-0.0],"rotation":[0.0,0.0,-0.0,1.0],"scale":[1.0,1.0,1.0],"mesh":26},{"name":"Untagged_ToonRampVertexColor_On","translation":[0.0,0.0,-0.0],"rotation":[0.0,0.0,-0.0,1.0],"scale":[1.0,1.0,1.0],"mesh":27},{"name":"Untagged_ToonRamp_On","translation":[0.0,0.0,-0.0],"rotation":[0.0,0.0,-0.0,1.0],"scale":[1.0,1.0,1.0],"mesh":28},{"name":"GeneratedMesh_2_-1_grass9","translation":[-28.0,0.0,22.4],"rotation":[0.0,0.0,-0.0,1.0],"scale":[1.0,1.0,1.0],"mesh":29},{"name":"Grid","translation":[0.0,0.0,-0.0],"rotation":[0.0,0.0,-0.0,1.0],"scale":[1.0,1.0,1.0]},{"name":"GeneratedMesh_2_-1_grass9","translation":[-28.0,0.0,22.4],"rotation":[0.0,0.0,-0.0,1.0],"scale":[1.0,1.0,1.0],"mesh":30},{"name":"Untagged_ToonRampVertexColor_On","translation":[0.0,0.0,-0.0],"rotation":[0.0,0.0,-0.0,1.0],"scale":[1.0,1.0,1.0],"mesh":31},{"name":"GeneratedMesh_2_0_grass9","translation":[-28.0,0.0,22.4],"rotation":[0.0,0.0,-0.0,1.0],"scale":[1.0,1.0,1.0],"mesh":32},{"name":"Untagged_ToonRampSimpleCutout_On","translation":[0.0,0.0,-0.0],"rotation":[0.0,0.0,-0.0,1.0],"scale":[1.0,1.0,1.0],"mesh":33},{"name":"GeneratedMesh_1_1_grass9","translation":[-28.0,0.0,22.4],"rotation":[0.0,0.0,-0.0,1.0],"scale":[1.0,1.0,1.0],"mesh":34},{"name":"GeneratedMesh_2_-1_grass9","translation":[-28.0,0.0,22.4],"rotation":[0.0,0.0,-0.0,1.0],"scale":[1.0,1.0,1.0],"mesh":35},{"name":"Untagged_ToonRampVertexColor_On","translation":[0.0,0.0,-0.0],"rotation":[0.0,0.0,-0.0,1.0],"scale":[1.0,1.0,1.0],"mesh":36},{"name":"CombineMeshRoof1_TacticsRoof","translation":[0.0,0.0,-0.0],"rotation":[-0.0,-0.0,0.0,1.0],"scale":[1.0,1.0,1.0],"children":[10,31,71,72]},{"name":"GeneratedMesh_2_-1_grass9","translation":[-28.0,0.0,22.4],"rotation":[0.0,0.0,-0.0,1.0],"scale":[1.0,1.0,1.0],"mesh":37},{"name":"TutorialCell","translation":[16.0,0.01,-5.19],"rotation":[-0.7071068,0.0,-0.0,0.7071068],"scale":[1.0,1.0,1.0],"children":[99]},{"name":"GeneratedMesh_2_0_grass9","translation":[-28.0,0.0,22.4],"rotation":[0.0,0.0,-0.0,1.0],"scale":[1.0,1.0,1.0],"mesh":38},{"name":"Untagged_ToonRamp_On","translation":[0.0,0.0,-0.0],"rotation":[0.0,0.0,-0.0,1.0],"scale":[1.0,1.0,1.0],"mesh":39},{"name":"Untagged_ToonRampSimple_On","translation":[0.0,0.0,-0.0],"rotation":[0.0,0.0,-0.0,1.0],"scale":[1.0,1.0,1.0],"mesh":40},{"name":"GeneratedMesh_2_0_grass9","translation":[-28.0,0.0,22.4],"rotation":[0.0,0.0,-0.0,1.0],"scale":[1.0,1.0,1.0],"mesh":41},{"name":"Untagged_ToonRampVertexColor_On","translation":[0.0,0.0,-0.0],"rotation":[0.0,0.0,-0.0,1.0],"scale":[1.0,1.0,1.0],"mesh":42},{"name":"Leaves","translation":[0.0,0.0,-0.0],"rotation":[-0.0,-0.0,0.0,1.0],"scale":[1.0,1.0,1.0],"children":[160,175,176]},{"name":"GeneratedMesh_0_1_grass8","translation":[-28.0,0.0,22.4],"rotation":[0.0,0.0,-0.0,1.0],"scale":[1.0,1.0,1.0],"mesh":43},{"name":"CombinedObjects_-1_1","translation":[0.0,0.0,-0.0],"rotation":[-0.0,-0.0,0.0,1.0],"scale":[1.0,1.0,1.0],"children":[44,80]},{"name":"GeneratedMesh_0_0_dirt_asphalt","translation":[0.0,0.0,-0.0],"rotation":[0.0,0.0,-0.0,1.0],"scale":[1.0,1.0,1.0],"mesh":44},{"name":"GeneratedMesh_-1_0_Ground_leaves2","translation":[0.0,0.0,-0.0],"rotation":[0.0,0.0,-0.0,1.0],"scale":[1.0,1.0,1.0],"mesh":45},{"name":"GroundQuad11_ToonShading/Opaque/ToonRamp_0","translation":[70.0,0.0005,-51.0],"rotation":[-0.0,-0.0,0.0,1.0],"scale":[1.0,1.0,1.0],"mesh":46},{"name":"Untagged_ToonRampCutout_On","translation":[0.0,0.0,-0.0],"rotation":[0.0,0.0,-0.0,1.0],"scale":[1.0,1.0,1.0],"mesh":47},{"name":"GeneratedMesh_-1_0_grass9","translation":[-28.0,0.0,22.4],"rotation":[0.0,0.0,-0.0,1.0],"scale":[1.0,1.0,1.0],"mesh":48},{"name":"Tutorial6","translation":[16.739998,0.049999237,-27.0],"rotation":[-0.0,-0.0,0.0,1.0],"scale":[1.0,1.0,1.0]},{"name":"Untagged_ToonRampSimpleCutoutTreeAnimated_On","translation":[0.0,0.0,-0.0],"rotation":[0.0,0.0,-0.0,1.0],"scale":[1.0,1.0,1.0],"mesh":49},{"name":"TacticsBakeSettings","translation":[0.0,0.0,-0.0],"rotation":[-0.0,-0.0,0.0,1.0],"scale":[1.0,1.0,1.0]},{"name":"GeneratedMesh_2_0_grass9","translation":[-28.0,0.0,22.4],"rotation":[0.0,0.0,-0.0,1.0],"scale":[1.0,1.0,1.0],"mesh":50},{"name":"Untagged_ToonRamp_On","translation":[0.0,0.0,-0.0],"rotation":[0.0,0.0,-0.0,1.0],"scale":[1.0,1.0,1.0],"mesh":51},{"name":"Untagged_ToonRampSimpleGlow_On","translation":[0.0,0.0,-0.0],"rotation":[0.0,0.0,-0.0,1.0],"scale":[1.0,1.0,1.0],"mesh":52},{"name":"Untagged_ToonRampSimpleCutoutTreeAnimated_On","translation":[0.0,0.0,-0.0],"rotation":[0.0,0.0,-0.0,1.0],"scale":[1.0,1.0,1.0],"mesh":53},{"name":"GeneratedMesh_1_-1_grass8","translation":[-28.0,0.0,22.4],"rotation":[0.0,0.0,-0.0,1.0],"scale":[1.0,1.0,1.0],"mesh":54},{"name":"Untagged_ToonRampVertexColor_On","translation":[0.0,0.0,-0.0],"rotation":[0.0,0.0,-0.0,1.0],"scale":[1.0,1.0,1.0],"mesh":55},{"name":"Untagged_ToonRampVertexColor_On","translation":[0.0,0.0,-0.0],"rotation":[0.0,0.0,-0.0,1.0],"scale":[1.0,1.0,1.0],"mesh":56},{"name":"CombineMeshRoof1_ToonRampVertexColor_On","translation":[0.0,0.0,-0.0],"rotation":[0.0,0.0,-0.0,1.0],"scale":[1.0,1.0,1.0],"mesh":57},{"name":"CombineMeshRoof1_ToonRampSimpleDither_On","translation":[0.0,0.0,-0.0],"rotation":[0.0,0.0,-0.0,1.0],"scale":[1.0,1.0,1.0],"mesh":58},{"name":"GeneratedMesh_0_1_grass9","translation":[-28.0,0.0,22.4],"rotation":[0.0,0.0,-0.0,1.0],"scale":[1.0,1.0,1.0],"mesh":59},{"name":"GeneratedMesh_2_-1_grass9","translation":[-28.0,0.0,22.4],"rotation":[0.0,0.0,-0.0,1.0],"scale":[1.0,1.0,1.0],"mesh":60},{"name":"GeneratedMesh_2_-1_grass9","translation":[-28.0,0.0,22.4],"rotation":[0.0,0.0,-0.0,1.0],"scale":[1.0,1.0,1.0],"mesh":61},{"name":"Tutorial1","translation":[18.78,0.099998474,-10.28],"rotation":[-0.0,-0.0,0.0,1.0],"scale":[1.0,1.0,1.0]},{"name":"GeneratedMesh_2_-1_grass9","translation":[-28.0,0.0,22.4],"rotation":[0.0,0.0,-0.0,1.0],"scale":[1.0,1.0,1.0],"mesh":62},{"name":"Untagged_ToonRamp_On","translation":[0.0,0.0,-0.0],"rotation":[0.0,0.0,-0.0,1.0],"scale":[1.0,1.0,1.0],"mesh":63},{"name":"CombinedObjects_-1_-1","translation":[0.0,0.0,-0.0],"rotation":[-0.0,-0.0,0.0,1.0],"scale":[1.0,1.0,1.0],"children":[65,84,127,133]},{"name":"Untagged_ToonRamp_On","translation":[0.0,0.0,-0.0],"rotation":[0.0,0.0,-0.0,1.0],"scale":[1.0,1.0,1.0],"mesh":64},{"name":"GeneratedMesh_0_-1_grass8","translation":[-28.0,0.0,22.4],"rotation":[0.0,0.0,-0.0,1.0],"scale":[1.0,1.0,1.0],"mesh":65},{"name":"GeneratedMesh_0_-1_dirt_asphalt","translation":[0.0,0.0,-0.0],"rotation":[0.0,0.0,-0.0,1.0],"scale":[1.0,1.0,1.0],"mesh":66},{"name":"GeneratedMesh_2_0_grass9","translation":[-28.0,0.0,22.4],"rotation":[0.0,0.0,-0.0,1.0],"scale":[1.0,1.0,1.0],"mesh":67},{"name":"Untagged_ToonRampVertexColor_On","translation":[0.0,0.0,-0.0],"rotation":[0.0,0.0,-0.0,1.0],"scale":[1.0,1.0,1.0],"mesh":68},{"name":"Untagged_ToonRampSimple_On","translation":[0.0,0.0,-0.0],"rotation":[0.0,0.0,-0.0,1.0],"scale":[1.0,1.0,1.0],"mesh":69},{"name":"Tutorial4","translation":[23.05,0.099998474,-18.78],"rotation":[-0.0,-0.0,0.0,1.0],"scale":[1.0,1.0,1.0]},{"name":"GeneratedMesh_-1_1_Ground_leaves2","translation":[0.0,0.0,-0.0],"rotation":[0.0,0.0,-0.0,1.0],"scale":[1.0,1.0,1.0],"mesh":70},{"name":"GeneratedMesh_0_-1_grass9","translation":[-28.0,0.0,22.4],"rotation":[0.0,0.0,-0.0,1.0],"scale":[1.0,1.0,1.0],"mesh":71},{"name":"CombinedObjects_1_1","translation":[0.0,0.0,-0.0],"rotation":[-0.0,-0.0,0.0,1.0],"scale":[1.0,1.0,1.0],"children":[32,67]},{"name":"GeneratedMesh_2_0_grass9","translation":[-28.0,0.0,22.4],"rotation":[0.0,0.0,-0.0,1.0],"scale":[1.0,1.0,1.0],"mesh":72},{"name":"GeneratedMesh_2_-1_grass9","translation":[-28.0,0.0,22.4],"rotation":[0.0,0.0,-0.0,1.0],"scale":[1.0,1.0,1.0],"mesh":73},{"name":"GeneratedMesh_0_-1_Ground_leaves2 (2)","translation":[-2.11,-1.4200001,16.64],"rotation":[0.0,0.78001666,-0.0,0.62575877],"scale":[1.0,1.0,1.0],"mesh":4},{"name":"Untagged_ToonRamp_On","translation":[0.0,0.0,-0.0],"rotation":[0.0,0.0,-0.0,1.0],"scale":[1.0,1.0,1.0],"mesh":74},{"name":"GeneratedMesh_-1_1_Ground_leaves2","translation":[0.0,0.0,-0.0],"rotation":[0.0,0.0,-0.0,1.0],"scale":[1.0,1.0,1.0],"mesh":75},{"name":"Untagged_ToonRampVertexColor_On","translation":[0.0,0.0,-0.0],"rotation":[0.0,0.0,-0.0,1.0],"scale":[1.0,1.0,1.0],"mesh":76},{"name":"Untagged_ToonRamp_On","translation":[0.0,0.0,-0.0],"rotation":[0.0,0.0,-0.0,1.0],"scale":[1.0,1.0,1.0],"mesh":77},{"name":"CombinedObjects_0_-1","translation":[0.0,0.0,-0.0],"rotation":[-0.0,-0.0,0.0,1.0],"scale":[1.0,1.0,1.0],"children":[49,52,100,104,118]},{"name":"Battle","translation":[0.0,-4.0,-0.0],"rotation":[0.0,0.0,-0.0,1.0],"scale":[1.0,1.0,1.0],"children":[140]},{"name":"Line","translation":[0.0,-0.0,1.5],"rotation":[-0.6532815,0.27059805,-0.27059805,0.6532815],"scale":[0.05,3.0,0.05]},{"name":"Untagged_ToonRampSimple_On","translation":[0.0,0.0,-0.0],"rotation":[0.0,0.0,-0.0,1.0],"scale":[1.0,1.0,1.0],"mesh":78},{"name":"CombinedObjects_-1_0","translation":[0.0,0.0,-0.0],"rotation":[-0.0,-0.0,0.0,1.0],"scale":[1.0,1.0,1.0],"children":[0,14,108,114,145]},{"name":"CombinedObjects_0_0","translation":[0.0,0.0,-0.0],"rotation":[-0.0,-0.0,0.0,1.0],"scale":[1.0,1.0,1.0],"children":[12,33,39,59,66,78,106,120,132,135,143,146,147]},{"name":"GeneratedMesh_0_-1_Ground_leaves2","translation":[1.178,-1.42,-1.452],"rotation":[0.0,0.0,-0.0,1.0],"scale":[1.0,1.0,1.0],"mesh":4},{"name":"Untagged_ToonRampSimpleCutout_On","translation":[0.0,0.0,-0.0],"rotation":[0.0,0.0,-0.0,1.0],"scale":[1.0,1.0,1.0],"mesh":79},{"name":"CombinedObjects_2_0","translation":[0.0,0.0,-0.0],"rotation":[-0.0,-0.0,0.0,1.0],"scale":[1.0,1.0,1.0],"children":[7,50,95,134]},{"name":"Untagged_ToonRampSimpleFade_On","translation":[0.0,0.0,-0.0],"rotation":[0.0,0.0,-0.0,1.0],"scale":[1.0,1.0,1.0],"mesh":80},{"name":"GeneratedMesh_-1_1_Ground_leaves2","translation":[0.0,0.0,-0.0],"rotation":[0.0,0.0,-0.0,1.0],"scale":[1.0,1.0,1.0],"mesh":81},{"name":"Untagged_ToonRampVertexColor_On","translation":[0.0,0.0,-0.0],"rotation":[0.0,0.0,-0.0,1.0],"scale":[1.0,1.0,1.0],"mesh":82},{"name":"CombinedObjects_1_-1","translation":[0.0,0.0,-0.0],"rotation":[-0.0,-0.0,0.0,1.0],"scale":[1.0,1.0,1.0],"children":[96,148]},{"name":"GeneratedMesh_2_0_grass9","translation":[-28.0,0.0,22.4],"rotation":[0.0,0.0,-0.0,1.0],"scale":[1.0,1.0,1.0],"mesh":83},{"name":"GeneratedMesh_-1_-1_grass9","translation":[-28.0,0.0,22.4],"rotation":[0.0,0.0,-0.0,1.0],"scale":[1.0,1.0,1.0],"mesh":84},{"name":"GeneratedMesh_2_-1_grass9","translation":[-28.0,0.0,22.4],"rotation":[0.0,0.0,-0.0,1.0],"scale":[1.0,1.0,1.0],"mesh":85},{"name":"GeneratedMesh_-1_1_Ground_leaves2","translation":[0.0,0.0,-0.0],"rotation":[0.0,0.0,-0.0,1.0],"scale":[1.0,1.0,1.0],"mesh":86},{"name":"Untagged_ToonRamp_On","translation":[0.0,0.0,-0.0],"rotation":[0.0,0.0,-0.0,1.0],"scale":[1.0,1.0,1.0],"mesh":87},{"name":"GeneratedMesh_2_0_grass9","translation":[-28.0,0.0,22.4],"rotation":[0.0,0.0,-0.0,1.0],"scale":[1.0,1.0,1.0],"mesh":88},{"name":"GeneratedMesh_-1_-1_grass8","translation":[-28.0,0.0,22.4],"rotation":[0.0,0.0,-0.0,1.0],"scale":[1.0,1.0,1.0],"mesh":89},{"name":"CombinedObjects_1_0","translation":[0.0,0.0,-0.0],"rotation":[-0.0,-0.0,0.0,1.0],"scale":[1.0,1.0,1.0],"children":[13,15,34,62,69,70,85,93,124,125,141]},{"name":"Untagged_ToonRampVertexColor_On","translation":[0.0,0.0,-0.0],"rotation":[0.0,0.0,-0.0,1.0],"scale":[1.0,1.0,1.0],"mesh":90},{"name":"Tutorial2","translation":[8.04,0.099998474,-8.93],"rotation":[-0.0,-0.0,0.0,1.0],"scale":[1.0,1.0,1.0]},{"name":"Untagged_ToonRampSimple_On","translation":[0.0,0.0,-0.0],"rotation":[0.0,0.0,-0.0,1.0],"scale":[1.0,1.0,1.0],"mesh":91},{"name":"GeneratedMesh_0_0_grass9","translation":[-28.0,0.0,22.4],"rotation":[0.0,0.0,-0.0,1.0],"scale":[1.0,1.0,1.0],"mesh":92},{"name":"GeneratedMesh_2_0_grass9","translation":[-28.0,0.0,22.4],"rotation":[0.0,0.0,-0.0,1.0],"scale":[1.0,1.0,1.0],"mesh":93},{"name":"Tutorial5","translation":[18.43,0.049999237,-29.09],"rotation":[-0.0,-0.0,0.0,1.0],"scale":[1.0,1.0,1.0]},{"name":"Untagged_ToonRampSimpleDither_On","translation":[0.0,0.0,-0.0],"rotation":[0.0,0.0,-0.0,1.0],"scale":[1.0,1.0,1.0],"mesh":94},{"name":"Untagged_ToonRampVertexColor_On","translation":[0.0,0.0,-0.0],"rotation":[0.0,0.0,-0.0,1.0],"scale":[1.0,1.0,1.0],"mesh":95},{"name":"GeneratedMesh_1_0_grass9","translation":[-28.0,0.0,22.4],"rotation":[0.0,0.0,-0.0,1.0],"scale":[1.0,1.0,1.0],"mesh":96},{"name":"Untagged_ToonRampSimpleCutout_On","translation":[0.0,0.0,-0.0],"rotation":[0.0,0.0,-0.0,1.0],"scale":[1.0,1.0,1.0],"mesh":97},{"name":"GeneratedMesh_2_-1_grass9","translation":[-28.0,0.0,22.4],"rotation":[0.0,0.0,-0.0,1.0],"scale":[1.0,1.0,1.0],"mesh":98},{"name":"GeneratedMesh_0_0_grass8","translation":[-28.0,0.0,22.4],"rotation":[0.0,0.0,-0.0,1.0],"scale":[1.0,1.0,1.0],"mesh":99},{"name":"GeneratedMesh_-1_1_Ground_leaves2","translation":[0.0,0.0,-0.0],"rotation":[0.0,0.0,-0.0,1.0],"scale":[1.0,1.0,1.0],"mesh":100},{"name":"GeneratedMesh_-1_1_Ground_leaves2","translation":[0.0,0.0,-0.0],"rotation":[0.0,0.0,-0.0,1.0],"scale":[1.0,1.0,1.0],"mesh":101},{"name":"Untagged_ToonRampVertexColor_On","translation":[0.0,0.0,-0.0],"rotation":[0.0,0.0,-0.0,1.0],"scale":[1.0,1.0,1.0],"mesh":102},{"name":"Untagged_ToonRampSimple_On","translation":[0.0,0.0,-0.0],"rotation":[0.0,0.0,-0.0,1.0],"scale":[1.0,1.0,1.0],"mesh":103},{"name":"Untagged_ToonRamp_On","translation":[0.0,0.0,-0.0],"rotation":[0.0,0.0,-0.0,1.0],"scale":[1.0,1.0,1.0],"mesh":104},{"name":"Untagged_ToonRampSimpleCutout_On","translation":[0.0,0.0,-0.0],"rotation":[0.0,0.0,-0.0,1.0],"scale":[1.0,1.0,1.0],"mesh":105},{"name":"GeneratedMesh_2_0_grass9","translation":[-28.0,0.0,22.4],"rotation":[0.0,0.0,-0.0,1.0],"scale":[1.0,1.0,1.0],"mesh":106},{"name":"Untagged_ToonRampSimpleCutoutTreeAnimated_On","translation":[0.0,0.0,-0.0],"rotation":[0.0,0.0,-0.0,1.0],"scale":[1.0,1.0,1.0],"mesh":107},{"name":"GeneratedMesh_2_-1_grass9","translation":[-28.0,0.0,22.4],"rotation":[0.0,0.0,-0.0,1.0],"scale":[1.0,1.0,1.0],"mesh":108},{"name":"Untagged_ToonRampSimple_On","translation":[0.0,0.0,-0.0],"rotation":[0.0,0.0,-0.0,1.0],"scale":[1.0,1.0,1.0],"mesh":109},{"name":"IntroStart","translation":[51.03,0.0,-27.29],"rotation":[-0.0,-0.0,0.0,1.0],"scale":[1.0,1.0,1.0]},{"name":"Untagged_ToonRampSimpleFade_On","translation":[0.0,0.0,-0.0],"rotation":[0.0,0.0,-0.0,1.0],"scale":[1.0,1.0,1.0],"mesh":110},{"name":"Dirt","translation":[67.2,0.0,-53.76],"rotation":[0.0,0.0,-0.0,1.0],"scale":[1.4,1.4,1.4],"children":[1,8,16,23,24,25,26,29,36,38,40,42,43,46,48,51,54,60,64,68,73,74,75,77,81,83,88,90,91,110,111,112,115,116,121,122,126,128,129,136,138,144,149]},{"name":"Untagged_ToonRampVertexColor_On","translation":[0.0,0.0,-0.0],"rotation":[0.0,0.0,-0.0,1.0],"scale":[1.0,1.0,1.0],"mesh":111},{"name":"GeneratedMesh_2_-1_grass9","translation":[-28.0,0.0,22.4],"rotation":[0.0,0.0,-0.0,1.0],"scale":[1.0,1.0,1.0],"mesh":112},{"name":"Untagged_ToonRampSimpleDither_On","translation":[0.0,0.0,-0.0],"rotation":[0.0,0.0,-0.0,1.0],"scale":[1.0,1.0,1.0],"mesh":113},{"name":"Untagged_ToonRampVertexColor_On","translation":[0.0,0.0,-0.0],"rotation":[0.0,0.0,-0.0,1.0],"scale":[1.0,1.0,1.0],"mesh":114},{"name":"Untagged_ToonRampVertexColor_On","translation":[0.0,0.0,-0.0],"rotation":[0.0,0.0,-0.0,1.0],"scale":[1.0,1.0,1.0],"mesh":115},{"name":"Untagged_ToonRampVertexColor_On","translation":[0.0,0.0,-0.0],"rotation":[0.0,0.0,-0.0,1.0],"scale":[1.0,1.0,1.0],"mesh":116},{"name":"GeneratedMesh_1_-1_grass9","translation":[-28.0,0.0,22.4],"rotation":[0.0,0.0,-0.0,1.0],"scale":[1.0,1.0,1.0],"mesh":117},{"name":"AudioListener","translation":[-0.0,-0.0,-38.34],"rotation":[-0.0,-0.0,0.0,1.0],"scale":[1.0,1.0,1.0]},{"name":"Snow View","translation":[-11.580001,12.230003,-2.729998],"rotation":[0.7071068,0.0,-7.4505793e-09,-0.7071068],"scale":[1.0,1.0,1.0]},{"name":"Snow View 2","translation":[-1.529999,15.700005,-0.99999857],"rotation":[0.7071068,0.0,-7.4505793e-09,-0.7071068],"scale":[1.0,1.0,1.0]},{"name":"Snow View 4","translation":[-4.2,15.700005,-0.99999857],"rotation":[0.7071068,0.0,-7.4505793e-09,-0.7071068],"scale":[1.0,1.0,1.0]},{"name":"Snow View 2","translation":[-7.8099995,15.700005,-0.99999857],"rotation":[0.7071068,0.0,-7.4505793e-09,-0.7071068],"scale":[1.0,1.0,1.0]},{"name":"Snow View 3","translation":[-4.2,15.700005,-0.99999857],"rotation":[0.7071068,0.0,-7.4505793e-09,-0.7071068],"scale":[1.0,1.0,1.0]},{"name":"Snow","translation":[0.0,0.0,-0.0],"rotation":[-0.0,-0.0,0.0,1.0],"scale":[1.0,1.0,1.0],"children":[151,152,153,154,155,158,159]},{"name":"GameCamera","translation":[1.61,30.0,-5.49],"rotation":[-0.35355338,-0.35355338,-0.1464466,0.8535535],"scale":[1.0,1.0,1.0],"children":[53,150,156,182]},{"name":"Snow","translation":[-0.7,13.53,-10.1],"rotation":[0.7071068,0.0,-7.4505793e-09,-0.7071068],"scale":[1.0,1.0,1.0]},{"name":"Snow View 5","translation":[0.0,-0.0,-2.5],"rotation":[6.258487e-07,8.940696e-08,2.9802319e-08,-1.0],"scale":[1.0,1.0,1.0]},{"name":"Horizontal","translation":[28.4,2.2,-8.0],"rotation":[-0.51001894,0.5001235,-0.49289402,0.49680242],"scale":[1.0,1.0,1.0]},{"name":"RainDiagonal","translation":[-0.7000017,14.699999,-13.4],"rotation":[0.70710677,0.0,-7.450579e-09,-0.70710677],"scale":[1.0,1.0,1.0]},{"name":"RainCloseDiagonal","translation":[-0.7,14.7,-2.82],"rotation":[0.70710677,0.0,-7.450579e-09,-0.70710677],"scale":[1.0,1.0,1.0]},{"name":"Rain View","translation":[-11.580002,7.500004,-2.7300005],"rotation":[0.70710677,0.0,-7.450579e-09,-0.70710677],"scale":[1.0,1.0,1.0]},{"name":"RainClose","translation":[-0.7,14.7,-2.82],"rotation":[0.70710677,0.0,-7.450579e-09,-0.70710677],"scale":[1.0,1.0,1.0]},{"name":"Drops","translation":[0.2757702,0.15179634,-42.578217],"rotation":[0.27059817,0.6532812,0.2705979,0.6532818],"scale":[1.0,1.0,1.0]},{"name":"Rain","translation":[-0.7000017,14.699999,-13.4],"rotation":[0.70710677,0.0,-7.450579e-09,-0.70710677],"scale":[1.0,1.0,1.0]},{"name":"FogCloud (1)","translation":[48.7,-3.0,-57.8],"rotation":[0.0,-0.7071068,-0.0,0.7071068],"scale":[1.0,1.0,1.0]},{"name":"FogCloud","translation":[48.7,3.2,-57.8],"rotation":[0.0,-0.7071068,-0.0,0.7071068],"scale":[1.0,1.0,1.0]},{"name":"Particles","translation":[0.0,0.0,-0.0],"rotation":[-0.0,-0.0,0.0,1.0],"scale":[1.0,1.0,1.0],"children":[161,162,163,164,165,166]},{"name":"Dust","translation":[49.1,15.0,-57.8],"rotation":[0.0,0.0,-0.0,1.0],"scale":[1.0,1.0,1.0]},{"name":"Directional Light","translation":[15.29,0.31057414,-36.59],"rotation":[-0.11689969,0.7986357,0.5851999,-0.07782467],"scale":[1.4000024,1.4000016,1.4000014]},{"name":"Plane (1)","translation":[0.0,0.0,-0.0],"rotation":[0.0,0.0,-0.0,1.0],"scale":[11.5,1.0,8.5]},{"name":"Bank","translation":[28.0,0.0,-22.4],"rotation":[0.0,0.0,-0.0,1.0],"scale":[1.4,1.4,1.4],"children":[172]},{"name":"Fog","translation":[-0.0,-0.0,-1.0],"rotation":[-0.0,-0.0,0.0,1.0],"scale":[100.0,100.0,100.0]},{"name":"Diagonal","translation":[28.2,15.3,-8.1],"rotation":[-0.51001894,0.5001235,-0.49289402,0.49680242],"scale":[1.0,1.0,1.0]},{"name":"Horizontal","translation":[28.4,2.5,-8.0],"rotation":[-0.51001894,0.5001235,-0.49289402,0.49680242],"scale":[1.0,1.0,1.0]},{"name":"Leaves (1)","translation":[33.27,6.0,-45.05],"rotation":[0.0,0.0,-0.0,1.0],"scale":[1.0,1.0,1.0],"children":[188]},{"name":"Leaves (2)","translation":[42.08,6.0,-45.25],"rotation":[0.0,0.0,-0.0,1.0],"scale":[1.0,1.0,1.0],"children":[186]},{"name":"Leaves (3)","translation":[4.1,6.0,-34.75],"rotation":[0.0,0.0,-0.0,1.0],"scale":[1.0,1.0,1.0],"children":[185]},{"name":"Leaves","translation":[25.29,6.0,-13.83],"rotation":[0.0,0.0,-0.0,1.0],"scale":[1.0,1.0,1.0],"children":[187]},{"name":"Ground","translation":[0.0,-21.213203,-21.213207],"rotation":[0.35355338,0.35355338,0.1464466,0.8535535],"scale":[1.0,1.0,1.0]},{"name":"Rain","translation":[0.0,0.0,-0.0],"rotation":[-0.0,-0.0,0.0,1.0],"scale":[1.0,1.0,1.0],"children":[169,174,181]},{"name":"Note (1)","translation":[47.977,1.574,-37.024],"rotation":[0.0,0.3479958,-0.0,0.9374962],"scale":[0.69843,0.69843,0.69843],"mesh":118},{"name":"Note","translation":[42.672,1.5758,-31.794],"rotation":[0.0,0.3479958,-0.0,0.9374962],"scale":[0.69843,0.69843,0.69843],"mesh":119},{"name":"Collision","translation":[0.0,-6.0,-0.0],"rotation":[-0.0,-0.0,0.0,1.0],"scale":[1.0,1.0,1.0]},{"name":"Collision","translation":[0.0,-6.0,-0.0],"rotation":[-0.0,-0.0,0.0,1.0],"scale":[1.0,1.0,1.0]},{"name":"Collision","translation":[0.0,-6.0,-0.0],"rotation":[-0.0,-0.0,0.0,1.0],"scale":[1.0,1.0,1.0]},{"name":"Collision","translation":[0.0,-6.0,-0.0],"rotation":[-0.0,-0.0,0.0,1.0],"scale":[1.0,1.0,1.0]}],"meshes":[{"name":"Combined Mesh (root_ scene) 16_7","primitives":[{"attributes":{"POSITION":0,"NORMAL":1,"TEXCOORD_0":2,"COLOR_0":3},"indices":5,"mode":4,"material":0}]},{"name":"Combined Mesh (root_ scene) 16_7","primitives":[{"attributes":{"POSITION":0,"NORMAL":1,"TEXCOORD_0":2,"COLOR_0":3},"indices":13,"mode":4,"material":1}]},{"name":"Mesh_1898","primitives":[{"attributes":{"POSITION":25,"NORMAL":26,"TEXCOORD_0":27},"indices":28,"mode":4,"material":2}]},{"name":"Mesh_1913","primitives":[{"attributes":{"POSITION":29,"NORMAL":30,"TEXCOORD_0":31},"indices":32,"mode":4,"material":2}]},{"name":"Mesh_1895","primitives":[{"attributes":{"POSITION":33,"NORMAL":34,"TEXCOORD_0":35},"indices":36,"mode":4,"material":2}]},{"name":"Combined Mesh (root_ scene) 14_8","primitives":[{"attributes":{"POSITION":37,"NORMAL":38,"TEXCOORD_0":39,"COLOR_0":40},"indices":45,"mode":4,"material":3}]},{"name":"Combined Mesh (root_ scene) 17_7","primitives":[{"attributes":{"POSITION":46,"NORMAL":47,"TEXCOORD_0":48,"COLOR_0":49},"indices":56,"mode":4,"material":1}]},{"name":"Combined Mesh (root_ scene) 9_3","primitives":[{"attributes":{"POSITION":72,"NORMAL":73,"TEXCOORD_0":74,"COLOR_0":75},"indices":77,"mode":4,"material":4}]},{"name":"Combined Mesh (root_ scene) 3_9","primitives":[{"attributes":{"POSITION":80,"NORMAL":81,"TEXCOORD_0":82,"COLOR_0":83},"indices":84,"mode":4,"material":5}]},{"name":"Combined Mesh (root_ scene) 14_8","primitives":[{"attributes":{"POSITION":37,"NORMAL":38,"TEXCOORD_0":39,"COLOR_0":40},"indices":41,"mode":4,"material":4}]},{"name":"Mesh_1908","primitives":[{"attributes":{"POSITION":87,"NORMAL":88,"TEXCOORD_0":89,"COLOR_0":90},"indices":91,"mode":4,"material":4}]},{"name":"Combined Mesh (root_ scene) 2_8","primitives":[{"attributes":{"POSITION":92,"NORMAL":93,"TEXCOORD_0":94,"COLOR_0":95},"indices":106,"mode":4,"material":5}]},{"name":"Combined Mesh (root_ scene) 15_7","primitives":[{"attributes":{"POSITION":107,"NORMAL":108,"TEXCOORD_0":109,"COLOR_0":110},"indices":120,"mode":4,"material":6}]},{"name":"Combined Mesh (root_ scene) 17_7","primitives":[{"attributes":{"POSITION":46,"NORMAL":47,"TEXCOORD_0":48,"COLOR_0":49},"indices":64,"mode":4,"material":1}]},{"name":"Mesh_1907","primitives":[{"attributes":{"POSITION":128,"NORMAL":129,"TEXCOORD_0":130,"COLOR_0":131},"indices":132,"mode":4,"material":1}]},{"name":"Mesh_1901","primitives":[{"attributes":{"POSITION":133,"NORMAL":134,"TEXCOORD_0":135,"COLOR_0":136},"indices":137,"mode":4,"material":7}]},{"name":"Mesh_1902","primitives":[{"attributes":{"POSITION":138,"NORMAL":139,"TEXCOORD_0":140,"COLOR_0":141},"indices":142,"mode":4,"material":8}]},{"name":"Combined Mesh (root_ scene) 16_7","primitives":[{"attributes":{"POSITION":0,"NORMAL":1,"TEXCOORD_0":2,"COLOR_0":3},"indices":23,"mode":4,"material":1}]},{"name":"Combined Mesh (root_ scene) 16_7","primitives":[{"attributes":{"POSITION":0,"NORMAL":1,"TEXCOORD_0":2,"COLOR_0":3},"indices":15,"mode":4,"material":1}]},{"name":"Combined Mesh (root_ scene) 17_7","primitives":[{"attributes":{"POSITION":46,"NORMAL":47,"TEXCOORD_0":48,"COLOR_0":49},"indices":53,"mode":4,"material":1}]},{"name":"Combined Mesh (root_ scene) 17_7","primitives":[{"attributes":{"POSITION":46,"NORMAL":47,"TEXCOORD_0":48,"COLOR_0":49},"indices":62,"mode":4,"material":1}]},{"name":"Mesh_1904","primitives":[{"attributes":{"POSITION":143,"NORMAL":144,"TEXCOORD_0":145},"indices":146,"mode":4,"material":2}]},{"name":"Combined Mesh (root_ scene) 16_7","primitives":[{"attributes":{"POSITION":0,"NORMAL":1,"TEXCOORD_0":2,"COLOR_0":3},"indices":16,"mode":4,"material":1}]},{"name":"Mesh_1912","primitives":[{"attributes":{"POSITION":147,"NORMAL":148,"TEXCOORD_0":149,"COLOR_0":150},"indices":151,"mode":4,"material":9}]},{"name":"Combined Mesh (root_ scene) 15_7","primitives":[{"attributes":{"POSITION":107,"NORMAL":108,"TEXCOORD_0":109,"COLOR_0":110},"indices":124,"mode":4,"material":10}]},{"name":"Combined Mesh (root_ scene) 15_7","primitives":[{"attributes":{"POSITION":107,"NORMAL":108,"TEXCOORD_0":109,"COLOR_0":110},"indices":125,"mode":4,"material":0}]},{"name":"Combined Mesh (root_ scene) 15_7","primitives":[{"attributes":{"POSITION":107,"NORMAL":108,"TEXCOORD_0":109,"COLOR_0":110},"indices":111,"mode":4,"material":3}]},{"name":"Combined Mesh (root_ scene) 13_6","primitives":[{"attributes":{"POSITION":152,"NORMAL":153,"TEXCOORD_0":154,"COLOR_0":155},"indices":157,"mode":4,"material":4}]},{"name":"Combined Mesh (root_ scene) 2_8","primitives":[{"attributes":{"POSITION":92,"NORMAL":93,"TEXCOORD_0":94,"COLOR_0":95},"indices":98,"mode":4,"material":11}]},{"name":"Combined Mesh (root_ scene) 17_7","primitives":[{"attributes":{"POSITION":46,"NORMAL":47,"TEXCOORD_0":48,"COLOR_0":49},"indices":71,"mode":4,"material":1}]},{"name":"Combined Mesh (root_ scene) 17_7","primitives":[{"attributes":{"POSITION":46,"NORMAL":47,"TEXCOORD_0":48,"COLOR_0":49},"indices":58,"mode":4,"material":1}]},{"name":"Mesh_1906","primitives":[{"attributes":{"POSITION":159,"NORMAL":160,"TEXCOORD_0":161,"COLOR_0":162},"indices":163,"mode":4,"material":4}]},{"name":"Combined Mesh (root_ scene) 16_7","primitives":[{"attributes":{"POSITION":0,"NORMAL":1,"TEXCOORD_0":2,"COLOR_0":3},"indices":21,"mode":4,"material":1}]},{"name":"Combined Mesh (root_ scene) 15_7","primitives":[{"attributes":{"POSITION":107,"NORMAL":108,"TEXCOORD_0":109,"COLOR_0":110},"indices":119,"mode":4,"material":6}]},{"name":"Combined Mesh (root_ scene) 17_7","primitives":[{"attributes":{"POSITION":46,"NORMAL":47,"TEXCOORD_0":48,"COLOR_0":49},"indices":59,"mode":4,"material":1}]},{"name":"Combined Mesh (root_ scene) 16_7","primitives":[{"attributes":{"POSITION":0,"NORMAL":1,"TEXCOORD_0":2,"COLOR_0":3},"indices":12,"mode":4,"material":1}]},{"name":"Combined Mesh (root_ scene) 12_3","primitives":[{"attributes":{"POSITION":164,"NORMAL":165,"TEXCOORD_0":166,"COLOR_0":167},"indices":168,"mode":4,"material":4}]},{"name":"Combined Mesh (root_ scene) 16_7","primitives":[{"attributes":{"POSITION":0,"NORMAL":1,"TEXCOORD_0":2,"COLOR_0":3},"indices":18,"mode":4,"material":1}]},{"name":"Combined Mesh (root_ scene) 17_7","primitives":[{"attributes":{"POSITION":46,"NORMAL":47,"TEXCOORD_0":48,"COLOR_0":49},"indices":66,"mode":4,"material":1}]},{"name":"Combined Mesh (root_ scene)_12","primitives":[{"attributes":{"POSITION":170,"NORMAL":171,"TEXCOORD_0":172,"COLOR_0":173},"indices":176,"mode":4,"material":11}]},{"name":"Combined Mesh (root_ scene) 16_7","primitives":[{"attributes":{"POSITION":0,"NORMAL":1,"TEXCOORD_0":2,"COLOR_0":3},"indices":8,"mode":4,"material":0}]},{"name":"Combined Mesh (root_ scene) 17_7","primitives":[{"attributes":{"POSITION":46,"NORMAL":47,"TEXCOORD_0":48,"COLOR_0":49},"indices":69,"mode":4,"material":1}]},{"name":"Combined Mesh (root_ scene) 10_3","primitives":[{"attributes":{"POSITION":179,"NORMAL":180,"TEXCOORD_0":181,"COLOR_0":182},"indices":185,"mode":4,"material":4}]},{"name":"Combined Mesh (root_ scene) 15_7","primitives":[{"attributes":{"POSITION":107,"NORMAL":108,"TEXCOORD_0":109,"COLOR_0":110},"indices":117,"mode":4,"material":12}]},{"name":"Mesh_1900","primitives":[{"attributes":{"POSITION":186,"NORMAL":187,"TEXCOORD_0":188},"indices":189,"mode":4,"material":13}]},{"name":"Mesh_1916","primitives":[{"attributes":{"POSITION":190,"NORMAL":191,"TEXCOORD_0":192},"indices":193,"mode":4,"material":2}]},{"name":"Mesh_1903","primitives":[{"attributes":{"POSITION":194,"NORMAL":195,"TEXCOORD_0":196,"COLOR_0":197},"indices":198,"mode":4,"material":14}]},{"name":"Combined Mesh (root_ scene) 15_7","primitives":[{"attributes":{"POSITION":107,"NORMAL":108,"TEXCOORD_0":109,"COLOR_0":110},"indices":123,"mode":4,"material":15}]},{"name":"Combined Mesh (root_ scene) 16_7","primitives":[{"attributes":{"POSITION":0,"NORMAL":1,"TEXCOORD_0":2,"COLOR_0":3},"indices":19,"mode":4,"material":1}]},{"name":"Combined Mesh (root_ scene) 14_8","primitives":[{"attributes":{"POSITION":37,"NORMAL":38,"TEXCOORD_0":39,"COLOR_0":40},"indices":43,"mode":4,"material":3}]},{"name":"Combined Mesh (root_ scene) 17_7","primitives":[{"attributes":{"POSITION":46,"NORMAL":47,"TEXCOORD_0":48,"COLOR_0":49},"indices":68,"mode":4,"material":1}]},{"name":"Combined Mesh (root_ scene)_12","primitives":[{"attributes":{"POSITION":170,"NORMAL":171,"TEXCOORD_0":172,"COLOR_0":173},"indices":175,"mode":4,"material":11}]},{"name":"Combined Mesh (root_ scene)_12","primitives":[{"attributes":{"POSITION":170,"NORMAL":171,"TEXCOORD_0":172,"COLOR_0":173},"indices":174,"mode":4,"material":16}]},{"name":"Combined Mesh (root_ scene) 14_8","primitives":[{"attributes":{"POSITION":37,"NORMAL":38,"TEXCOORD_0":39,"COLOR_0":40},"indices":44,"mode":4,"material":3}]},{"name":"Combined Mesh (root_ scene) 15_7","primitives":[{"attributes":{"POSITION":107,"NORMAL":108,"TEXCOORD_0":109,"COLOR_0":110},"indices":113,"mode":4,"material":12}]},{"name":"Combined Mesh (root_ scene) 10_3","primitives":[{"attributes":{"POSITION":179,"NORMAL":180,"TEXCOORD_0":181,"COLOR_0":182},"indices":184,"mode":4,"material":4}]},{"name":"Combined Mesh (root_ scene) 12_3","primitives":[{"attributes":{"POSITION":164,"NORMAL":165,"TEXCOORD_0":166,"COLOR_0":167},"indices":169,"mode":4,"material":4}]},{"name":"Combined Mesh (root_ scene) 9_3","primitives":[{"attributes":{"POSITION":72,"NORMAL":73,"TEXCOORD_0":74,"COLOR_0":75},"indices":79,"mode":4,"material":4}]},{"name":"Combined Mesh (root_ scene) 2_8","primitives":[{"attributes":{"POSITION":92,"NORMAL":93,"TEXCOORD_0":94,"COLOR_0":95},"indices":104,"mode":4,"material":17}]},{"name":"Combined Mesh (root_ scene) 17_7","primitives":[{"attributes":{"POSITION":46,"NORMAL":47,"TEXCOORD_0":48,"COLOR_0":49},"indices":63,"mode":4,"material":1}]},{"name":"Combined Mesh (root_ scene) 16_7","primitives":[{"attributes":{"POSITION":0,"NORMAL":1,"TEXCOORD_0":2,"COLOR_0":3},"indices":11,"mode":4,"material":1}]},{"name":"Combined Mesh (root_ scene) 16_7","primitives":[{"attributes":{"POSITION":0,"NORMAL":1,"TEXCOORD_0":2,"COLOR_0":3},"indices":9,"mode":4,"material":1}]},{"name":"Combined Mesh (root_ scene) 16_7","primitives":[{"attributes":{"POSITION":0,"NORMAL":1,"TEXCOORD_0":2,"COLOR_0":3},"indices":22,"mode":4,"material":1}]},{"name":"Combined Mesh (root_ scene)_12","primitives":[{"attributes":{"POSITION":170,"NORMAL":171,"TEXCOORD_0":172,"COLOR_0":173},"indices":177,"mode":4,"material":11}]},{"name":"Combined Mesh (root_ scene) 2_8","primitives":[{"attributes":{"POSITION":92,"NORMAL":93,"TEXCOORD_0":94,"COLOR_0":95},"indices":97,"mode":4,"material":11}]},{"name":"Combined Mesh (root_ scene) 15_7","primitives":[{"attributes":{"POSITION":107,"NORMAL":108,"TEXCOORD_0":109,"COLOR_0":110},"indices":115,"mode":4,"material":12}]},{"name":"Mesh_1899","primitives":[{"attributes":{"POSITION":199,"NORMAL":200,"TEXCOORD_0":201},"indices":202,"mode":4,"material":13}]},{"name":"Combined Mesh (root_ scene) 16_7","primitives":[{"attributes":{"POSITION":0,"NORMAL":1,"TEXCOORD_0":2,"COLOR_0":3},"indices":20,"mode":4,"material":1}]},{"name":"Combined Mesh (root_ scene) 10_3","primitives":[{"attributes":{"POSITION":179,"NORMAL":180,"TEXCOORD_0":181,"COLOR_0":182},"indices":183,"mode":4,"material":4}]},{"name":"Combined Mesh (root_ scene) 16_7","primitives":[{"attributes":{"POSITION":0,"NORMAL":1,"TEXCOORD_0":2,"COLOR_0":3},"indices":6,"mode":4,"material":0}]},{"name":"Mesh_1909","primitives":[{"attributes":{"POSITION":203,"NORMAL":204,"TEXCOORD_0":205},"indices":206,"mode":4,"material":2}]},{"name":"Combined Mesh (root_ scene) 17_7","primitives":[{"attributes":{"POSITION":46,"NORMAL":47,"TEXCOORD_0":48,"COLOR_0":49},"indices":51,"mode":4,"material":1}]},{"name":"Combined Mesh (root_ scene) 17_7","primitives":[{"attributes":{"POSITION":46,"NORMAL":47,"TEXCOORD_0":48,"COLOR_0":49},"indices":54,"mode":4,"material":1}]},{"name":"Combined Mesh (root_ scene) 16_7","primitives":[{"attributes":{"POSITION":0,"NORMAL":1,"TEXCOORD_0":2,"COLOR_0":3},"indices":17,"mode":4,"material":1}]},{"name":"Combined Mesh (root_ scene)_12","primitives":[{"attributes":{"POSITION":170,"NORMAL":171,"TEXCOORD_0":172,"COLOR_0":173},"indices":178,"mode":4,"material":11}]},{"name":"Mesh_1915","primitives":[{"attributes":{"POSITION":207,"NORMAL":208,"TEXCOORD_0":209},"indices":210,"mode":4,"material":2}]},{"name":"Combined Mesh (root_ scene) 13_6","primitives":[{"attributes":{"POSITION":152,"NORMAL":153,"TEXCOORD_0":154,"COLOR_0":155},"indices":158,"mode":4,"material":4}]},{"name":"Combined Mesh (root_ scene) 2_8","primitives":[{"attributes":{"POSITION":92,"NORMAL":93,"TEXCOORD_0":94,"COLOR_0":95},"indices":99,"mode":4,"material":11}]},{"name":"Combined Mesh (root_ scene) 15_7","primitives":[{"attributes":{"POSITION":107,"NORMAL":108,"TEXCOORD_0":109,"COLOR_0":110},"indices":127,"mode":4,"material":0}]},{"name":"Combined Mesh (root_ scene) 15_7","primitives":[{"attributes":{"POSITION":107,"NORMAL":108,"TEXCOORD_0":109,"COLOR_0":110},"indices":122,"mode":4,"material":6}]},{"name":"Combined Mesh (root_ scene) 3_9","primitives":[{"attributes":{"POSITION":80,"NORMAL":81,"TEXCOORD_0":82,"COLOR_0":83},"indices":85,"mode":4,"material":18}]},{"name":"Mesh_1910","primitives":[{"attributes":{"POSITION":211,"NORMAL":212,"TEXCOORD_0":213},"indices":214,"mode":4,"material":2}]},{"name":"Mesh_1914","primitives":[{"attributes":{"POSITION":215,"NORMAL":216,"TEXCOORD_0":217,"COLOR_0":218},"indices":219,"mode":4,"material":4}]},{"name":"Combined Mesh (root_ scene) 17_7","primitives":[{"attributes":{"POSITION":46,"NORMAL":47,"TEXCOORD_0":48,"COLOR_0":49},"indices":65,"mode":4,"material":1}]},{"name":"Combined Mesh (root_ scene) 17_7","primitives":[{"attributes":{"POSITION":46,"NORMAL":47,"TEXCOORD_0":48,"COLOR_0":49},"indices":70,"mode":4,"material":1}]},{"name":"Combined Mesh (root_ scene) 16_7","primitives":[{"attributes":{"POSITION":0,"NORMAL":1,"TEXCOORD_0":2,"COLOR_0":3},"indices":10,"mode":4,"material":1}]},{"name":"Mesh_1911","primitives":[{"attributes":{"POSITION":220,"NORMAL":221,"TEXCOORD_0":222},"indices":223,"mode":4,"material":2}]},{"name":"Combined Mesh (root_ scene) 2_8","primitives":[{"attributes":{"POSITION":92,"NORMAL":93,"TEXCOORD_0":94,"COLOR_0":95},"indices":96,"mode":4,"material":11}]},{"name":"Combined Mesh (root_ scene) 17_7","primitives":[{"attributes":{"POSITION":46,"NORMAL":47,"TEXCOORD_0":48,"COLOR_0":49},"indices":60,"mode":4,"material":1}]},{"name":"Combined Mesh (root_ scene) 15_7","primitives":[{"attributes":{"POSITION":107,"NORMAL":108,"TEXCOORD_0":109,"COLOR_0":110},"indices":114,"mode":4,"material":12}]},{"name":"Combined Mesh (root_ scene) 9_3","primitives":[{"attributes":{"POSITION":72,"NORMAL":73,"TEXCOORD_0":74,"COLOR_0":75},"indices":78,"mode":4,"material":4}]},{"name":"Combined Mesh (root_ scene) 16_7","primitives":[{"attributes":{"POSITION":0,"NORMAL":1,"TEXCOORD_0":2,"COLOR_0":3},"indices":7,"mode":4,"material":0}]},{"name":"Combined Mesh (root_ scene) 17_7","primitives":[{"attributes":{"POSITION":46,"NORMAL":47,"TEXCOORD_0":48,"COLOR_0":49},"indices":52,"mode":4,"material":1}]},{"name":"Combined Mesh (root_ scene) 16_7","primitives":[{"attributes":{"POSITION":0,"NORMAL":1,"TEXCOORD_0":2,"COLOR_0":3},"indices":14,"mode":4,"material":1}]},{"name":"Combined Mesh (root_ scene) 2_8","primitives":[{"attributes":{"POSITION":92,"NORMAL":93,"TEXCOORD_0":94,"COLOR_0":95},"indices":105,"mode":4,"material":17}]},{"name":"Mesh_1896","primitives":[{"attributes":{"POSITION":224,"NORMAL":225,"TEXCOORD_0":226,"COLOR_0":227},"indices":228,"mode":4,"material":4}]},{"name":"Combined Mesh (root_ scene) 17_7","primitives":[{"attributes":{"POSITION":46,"NORMAL":47,"TEXCOORD_0":48,"COLOR_0":49},"indices":50,"mode":4,"material":1}]},{"name":"Combined Mesh (root_ scene) 15_7","primitives":[{"attributes":{"POSITION":107,"NORMAL":108,"TEXCOORD_0":109,"COLOR_0":110},"indices":118,"mode":4,"material":6}]},{"name":"Combined Mesh (root_ scene) 17_7","primitives":[{"attributes":{"POSITION":46,"NORMAL":47,"TEXCOORD_0":48,"COLOR_0":49},"indices":61,"mode":4,"material":1}]},{"name":"Combined Mesh (root_ scene) 15_7","primitives":[{"attributes":{"POSITION":107,"NORMAL":108,"TEXCOORD_0":109,"COLOR_0":110},"indices":116,"mode":4,"material":12}]},{"name":"Mesh_1894","primitives":[{"attributes":{"POSITION":229,"NORMAL":230,"TEXCOORD_0":231},"indices":232,"mode":4,"material":2}]},{"name":"Mesh_1917","primitives":[{"attributes":{"POSITION":233,"NORMAL":234,"TEXCOORD_0":235},"indices":236,"mode":4,"material":2}]},{"name":"Combined Mesh (root_ scene) 13_6","primitives":[{"attributes":{"POSITION":152,"NORMAL":153,"TEXCOORD_0":154,"COLOR_0":155},"indices":156,"mode":4,"material":4}]},{"name":"Combined Mesh (root_ scene) 15_7","primitives":[{"attributes":{"POSITION":107,"NORMAL":108,"TEXCOORD_0":109,"COLOR_0":110},"indices":126,"mode":4,"material":0}]},{"name":"Combined Mesh (root_ scene) 2_8","primitives":[{"attributes":{"POSITION":92,"NORMAL":93,"TEXCOORD_0":94,"COLOR_0":95},"indices":100,"mode":4,"material":11}]},{"name":"Combined Mesh (root_ scene) 15_7","primitives":[{"attributes":{"POSITION":107,"NORMAL":108,"TEXCOORD_0":109,"COLOR_0":110},"indices":121,"mode":4,"material":6}]},{"name":"Combined Mesh (root_ scene) 17_7","primitives":[{"attributes":{"POSITION":46,"NORMAL":47,"TEXCOORD_0":48,"COLOR_0":49},"indices":67,"mode":4,"material":1}]},{"name":"Combined Mesh (root_ scene) 15_7","primitives":[{"attributes":{"POSITION":107,"NORMAL":108,"TEXCOORD_0":109,"COLOR_0":110},"indices":112,"mode":4,"material":3}]},{"name":"Combined Mesh (root_ scene) 17_7","primitives":[{"attributes":{"POSITION":46,"NORMAL":47,"TEXCOORD_0":48,"COLOR_0":49},"indices":55,"mode":4,"material":1}]},{"name":"Combined Mesh (root_ scene) 16_7","primitives":[{"attributes":{"POSITION":0,"NORMAL":1,"TEXCOORD_0":2,"COLOR_0":3},"indices":4,"mode":4,"material":0}]},{"name":"Combined Mesh (root_ scene) 3_9","primitives":[{"attributes":{"POSITION":80,"NORMAL":81,"TEXCOORD_0":82,"COLOR_0":83},"indices":86,"mode":4,"material":18}]},{"name":"Mesh_1905","primitives":[{"attributes":{"POSITION":237,"NORMAL":238,"TEXCOORD_0":239,"COLOR_0":240},"indices":241,"mode":4,"material":4}]},{"name":"Combined Mesh (root_ scene) 16_7","primitives":[{"attributes":{"POSITION":0,"NORMAL":1,"TEXCOORD_0":2,"COLOR_0":3},"indices":24,"mode":4,"material":1}]},{"name":"Combined Mesh (root_ scene) 2_8","primitives":[{"attributes":{"POSITION":92,"NORMAL":93,"TEXCOORD_0":94,"COLOR_0":95},"indices":103,"mode":4,"material":17}]},{"name":"Mesh_1897","primitives":[{"attributes":{"POSITION":242,"NORMAL":243,"TEXCOORD_0":244,"COLOR_0":245},"indices":246,"mode":4,"material":4}]},{"name":"Combined Mesh (root_ scene) 9_3","primitives":[{"attributes":{"POSITION":72,"NORMAL":73,"TEXCOORD_0":74,"COLOR_0":75},"indices":76,"mode":4,"material":4}]},{"name":"Combined Mesh (root_ scene) 14_8","primitives":[{"attributes":{"POSITION":37,"NORMAL":38,"TEXCOORD_0":39,"COLOR_0":40},"indices":42,"mode":4,"material":4}]},{"name":"Combined Mesh (root_ scene) 17_7","primitives":[{"attributes":{"POSITION":46,"NORMAL":47,"TEXCOORD_0":48,"COLOR_0":49},"indices":57,"mode":4,"material":1}]},{"name":"Combined Mesh (root_ scene) 2_8","primitives":[{"attributes":{"POSITION":92,"NORMAL":93,"TEXCOORD_0":94,"COLOR_0":95},"indices":102,"mode":4,"material":19}]},{"name":"Combined Mesh (root_ scene) 2_8","primitives":[{"attributes":{"POSITION":92,"NORMAL":93,"TEXCOORD_0":94,"COLOR_0":95},"indices":101,"mode":4,"material":19}]}],"buffers":[{"uri":"bank_original.bin","byteLength":46563092}],"bufferViews":[{"buffer":0,"byteOffset":0,"byteLength":746724},{"buffer":0,"byteOffset":746724,"byteLength":746724},{"buffer":0,"byteOffset":1493448,"byteLength":497816},{"buffer":0,"byteOffset":1991264,"byteLength":995632},{"buffer":0,"byteOffset":2986896,"byteLength":236784},{"buffer":0,"byteOffset":3223680,"byteLength":8640},{"buffer":0,"byteOffset":3232320,"byteLength":150744},{"buffer":0,"byteOffset":3383064,"byteLength":157896},{"buffer":0,"byteOffset":3540960,"byteLength":1632},{"buffer":0,"byteOffset":3542592,"byteLength":24},{"buffer":0,"byteOffset":3542616,"byteLength":24},{"buffer":0,"byteOffset":3542640,"byteLength":24},{"buffer":0,"byteOffset":3542664,"byteLength":24},{"buffer":0,"byteOffset":3542688,"byteLength":24},{"buffer":0,"byteOffset":3542712,"byteLength":24},{"buffer":0,"byteOffset":3542736,"byteLength":24},{"buffer":0,"byteOffset":3542760,"byteLength":24},{"buffer":0,"byteOffset":3542784,"byteLength":24},{"buffer":0,"byteOffset":3542808,"byteLength":24},{"buffer":0,"byteOffset":3542832,"byteLength":1128},{"buffer":0,"byteOffset":3543960,"byteLength":24},{"buffer":0,"byteOffset":3543984,"byteLength":24},{"buffer":0,"byteOffset":3544008,"byteLength":24},{"buffer":0,"byteOffset":3544032,"byteLength":24},{"buffer":0,"byteOffset":3544056,"byteLength":24},{"buffer":0,"byteOffset":3544080,"byteLength":48},{"buffer":0,"byteOffset":3544128,"byteLength":48},{"buffer":0,"byteOffset":3544176,"byteLength":32},{"buffer":0,"byteOffset":3544208,"byteLength":24},{"buffer":0,"byteOffset":3544232,"byteLength":48},{"buffer":0,"byteOffset":3544280,"byteLength":48},{"buffer":0,"byteOffset":3544328,"byteLength":32},{"buffer":0,"byteOffset":3544360,"byteLength":24},{"buffer":0,"byteOffset":3544384,"byteLength":48},{"buffer":0,"byteOffset":3544432,"byteLength":48},{"buffer":0,"byteOffset":3544480,"byteLength":32},{"buffer":0,"byteOffset":3544512,"byteLength":24},{"buffer":0,"byteOffset":3544536,"byteLength":592140},{"buffer":0,"byteOffset":4136676,"byteLength":592140},{"buffer":0,"byteOffset":4728816,"byteLength":394760},{"buffer":0,"byteOffset":5123576,"byteLength":789520},{"buffer":0,"byteOffset":5913096,"byteLength":232512},{"buffer":0,"byteOffset":6145608,"byteLength":12480},{"buffer":0,"byteOffset":6158088,"byteLength":112776},{"buffer":0,"byteOffset":6270864,"byteLength":45216},{"buffer":0,"byteOffset":6316080,"byteLength":26736},{"buffer":0,"byteOffset":6342816,"byteLength":312144},{"buffer":0,"byteOffset":6654960,"byteLength":312144},{"buffer":0,"byteOffset":6967104,"byteLength":208096},{"buffer":0,"byteOffset":7175200,"byteLength":416192},{"buffer":0,"byteOffset":7591392,"byteLength":32904},{"buffer":0,"byteOffset":7624296,"byteLength":7680},{"buffer":0,"byteOffset":7631976,"byteLength":48768},{"buffer":0,"byteOffset":7680744,"byteLength":24},{"buffer":0,"byteOffset":7680768,"byteLength":24},{"buffer":0,"byteOffset":7680792,"byteLength":24},{"buffer":0,"byteOffset":7680816,"byteLength":24},{"buffer":0,"byteOffset":7680840,"byteLength":8712},{"buffer":0,"byteOffset":7689552,"byteLength":24},{"buffer":0,"byteOffset":7689576,"byteLength":6288},{"buffer":0,"byteOffset":7695864,"byteLength":24},{"buffer":0,"byteOffset":7695888,"byteLength":24},{"buffer":0,"byteOffset":7695912,"byteLength":24},{"buffer":0,"byteOffset":7695936,"byteLength":50088},{"buffer":0,"byteOffset":7746024,"byteLength":24},{"buffer":0,"byteOffset":7746048,"byteLength":24},{"buffer":0,"byteOffset":7746072,"byteLength":24},{"buffer":0,"byteOffset":7746096,"byteLength":24},{"buffer":0,"byteOffset":7746120,"byteLength":24},{"buffer":0,"byteOffset":7746144,"byteLength":24},{"buffer":0,"byteOffset":7746168,"byteLength":1272},{"buffer":0,"byteOffset":7747440,"byteLength":24},{"buffer":0,"byteOffset":7747464,"byteLength":649356},{"buffer":0,"byteOffset":8396820,"byteLength":649356},{"buffer":0,"byteOffset":9046176,"byteLength":432904},{"buffer":0,"byteOffset":9479080,"byteLength":865808},{"buffer":0,"byteOffset":10344888,"byteLength":83856},{"buffer":0,"byteOffset":10428744,"byteLength":83568},{"buffer":0,"byteOffset":10512312,"byteLength":231972},{"buffer":0,"byteOffset":10744284,"byteLength":27072},{"buffer":0,"byteOffset":10771356,"byteLength":665124},{"buffer":0,"byteOffset":11436480,"byteLength":665124},{"buffer":0,"byteOffset":12101604,"byteLength":443416},{"buffer":0,"byteOffset":12545020,"byteLength":886832},{"buffer":0,"byteOffset":13431852,"byteLength":487116},{"buffer":0,"byteOffset":13918968,"byteLength":9552},{"buffer":0,"byteOffset":13928520,"byteLength":96},{"buffer":0,"byteOffset":13928616,"byteLength":749988},{"buffer":0,"byteOffset":14678604,"byteLength":749988},{"buffer":0,"byteOffset":15428592,"byteLength":499992},{"buffer":0,"byteOffset":15928584,"byteLength":999984},{"buffer":0,"byteOffset":16928568,"byteLength":506136},{"buffer":0,"byteOffset":17434704,"byteLength":216288},{"buffer":0,"byteOffset":17650992,"byteLength":216288},{"buffer":0,"byteOffset":17867280,"byteLength":144192},{"buffer":0,"byteOffset":18011472,"byteLength":288384},{"buffer":0,"byteOffset":18299856,"byteLength":52176},{"buffer":0,"byteOffset":18352032,"byteLength":18492},{"buffer":0,"byteOffset":18370524,"byteLength":6120},{"buffer":0,"byteOffset":18376644,"byteLength":14316},{"buffer":0,"byteOffset":18390960,"byteLength":17712},{"buffer":0,"byteOffset":18408672,"byteLength":1536},{"buffer":0,"byteOffset":18410208,"byteLength":1536},{"buffer":0,"byteOffset":18411744,"byteLength":4872},{"buffer":0,"byteOffset":18416616,"byteLength":10128},{"buffer":0,"byteOffset":18426744,"byteLength":1056},{"buffer":0,"byteOffset":18427800,"byteLength":2760},{"buffer":0,"byteOffset":18430560,"byteLength":649440},{"buffer":0,"byteOffset":19080000,"byteLength":649440},{"buffer":0,"byteOffset":19729440,"byteLength":432960},{"buffer":0,"byteOffset":20162400,"byteLength":865920},{"buffer":0,"byteOffset":21028320,"byteLength":133440},{"buffer":0,"byteOffset":21161760,"byteLength":62304},{"buffer":0,"byteOffset":21224064,"byteLength":720},{"buffer":0,"byteOffset":21224784,"byteLength":120},{"buffer":0,"byteOffset":21224904,"byteLength":840},{"buffer":0,"byteOffset":21225744,"byteLength":1776},{"buffer":0,"byteOffset":21227520,"byteLength":72},{"buffer":0,"byteOffset":21227592,"byteLength":24},{"buffer":0,"byteOffset":21227616,"byteLength":528},{"buffer":0,"byteOffset":21228144,"byteLength":30552},{"buffer":0,"byteOffset":21258696,"byteLength":15744},{"buffer":0,"byteOffset":21274440,"byteLength":48},{"buffer":0,"byteOffset":21274488,"byteLength":168},{"buffer":0,"byteOffset":21274656,"byteLength":768},{"buffer":0,"byteOffset":21275424,"byteLength":235776},{"buffer":0,"byteOffset":21511200,"byteLength":8640},{"buffer":0,"byteOffset":21519840,"byteLength":8640},{"buffer":0,"byteOffset":21528480,"byteLength":1104},{"buffer":0,"byteOffset":21529584,"byteLength":1104},{"buffer":0,"byteOffset":21530688,"byteLength":736},{"buffer":0,"byteOffset":21531424,"byteLength":1472},{"buffer":0,"byteOffset":21532896,"byteLength":552},{"buffer":0,"byteOffset":21533448,"byteLength":48},{"buffer":0,"byteOffset":21533496,"byteLength":48},{"buffer":0,"byteOffset":21533544,"byteLength":32},{"buffer":0,"byteOffset":21533576,"byteLength":64},{"buffer":0,"byteOffset":21533640,"byteLength":24},{"buffer":0,"byteOffset":21533664,"byteLength":48},{"buffer":0,"byteOffset":21533712,"byteLength":48},{"buffer":0,"byteOffset":21533760,"byteLength":32},{"buffer":0,"byteOffset":21533792,"byteLength":64},{"buffer":0,"byteOffset":21533856,"byteLength":24},{"buffer":0,"byteOffset":21533880,"byteLength":48},{"buffer":0,"byteOffset":21533928,"byteLength":48},{"buffer":0,"byteOffset":21533976,"byteLength":32},{"buffer":0,"byteOffset":21534008,"byteLength":24},{"buffer":0,"byteOffset":21534032,"byteLength":48},{"buffer":0,"byteOffset":21534080,"byteLength":48},{"buffer":0,"byteOffset":21534128,"byteLength":32},{"buffer":0,"byteOffset":21534160,"byteLength":64},{"buffer":0,"byteOffset":21534224,"byteLength":24},{"buffer":0,"byteOffset":21534248,"byteLength":497256},{"buffer":0,"byteOffset":22031504,"byteLength":497256},{"buffer":0,"byteOffset":22528760,"byteLength":331504},{"buffer":0,"byteOffset":22860264,"byteLength":663008},{"buffer":0,"byteOffset":23523272,"byteLength":247992},{"buffer":0,"byteOffset":23771264,"byteLength":43128},{"buffer":0,"byteOffset":23814392,"byteLength":68496},{"buffer":0,"byteOffset":23882888,"byteLength":775680},{"buffer":0,"byteOffset":24658568,"byteLength":775680},{"buffer":0,"byteOffset":25434248,"byteLength":517120},{"buffer":0,"byteOffset":25951368,"byteLength":1034240},{"buffer":0,"byteOffset":26985608,"byteLength":557772},{"buffer":0,"byteOffset":27543380,"byteLength":660936},{"buffer":0,"byteOffset":28204316,"byteLength":660936},{"buffer":0,"byteOffset":28865252,"byteLength":440624},{"buffer":0,"byteOffset":29305876,"byteLength":881248},{"buffer":0,"byteOffset":30187124,"byteLength":28464},{"buffer":0,"byteOffset":30215588,"byteLength":472464},{"buffer":0,"byteOffset":30688052,"byteLength":706152},{"buffer":0,"byteOffset":31394204,"byteLength":706152},{"buffer":0,"byteOffset":32100356,"byteLength":470768},{"buffer":0,"byteOffset":32571124,"byteLength":941536},{"buffer":0,"byteOffset":33512660,"byteLength":165888},{"buffer":0,"byteOffset":33678548,"byteLength":53040},{"buffer":0,"byteOffset":33731588,"byteLength":95124},{"buffer":0,"byteOffset":33826712,"byteLength":183336},{"buffer":0,"byteOffset":34010048,"byteLength":89256},{"buffer":0,"byteOffset":34099304,"byteLength":525900},{"buffer":0,"byteOffset":34625204,"byteLength":525900},{"buffer":0,"byteOffset":35151104,"byteLength":350600},{"buffer":0,"byteOffset":35501704,"byteLength":701200},{"buffer":0,"byteOffset":36202904,"byteLength":140712},{"buffer":0,"byteOffset":36343616,"byteLength":208968},{"buffer":0,"byteOffset":36552584,"byteLength":17064},{"buffer":0,"byteOffset":36569648,"byteLength":48},{"buffer":0,"byteOffset":36569696,"byteLength":48},{"buffer":0,"byteOffset":36569744,"byteLength":32},{"buffer":0,"byteOffset":36569776,"byteLength":24},{"buffer":0,"byteOffset":36569800,"byteLength":48},{"buffer":0,"byteOffset":36569848,"byteLength":48},{"buffer":0,"byteOffset":36569896,"byteLength":32},{"buffer":0,"byteOffset":36569928,"byteLength":24},{"buffer":0,"byteOffset":36569952,"byteLength":48},{"buffer":0,"byteOffset":36570000,"byteLength":48},{"buffer":0,"byteOffset":36570048,"byteLength":32},{"buffer":0,"byteOffset":36570080,"byteLength":64},{"buffer":0,"byteOffset":36570144,"byteLength":24},{"buffer":0,"byteOffset":36570168,"byteLength":48},{"buffer":0,"byteOffset":36570216,"byteLength":48},{"buffer":0,"byteOffset":36570264,"byteLength":32},{"buffer":0,"byteOffset":36570296,"byteLength":24},{"buffer":0,"byteOffset":36570320,"byteLength":48},{"buffer":0,"byteOffset":36570368,"byteLength":48},{"buffer":0,"byteOffset":36570416,"byteLength":32},{"buffer":0,"byteOffset":36570448,"byteLength":24},{"buffer":0,"byteOffset":36570472,"byteLength":48},{"buffer":0,"byteOffset":36570520,"byteLength":48},{"buffer":0,"byteOffset":36570568,"byteLength":32},{"buffer":0,"byteOffset":36570600,"byteLength":24},{"buffer":0,"byteOffset":36570624,"byteLength":48},{"buffer":0,"byteOffset":36570672,"byteLength":48},{"buffer":0,"byteOffset":36570720,"byteLength":32},{"buffer":0,"byteOffset":36570752,"byteLength":24},{"buffer":0,"byteOffset":36570776,"byteLength":416028},{"buffer":0,"byteOffset":36986804,"byteLength":416028},{"buffer":0,"byteOffset":37402832,"byteLength":277352},{"buffer":0,"byteOffset":37680184,"byteLength":554704},{"buffer":0,"byteOffset":38234888,"byteLength":299592},{"buffer":0,"byteOffset":38534480,"byteLength":48},{"buffer":0,"byteOffset":38534528,"byteLength":48},{"buffer":0,"byteOffset":38534576,"byteLength":32},{"buffer":0,"byteOffset":38534608,"byteLength":24},{"buffer":0,"byteOffset":38534632,"byteLength":786180},{"buffer":0,"byteOffset":39320812,"byteLength":786180},{"buffer":0,"byteOffset":40106992,"byteLength":524120},{"buffer":0,"byteOffset":40631112,"byteLength":1048240},{"buffer":0,"byteOffset":41679352,"byteLength":565716},{"buffer":0,"byteOffset":42245068,"byteLength":48},{"buffer":0,"byteOffset":42245116,"byteLength":48},{"buffer":0,"byteOffset":42245164,"byteLength":32},{"buffer":0,"byteOffset":42245196,"byteLength":24},{"buffer":0,"byteOffset":42245220,"byteLength":48},{"buffer":0,"byteOffset":42245268,"byteLength":48},{"buffer":0,"byteOffset":42245316,"byteLength":32},{"buffer":0,"byteOffset":42245348,"byteLength":24},{"buffer":0,"byteOffset":42245372,"byteLength":539868},{"buffer":0,"byteOffset":42785240,"byteLength":539868},{"buffer":0,"byteOffset":43325108,"byteLength":359912},{"buffer":0,"byteOffset":43685020,"byteLength":719824},{"buffer":0,"byteOffset":44404844,"byteLength":409032},{"buffer":0,"byteOffset":44813876,"byteLength":363072},{"buffer":0,"byteOffset":45176948,"byteLength":363072},{"buffer":0,"byteOffset":45540020,"byteLength":242048},{"buffer":0,"byteOffset":45782068,"byteLength":484096},{"buffer":0,"byteOffset":46266164,"byteLength":296928}],"accessors":[{"bufferView":0,"componentType":5126,"count":62227,"type":"VEC3","min":[-26.57839584350586,-6.675720101156912e-07,-67.53299713134766],"max":[116.80000305175781,9.09999942779541,-15.702909469604492]},{"bufferView":1,"componentType":5126,"count":62227,"type":"VEC3"},{"bufferView":2,"componentType":5126,"count":62227,"type":"VEC2"},{"bufferView":3,"componentType":5126,"count":62227,"type":"VEC4"},{"bufferView":4,"componentType":5125,"count":59196,"type":"SCALAR"},{"bufferView":5,"componentType":5125,"count":2160,"type":"SCALAR"},{"bufferView":6,"componentType":5125,"count":37686,"type":"SCALAR"},{"bufferView":7,"componentType":5125,"count":39474,"type":"SCALAR"},{"bufferView":8,"componentType":5125,"count":408,"type":"SCALAR"},{"bufferView":9,"componentType":5125,"count":6,"type":"SCALAR"},{"bufferView":10,"componentType":5125,"count":6,"type":"SCALAR"},{"bufferView":11,"componentType":5125,"count":6,"type":"SCALAR"},{"bufferView":12,"componentType":5125,"count":6,"type":"SCALAR"},{"bufferView":13,"componentType":5125,"count":6,"type":"SCALAR"},{"bufferView":14,"componentType":5125,"count":6,"type":"SCALAR"},{"bufferView":15,"componentType":5125,"count":6,"type":"SCALAR"},{"bufferView":16,"componentType":5125,"count":6,"type":"SCALAR"},{"bufferView":17,"componentType":5125,"count":6,"type":"SCALAR"},{"bufferView":18,"componentType":5125,"count":6,"type":"SCALAR"},{"bufferView":19,"componentType":5125,"count":282,"type":"SCALAR"},{"bufferView":20,"componentType":5125,"count":6,"type":"SCALAR"},{"bufferView":21,"componentType":5125,"count":6,"type":"SCALAR"},{"bufferView":22,"componentType":5125,"count":6,"type":"SCALAR"},{"bufferView":23,"componentType":5125,"count":6,"type":"SCALAR"},{"bufferView":24,"componentType":5125,"count":6,"type":"SCALAR"},{"bufferView":25,"componentType":5126,"count":4,"type":"VEC3","min":[-18.33954429626465,0.980377197265625,-48.25999069213867],"max":[-18.30095100402832,7.001089572906494,-42.23939895629883]},{"bufferView":26,"componentType":5126,"count":4,"type":"VEC3"},{"bufferView":27,"componentType":5126,"count":4,"type":"VEC2"},{"bufferView":28,"componentType":5125,"count":6,"type":"SCALAR"},{"bufferView":29,"componentType":5126,"count":4,"type":"VEC3","min":[-12.398508071899414,9.503337860107422,-45.549381256103516],"max":[-7.998508453369141,9.503337860107422,-41.14937973022461]},{"bufferView":30,"componentType":5126,"count":4,"type":"VEC3"},{"bufferView":31,"componentType":5126,"count":4,"type":"VEC2"},{"bufferView":32,"componentType":5125,"count":6,"type":"SCALAR"},{"bufferView":33,"componentType":5126,"count":4,"type":"VEC3","min":[6.493366241455078,10.908039093017578,5.156559944152832],"max":[11.882242202758789,10.908039093017578,10.545435905456543]},{"bufferView":34,"componentType":5126,"count":4,"type":"VEC3"},{"bufferView":35,"componentType":5126,"count":4,"type":"VEC2"},{"bufferView":36,"componentType":5125,"count":6,"type":"SCALAR"},{"bufferView":37,"componentType":5126,"count":49345,"type":"VEC3","min":[7.068562984466553,-0.3919999897480011,-66.17310333251953],"max":[114.53605651855469,11.399999618530273,42.10001754760742]},{"bufferView":38,"componentType":5126,"count":49345,"type":"VEC3"},{"bufferView":39,"componentType":5126,"count":49345,"type":"VEC2"},{"bufferView":40,"componentType":5126,"count":49345,"type":"VEC4"},{"bufferView":41,"componentType":5125,"count":58128,"type":"SCALAR"},{"bufferView":42,"componentType":5125,"count":3120,"type":"SCALAR"},{"bufferView":43,"componentType":5125,"count":28194,"type":"SCALAR"},{"bufferView":44,"componentType":5125,"count":11304,"type":"SCALAR"},{"bufferView":45,"componentType":5125,"count":6684,"type":"SCALAR"},{"bufferView":46,"componentType":5126,"count":26012,"type":"VEC3","min":[23.88559341430664,-2.670288040462765e-06,-66.66822814941406],"max":[86.52740478515625,0.7820282578468323,-8.5289945602417]},{"bufferView":47,"componentType":5126,"count":26012,"type":"VEC3"},{"bufferView":48,"componentType":5126,"count":26012,"type":"VEC2"},{"bufferView":49,"componentType":5126,"count":26012,"type":"VEC4"},{"bufferView":50,"componentType":5125,"count":8226,"type":"SCALAR"},{"bufferView":51,"componentType":5125,"count":1920,"type":"SCALAR"},{"bufferView":52,"componentType":5125,"count":12192,"type":"SCALAR"},{"bufferView":53,"componentType":5125,"count":6,"type":"SCALAR"},{"bufferView":54,"componentType":5125,"count":6,"type":"SCALAR"},{"bufferView":55,"componentType":5125,"count":6,"type":"SCALAR"},{"bufferView":56,"componentType":5125,"count":6,"type":"SCALAR"},{"bufferView":57,"componentType":5125,"count":2178,"type":"SCALAR"},{"bufferView":58,"componentType":5125,"count":6,"type":"SCALAR"},{"bufferView":59,"componentType":5125,"count":1572,"type":"SCALAR"},{"bufferView":60,"componentType":5125,"count":6,"type":"SCALAR"},{"bufferView":61,"componentType":5125,"count":6,"type":"SCALAR"},{"bufferView":62,"componentType":5125,"count":6,"type":"SCALAR"},{"bufferView":63,"componentType":5125,"count":12522,"type":"SCALAR"},{"bufferView":64,"componentType":5125,"count":6,"type":"SCALAR"},{"bufferView":65,"componentType":5125,"count":6,"type":"SCALAR"},{"bufferView":66,"componentType":5125,"count":6,"type":"SCALAR"},{"bufferView":67,"componentType":5125,"count":6,"type":"SCALAR"},{"bufferView":68,"componentType":5125,"count":6,"type":"SCALAR"},{"bufferView":69,"componentType":5125,"count":6,"type":"SCALAR"},{"bufferView":70,"componentType":5125,"count":318,"type":"SCALAR"},{"bufferView":71,"componentType":5125,"count":6,"type":"SCALAR"},{"bufferView":72,"componentType":5126,"count":54113,"type":"VEC3","min":[-1.224884271621704,-0.006623458117246628,-88.29999542236328],"max":[54.94302749633789,18.93000030517578,42.100013732910156]},{"bufferView":73,"componentType":5126,"count":54113,"type":"VEC3"},{"bufferView":74,"componentType":5126,"count":54113,"type":"VEC2"},{"bufferView":75,"componentType":5126,"count":54113,"type":"VEC4"},{"bufferView":76,"componentType":5125,"count":20964,"type":"SCALAR"},{"bufferView":77,"componentType":5125,"count":20892,"type":"SCALAR"},{"bufferView":78,"componentType":5125,"count":57993,"type":"SCALAR"},{"bufferView":79,"componentType":5125,"count":6768,"type":"SCALAR"},{"bufferView":80,"componentType":5126,"count":55427,"type":"VEC3","min":[3.110206365585327,0.3677424192428589,-38.697998046875],"max":[72.29800415039062,7.083596229553223,-14.55234432220459]},{"bufferView":81,"componentType":5126,"count":55427,"type":"VEC3"},{"bufferView":82,"componentType":5126,"count":55427,"type":"VEC2"},{"bufferView":83,"componentType":5126,"count":55427,"type":"VEC4"},{"bufferView":84,"componentType":5125,"count":121779,"type":"SCALAR"},{"bufferView":85,"componentType":5125,"count":2388,"type":"SCALAR"},{"bufferView":86,"componentType":5125,"count":24,"type":"SCALAR"},{"bufferView":87,"componentType":5126,"count":62499,"type":"VEC3","min":[51.4947624206543,-0.0024015577509999275,-37.63001251220703],"max":[98.88087463378906,3.143995523452759,-8.943357467651367]},{"bufferView":88,"componentType":5126,"count":62499,"type":"VEC3"},{"bufferView":89,"componentType":5126,"count":62499,"type":"VEC2"},{"bufferView":90,"componentType":5126,"count":62499,"type":"VEC4"},{"bufferView":91,"componentType":5125,"count":126534,"type":"SCALAR"},{"bufferView":92,"componentType":5126,"count":18024,"type":"VEC3","min":[-28.322601318359375,-4.943040758203761e-15,-61.250030517578125],"max":[120.86026000976562,11.5,42.200016021728516]},{"bufferView":93,"componentType":5126,"count":18024,"type":"VEC3"},{"bufferView":94,"componentType":5126,"count":18024,"type":"VEC2"},{"bufferView":95,"componentType":5126,"count":18024,"type":"VEC4"},{"bufferView":96,"componentType":5125,"count":13044,"type":"SCALAR"},{"bufferView":97,"componentType":5125,"count":4623,"type":"SCALAR"},{"bufferView":98,"componentType":5125,"count":1530,"type":"SCALAR"},{"bufferView":99,"componentType":5125,"count":3579,"type":"SCALAR"},{"bufferView":100,"componentType":5125,"count":4428,"type":"SCALAR"},{"bufferView":101,"componentType":5125,"count":384,"type":"SCALAR"},{"bufferView":102,"componentType":5125,"count":384,"type":"SCALAR"},{"bufferView":103,"componentType":5125,"count":1218,"type":"SCALAR"},{"bufferView":104,"componentType":5125,"count":2532,"type":"SCALAR"},{"bufferView":105,"componentType":5125,"count":264,"type":"SCALAR"},{"bufferView":106,"componentType":5125,"count":690,"type":"SCALAR"},{"bufferView":107,"componentType":5126,"count":54120,"type":"VEC3","min":[-12.192018508911133,-1.9040002822875977,-67.53299713134766],"max":[71.73299407958984,12.144082069396973,40.60002136230469]},{"bufferView":108,"componentType":5126,"count":54120,"type":"VEC3"},{"bufferView":109,"componentType":5126,"count":54120,"type":"VEC2"},{"bufferView":110,"componentType":5126,"count":54120,"type":"VEC4"},{"bufferView":111,"componentType":5125,"count":33360,"type":"SCALAR"},{"bufferView":112,"componentType":5125,"count":15576,"type":"SCALAR"},{"bufferView":113,"componentType":5125,"count":180,"type":"SCALAR"},{"bufferView":114,"componentType":5125,"count":30,"type":"SCALAR"},{"bufferView":115,"componentType":5125,"count":210,"type":"SCALAR"},{"bufferView":116,"componentType":5125,"count":444,"type":"SCALAR"},{"bufferView":117,"componentType":5125,"count":18,"type":"SCALAR"},{"bufferView":118,"componentType":5125,"count":6,"type":"SCALAR"},{"bufferView":119,"componentType":5125,"count":132,"type":"SCALAR"},{"bufferView":120,"componentType":5125,"count":7638,"type":"SCALAR"},{"bufferView":121,"componentType":5125,"count":3936,"type":"SCALAR"},{"bufferView":122,"componentType":5125,"count":12,"type":"SCALAR"},{"bufferView":123,"componentType":5125,"count":42,"type":"SCALAR"},{"bufferView":124,"componentType":5125,"count":192,"type":"SCALAR"},{"bufferView":125,"componentType":5125,"count":58944,"type":"SCALAR"},{"bufferView":126,"componentType":5125,"count":2160,"type":"SCALAR"},{"bufferView":127,"componentType":5125,"count":2160,"type":"SCALAR"},{"bufferView":128,"componentType":5126,"count":92,"type":"VEC3","min":[23.876005172729492,0.0,-44.6580696105957],"max":[25.318199157714844,0.6694945693016052,-42.63898468017578]},{"bufferView":129,"componentType":5126,"count":92,"type":"VEC3"},{"bufferView":130,"componentType":5126,"count":92,"type":"VEC2"},{"bufferView":131,"componentType":5126,"count":92,"type":"VEC4"},{"bufferView":132,"componentType":5125,"count":138,"type":"SCALAR"},{"bufferView":133,"componentType":5126,"count":4,"type":"VEC3","min":[-27.0,0.0,-27.0],"max":[27.0,0.0,27.0]},{"bufferView":134,"componentType":5126,"count":4,"type":"VEC3"},{"bufferView":135,"componentType":5126,"count":4,"type":"VEC2"},{"bufferView":136,"componentType":5126,"count":4,"type":"VEC4"},{"bufferView":137,"componentType":5125,"count":6,"type":"SCALAR"},{"bufferView":138,"componentType":5126,"count":4,"type":"VEC3","min":[-27.0,0.0,-27.0],"max":[27.0,0.0,27.0]},{"bufferView":139,"componentType":5126,"count":4,"type":"VEC3"},{"bufferView":140,"componentType":5126,"count":4,"type":"VEC2"},{"bufferView":141,"componentType":5126,"count":4,"type":"VEC4"},{"bufferView":142,"componentType":5125,"count":6,"type":"SCALAR"},{"bufferView":143,"componentType":5126,"count":4,"type":"VEC3","min":[-13.203893661499023,9.503238677978516,-43.29742431640625],"max":[-6.98135232925415,9.503238677978516,-37.07488250732422]},{"bufferView":144,"componentType":5126,"count":4,"type":"VEC3"},{"bufferView":145,"componentType":5126,"count":4,"type":"VEC2"},{"bufferView":146,"componentType":5125,"count":6,"type":"SCALAR"},{"bufferView":147,"componentType":5126,"count":4,"type":"VEC3","min":[-27.0,0.0,-27.0],"max":[27.0,0.0,27.0]},{"bufferView":148,"componentType":5126,"count":4,"type":"VEC3"},{"bufferView":149,"componentType":5126,"count":4,"type":"VEC2"},{"bufferView":150,"componentType":5126,"count":4,"type":"VEC4"},{"bufferView":151,"componentType":5125,"count":6,"type":"SCALAR"},{"bufferView":152,"componentType":5126,"count":41438,"type":"VEC3","min":[3.1040472984313965,-0.13274012506008148,-49.40045166015625],"max":[120.9753189086914,6.5,-4.982053279876709]},{"bufferView":153,"componentType":5126,"count":41438,"type":"VEC3"},{"bufferView":154,"componentType":5126,"count":41438,"type":"VEC2"},{"bufferView":155,"componentType":5126,"count":41438,"type":"VEC4"},{"bufferView":156,"componentType":5125,"count":61998,"type":"SCALAR"},{"bufferView":157,"componentType":5125,"count":10782,"type":"SCALAR"},{"bufferView":158,"componentType":5125,"count":17124,"type":"SCALAR"},{"bufferView":159,"componentType":5126,"count":64640,"type":"VEC3","min":[4.16839599609375,-4.300401210784912,-49.85663986206055],"max":[50.52289962768555,4.579023838043213,-4.067585468292236]},{"bufferView":160,"componentType":5126,"count":64640,"type":"VEC3"},{"bufferView":161,"componentType":5126,"count":64640,"type":"VEC2"},{"bufferView":162,"componentType":5126,"count":64640,"type":"VEC4"},{"bufferView":163,"componentType":5125,"count":139443,"type":"SCALAR"},{"bufferView":164,"componentType":5126,"count":55078,"type":"VEC3","min":[-28.221961975097656,-8.98668986337725e-06,-88.29999542236328],"max":[86.98088073730469,11.399999618530273,-8.524667739868164]},{"bufferView":165,"componentType":5126,"count":55078,"type":"VEC3"},{"bufferView":166,"componentType":5126,"count":55078,"type":"VEC2"},{"bufferView":167,"componentType":5126,"count":55078,"type":"VEC4"},{"bufferView":168,"componentType":5125,"count":7116,"type":"SCALAR"},{"bufferView":169,"componentType":5125,"count":118116,"type":"SCALAR"},{"bufferView":170,"componentType":5126,"count":58846,"type":"VEC3","min":[-13.771984100341797,-4.981797695159912,-58.26542282104492],"max":[100.0999984741211,11.5,42.200016021728516]},{"bufferView":171,"componentType":5126,"count":58846,"type":"VEC3"},{"bufferView":172,"componentType":5126,"count":58846,"type":"VEC2"},{"bufferView":173,"componentType":5126,"count":58846,"type":"VEC4"},{"bufferView":174,"componentType":5125,"count":41472,"type":"SCALAR"},{"bufferView":175,"componentType":5125,"count":13260,"type":"SCALAR"},{"bufferView":176,"componentType":5125,"count":23781,"type":"SCALAR"},{"bufferView":177,"componentType":5125,"count":45834,"type":"SCALAR"},{"bufferView":178,"componentType":5125,"count":22314,"type":"SCALAR"},{"bufferView":179,"componentType":5126,"count":43825,"type":"VEC3","min":[-19.69999885559082,-0.02273416519165039,-50.23783493041992],"max":[100.0999984741211,10.639532089233398,33.09803771972656]},{"bufferView":180,"componentType":5126,"count":43825,"type":"VEC3"},{"bufferView":181,"componentType":5126,"count":43825,"type":"VEC2"},{"bufferView":182,"componentType":5126,"count":43825,"type":"VEC4"},{"bufferView":183,"componentType":5125,"count":35178,"type":"SCALAR"},{"bufferView":184,"componentType":5125,"count":52242,"type":"SCALAR"},{"bufferView":185,"componentType":5125,"count":4266,"type":"SCALAR"},{"bufferView":186,"componentType":5126,"count":4,"type":"VEC3","min":[37.236671447753906,-0.2647000253200531,-2.7935075759887695],"max":[38.236671447753906,-0.2647000253200531,-0.19350719451904297]},{"bufferView":187,"componentType":5126,"count":4,"type":"VEC3"},{"bufferView":188,"componentType":5126,"count":4,"type":"VEC2"},{"bufferView":189,"componentType":5125,"count":6,"type":"SCALAR"},{"bufferView":190,"componentType":5126,"count":4,"type":"VEC3","min":[-15.82792854309082,9.511338233947754,-42.19450759887695],"max":[-9.81741714477539,9.511338233947754,-36.18399429321289]},{"bufferView":191,"componentType":5126,"count":4,"type":"VEC3"},{"bufferView":192,"componentType":5126,"count":4,"type":"VEC2"},{"bufferView":193,"componentType":5125,"count":6,"type":"SCALAR"},{"bufferView":194,"componentType":5126,"count":4,"type":"VEC3","min":[-27.0,0.0,-27.0],"max":[27.0,0.0,27.0]},{"bufferView":195,"componentType":5126,"count":4,"type":"VEC3"},{"bufferView":196,"componentType":5126,"count":4,"type":"VEC2"},{"bufferView":197,"componentType":5126,"count":4,"type":"VEC4"},{"bufferView":198,"componentType":5125,"count":6,"type":"SCALAR"},{"bufferView":199,"componentType":5126,"count":4,"type":"VEC3","min":[34.69873809814453,-0.2736999988555908,1.0462613105773926],"max":[36.86476135253906,-0.2736999988555908,3.7979273796081543]},{"bufferView":200,"componentType":5126,"count":4,"type":"VEC3"},{"bufferView":201,"componentType":5126,"count":4,"type":"VEC2"},{"bufferView":202,"componentType":5125,"count":6,"type":"SCALAR"},{"bufferView":203,"componentType":5126,"count":4,"type":"VEC3","min":[-5.046993255615234,9.502938270568848,-45.9414176940918],"max":[1.1755478382110596,9.502938270568848,-39.718875885009766]},{"bufferView":204,"componentType":5126,"count":4,"type":"VEC3"},{"bufferView":205,"componentType":5126,"count":4,"type":"VEC2"},{"bufferView":206,"componentType":5125,"count":6,"type":"SCALAR"},{"bufferView":207,"componentType":5126,"count":4,"type":"VEC3","min":[-7.24381160736084,9.50303840637207,-43.96174621582031],"max":[-1.854933738708496,9.50303840637207,-38.57286834716797]},{"bufferView":208,"componentType":5126,"count":4,"type":"VEC3"},{"bufferView":209,"componentType":5126,"count":4,"type":"VEC2"},{"bufferView":210,"componentType":5125,"count":6,"type":"SCALAR"},{"bufferView":211,"componentType":5126,"count":4,"type":"VEC3","min":[-5.269247531890869,9.502839088439941,-44.12938690185547],"max":[0.892735481262207,9.502839088439941,-37.9674072265625]},{"bufferView":212,"componentType":5126,"count":4,"type":"VEC3"},{"bufferView":213,"componentType":5126,"count":4,"type":"VEC2"},{"bufferView":214,"componentType":5125,"count":6,"type":"SCALAR"},{"bufferView":215,"componentType":5126,"count":34669,"type":"VEC3","min":[-28.149524688720703,0.0,-50.047706604003906],"max":[0.26069962978363037,12.034478187561035,-14.0]},{"bufferView":216,"componentType":5126,"count":34669,"type":"VEC3"},{"bufferView":217,"componentType":5126,"count":34669,"type":"VEC2"},{"bufferView":218,"componentType":5126,"count":34669,"type":"VEC4"},{"bufferView":219,"componentType":5125,"count":74898,"type":"SCALAR"},{"bufferView":220,"componentType":5126,"count":4,"type":"VEC3","min":[-15.58375358581543,9.503438949584961,-44.12335968017578],"max":[-9.5732421875,9.503438949584961,-38.11284637451172]},{"bufferView":221,"componentType":5126,"count":4,"type":"VEC3"},{"bufferView":222,"componentType":5126,"count":4,"type":"VEC2"},{"bufferView":223,"componentType":5125,"count":6,"type":"SCALAR"},{"bufferView":224,"componentType":5126,"count":65515,"type":"VEC3","min":[49.35663986206055,-0.002549711149185896,-37.79999542236328],"max":[71.56205749511719,2.8249998092651367,-16.63792610168457]},{"bufferView":225,"componentType":5126,"count":65515,"type":"VEC3"},{"bufferView":226,"componentType":5126,"count":65515,"type":"VEC2"},{"bufferView":227,"componentType":5126,"count":65515,"type":"VEC4"},{"bufferView":228,"componentType":5125,"count":141429,"type":"SCALAR"},{"bufferView":229,"componentType":5126,"count":4,"type":"VEC3","min":[-18.334291458129883,2.4383063316345215,-47.44090270996094],"max":[-18.294408798217773,8.660720825195312,-41.21862030029297]},{"bufferView":230,"componentType":5126,"count":4,"type":"VEC3"},{"bufferView":231,"componentType":5126,"count":4,"type":"VEC2"},{"bufferView":232,"componentType":5125,"count":6,"type":"SCALAR"},{"bufferView":233,"componentType":5126,"count":4,"type":"VEC3","min":[-7.715545177459717,9.503138542175293,-46.85091018676758],"max":[-1.493004322052002,9.503138542175293,-40.62836837768555]},{"bufferView":234,"componentType":5126,"count":4,"type":"VEC3"},{"bufferView":235,"componentType":5126,"count":4,"type":"VEC2"},{"bufferView":236,"componentType":5125,"count":6,"type":"SCALAR"},{"bufferView":237,"componentType":5126,"count":44989,"type":"VEC3","min":[0.24933385848999023,-2.7300000190734863,-39.66078186035156],"max":[54.599998474121094,6.201759338378906,-8.52468490600586]},{"bufferView":238,"componentType":5126,"count":44989,"type":"VEC3"},{"bufferView":239,"componentType":5126,"count":44989,"type":"VEC2"},{"bufferView":240,"componentType":5126,"count":44989,"type":"VEC4"},{"bufferView":241,"componentType":5125,"count":102258,"type":"SCALAR"},{"bufferView":242,"componentType":5126,"count":30256,"type":"VEC3","min":[0.03003227710723877,-5.067999839782715,-49.975276947021484],"max":[49.20000457763672,10.0,-5.39560604095459]},{"bufferView":243,"componentType":5126,"count":30256,"type":"VEC3"},{"bufferView":244,"componentType":5126,"count":30256,"type":"VEC2"},{"bufferView":245,"componentType":5126,"count":30256,"type":"VEC4"},{"bufferView":246,"componentType":5125,"count":74232,"type":"SCALAR"}],"images":[{"uri":"source_textures/Meshes_AtlasTexture_12.png"},{"uri":"source_textures/grass9_6.png"},{"uri":"source_textures/Ground_leaves2_2.png"},{"uri":"source_textures/GroundTexture_Bank00_0.png"},{"uri":"source_textures/GroundTexture_Bank01_0.png"},{"uri":"source_textures/GroundTexture_Bank10_0.png"},{"uri":"source_textures/grass8_4.png"},{"uri":"source_textures/dirt_asphalt.png"},{"uri":"source_textures/GroundTexture_Bank11_0.png"},{"uri":"source_textures/NoteTexture_6.png"}],"textures":[{"source":0},{"source":1},{"source":2},{"source":3},{"source":4},{"source":5},{"source":6},{"source":7},{"source":8},{"source":9}],"materials":[{"name":"Meshes_ToonRampSimple_On_10","pbrMetallicRoughness":{"baseColorFactor":[1.0,1.0,1.0,1.0],"metallicFactor":0,"roughnessFactor":1,"baseColorTexture":{"index":0}},"doubleSided":true},{"name":"ToonRampSimpleCutoutGrassAnimated_grass9_6","pbrMetallicRoughness":{"baseColorFactor":[1,1,1,1],"metallicFactor":0,"roughnessFactor":1,"baseColorTexture":{"index":1}},"doubleSided":true,"alphaMode":"MASK","alphaCutoff":0.45},{"name":"ToonRampSimpleCutout_Ground_leaves2_2","pbrMetallicRoughness":{"baseColorFactor":[1.0,1.0,1.0,1.0],"metallicFactor":0,"roughnessFactor":1,"baseColorTexture":{"index":2}},"doubleSided":true,"alphaMode":"MASK","alphaCutoff":0.45},{"name":"Meshes_ToonRampSimpleCutoutTreeAnimated_On_11","pbrMetallicRoughness":{"baseColorFactor":[1,1,1,1],"metallicFactor":0,"roughnessFactor":1,"baseColorTexture":{"index":0}},"doubleSided":true,"alphaMode":"MASK","alphaCutoff":0.45},{"name":"Meshes_ToonRampVertexColor_On_12","pbrMetallicRoughness":{"baseColorFactor":[1.0,1.0,1.0,1.0],"metallicFactor":0,"roughnessFactor":1},"doubleSided":true},{"name":"Meshes_ToonRampSimpleVertexColorDither_On_10","pbrMetallicRoughness":{"baseColorFactor":[1.0,1.0,1.0,1.0],"metallicFactor":0,"roughnessFactor":1},"doubleSided":true},{"name":"Meshes_ToonRampSimpleCutout_On_12","pbrMetallicRoughness":{"baseColorFactor":[1.0,1.0,1.0,1.0],"metallicFactor":0,"roughnessFactor":1,"baseColorTexture":{"index":0}},"doubleSided":true,"alphaMode":"MASK","alphaCutoff":0.45},{"name":"GroundMaterial_Bank00_0","pbrMetallicRoughness":{"baseColorFactor":[1.0,1.0,1.0,1.0],"metallicFactor":0,"roughnessFactor":1,"baseColorTexture":{"index":3}},"doubleSided":true},{"name":"GroundMaterial_Bank01_0","pbrMetallicRoughness":{"baseColorFactor":[1.0,1.0,1.0,1.0],"metallicFactor":0,"roughnessFactor":1,"baseColorTexture":{"index":4}},"doubleSided":true},{"name":"GroundMaterial_Bank10_0","pbrMetallicRoughness":{"baseColorFactor":[1.0,1.0,1.0,1.0],"metallicFactor":0,"roughnessFactor":1,"baseColorTexture":{"index":5}},"doubleSided":true},{"name":"Meshes_ToonRampSimpleCutoutDither_On_5","pbrMetallicRoughness":{"baseColorFactor":[1.0,1.0,1.0,1.0],"metallicFactor":0,"roughnessFactor":1,"baseColorTexture":{"index":0}},"doubleSided":true,"alphaMode":"MASK","alphaCutoff":0.45},{"name":"Meshes_ToonRamp_On_12","pbrMetallicRoughness":{"baseColorFactor":[1.0,1.0,1.0,1.0],"metallicFactor":0,"roughnessFactor":1,"baseColorTexture":{"index":0}},"doubleSided":true},{"name":"ToonRampSimpleCutoutGrassAnimated_grass8_4","pbrMetallicRoughness":{"baseColorFactor":[1,1,1,1],"metallicFactor":0,"roughnessFactor":1,"baseColorTexture":{"index":6}},"doubleSided":true,"alphaMode":"MASK","alphaCutoff":0.45},{"name":"ToonRampSimpleCutout_dirt_asphalt","pbrMetallicRoughness":{"baseColorFactor":[0.38314345,0.39336056,0.3962264,1.0],"metallicFactor":0,"roughnessFactor":1,"baseColorTexture":{"index":7}},"doubleSided":true,"alphaMode":"MASK","alphaCutoff":0.45},{"name":"GroundMaterial_Bank11_0","pbrMetallicRoughness":{"baseColorFactor":[1.0,1.0,1.0,1.0],"metallicFactor":0,"roughnessFactor":1,"baseColorTexture":{"index":8}},"doubleSided":true},{"name":"Meshes_ToonRampCutout_On_10","pbrMetallicRoughness":{"baseColorFactor":[1.0,1.0,1.0,1.0],"metallicFactor":0,"roughnessFactor":1,"baseColorTexture":{"index":0}},"doubleSided":true,"alphaMode":"MASK","alphaCutoff":0.45},{"name":"Meshes_ToonRampSimpleGlow_On_5","pbrMetallicRoughness":{"baseColorFactor":[1.0,1.0,1.0,1.0],"metallicFactor":0,"roughnessFactor":1},"doubleSided":true},{"name":"Meshes_ToonRampSimpleDither_On_11","pbrMetallicRoughness":{"baseColorFactor":[1.0,1.0,1.0,1.0],"metallicFactor":0,"roughnessFactor":1,"baseColorTexture":{"index":0}},"doubleSided":true},{"name":"Meshes_ToonRampSimpleFade_On_12","pbrMetallicRoughness":{"baseColorFactor":[1.0,1.0,1.0,1.0],"metallicFactor":0,"roughnessFactor":1,"baseColorTexture":{"index":0}},"doubleSided":true},{"name":"Note_6","pbrMetallicRoughness":{"baseColorFactor":[1.0,1.0,1.0,1.0],"metallicFactor":0,"roughnessFactor":1,"baseColorTexture":{"index":9}},"doubleSided":true}]}