{"asset":{"version":"2.0","generator":"Codex original Unity character rig converter"},"scene":0,"scenes":[{"name":"cop_female","nodes":[0]}],"nodes":[{"name":"FemaleCopWithAllWeapons","translation":[0.0,0.0,-0.0],"rotation":[-0.0,-0.0,0.0,1.0],"scale":[1.0,1.0,1.0],"children":[1,2,57,58,59,60,61,62,63,64,65,74,75,76,80]},{"name":"glock","translation":[-0.0,0.0,-0.0],"rotation":[-0.0,0.0,-0.0,1.0],"scale":[1.0,1.0,1.0],"mesh":3,"skin":3},{"name":"Hips","translation":[-9.536743e-09,1.0142282,-0.006695727],"rotation":[-0.032444403,-0.03224387,-0.70544595,0.7072862],"scale":[0.99999994,1.0,0.9999999],"children":[3,7,11]},{"name":"LeftUpLeg","translation":[-0.013565468,-0.08065183,0.027092151],"rotation":[0.09009835,-0.013689486,0.9949075,0.04305711],"scale":[0.99999964,1.0000002,0.9999998],"children":[4]},{"name":"LeftLeg","translation":[-0.46587953,-3.57106e-05,1.8325874e-05],"rotation":[0.023468569,0.13178661,0.034685392,0.9903931],"scale":[1.0000002,1.0,0.99999994],"children":[5]},{"name":"LeftFoot","translation":[-0.5209705,-4.56227e-06,7.0397946e-06],"rotation":[0.019643245,-0.7115806,0.019510854,0.7020588],"scale":[0.99999994,1.0,1.0000001],"children":[6]},{"name":"LeftToeBase","translation":[-0.07433133,-1.6850261e-06,9.00776e-07],"rotation":[0.001510203,0.07063709,0.036466643,0.99683416],"scale":[1.0000006,1.0000002,0.99999964]},{"name":"RightUpLeg","translation":[-0.01314399,0.080534734,0.027118934],"rotation":[0.09012725,0.013288672,0.99501884,-0.040472347],"scale":[1.0,1.0,1.0],"children":[8]},{"name":"RightLeg","translation":[-0.46586853,1.9151381e-05,1.4722942e-05],"rotation":[-0.023469284,0.13178681,-0.034685872,0.99039304],"scale":[1.0,1.0,0.99999994],"children":[9]},{"name":"RightFoot","translation":[-0.5210156,3.3610688e-06,4.2022007e-06],"rotation":[-0.01380177,-0.71153086,-0.023665356,0.7021206],"scale":[1.0000001,1.0,0.99999994],"children":[10]},{"name":"RightToeBase","translation":[-0.074333064,-3.4046067e-07,-9.701113e-09],"rotation":[-0.001509181,0.07063777,-0.036467746,0.9968341],"scale":[0.9999998,1.0,1.0]},{"name":"Spine","translation":[-0.09709522,0.00016923025,-0.008134971],"rotation":[0.00010005884,0.06712898,-0.0011845315,0.9977436],"scale":[0.9999998,1.0,0.9999999],"children":[12]},{"name":"Spine1","translation":[-0.18412952,1.4087817e-08,2.0855391e-07],"rotation":[0.0011661922,-0.016093992,-0.0006032786,0.99986964],"scale":[1.0000004,1.0000001,0.9999997],"children":[13,33,41]},{"name":"Head","translation":[-0.30432126,5.607396e-07,-2.3204025e-06],"rotation":[0.0011652253,-0.23362024,0.002654054,0.9723236],"scale":[0.9999999,1.0000001,1.0],"children":[14]},{"name":"helmet_group","translation":[0.0,0.0,-0.0],"rotation":[0.20170903,0.2039997,0.6735485,0.6811975],"scale":[1.0,1.0,1.0],"children":[15]},{"name":"helmet","translation":[0.0,0.0,0.0595],"rotation":[-2.4214383e-08,-2.235174e-08,-1.1990776e-08,1.0],"scale":[1.0,1.0,1.0],"children":[16,17,18,19,20,21,22,23,24,25,26,27,28,29,30,31,32]},{"name":"helmet","translation":[-0.0,0.15438043,-0.05830202],"rotation":[-0.0,0.0,-0.0,1.0],"scale":[1.0,1.0,1.0]},{"name":"helmet_glass","translation":[-0.0,0.071979985,-0.14919768],"rotation":[-0.0,0.0,-0.0,1.0],"scale":[1.0,1.0,1.0]},{"name":"helmet_glass_piece_1","translation":[0.083672084,0.12480294,-0.1330932],"rotation":[-0.0,0.0,-0.0,1.0],"scale":[1.0,1.0,1.0]},{"name":"helmet_glass_piece_2","translation":[0.03299504,0.09892457,-0.17182016],"rotation":[-0.0,0.0,-0.0,1.0],"scale":[1.0,1.0,1.0]},{"name":"helmet_glass_piece_3","translation":[-0.038596086,0.108866505,-0.16047505],"rotation":[-0.0,0.0,-0.0,1.0],"scale":[1.0,1.0,1.0]},{"name":"helmet_glass_piece_4","translation":[-0.052388523,0.11044724,-0.14738108],"rotation":[-0.0,0.0,-0.0,1.0],"scale":[1.0,1.0,1.0]},{"name":"helmet_glass_piece_5","translation":[0.04775611,0.094560094,-0.1594489],"rotation":[-0.0,0.0,-0.0,1.0],"scale":[1.0,1.0,1.0]},{"name":"helmet_glass_piece_6","translation":[0.0566392,0.09500069,-0.14635494],"rotation":[-0.0,0.0,-0.0,1.0],"scale":[1.0,1.0,1.0]},{"name":"helmet_glass_piece_7","translation":[0.01740184,0.12908646,-0.16047506],"rotation":[-0.0,0.0,-0.0,1.0],"scale":[1.0,1.0,1.0]},{"name":"helmet_glass_piece_8","translation":[-0.05162415,0.06997681,-0.14738108],"rotation":[-0.0,0.0,-0.0,1.0],"scale":[1.0,1.0,1.0]},{"name":"helmet_glass_piece_9","translation":[-0.0048152804,0.03741143,-0.18279302],"rotation":[-0.0,0.0,-0.0,1.0],"scale":[1.0,1.0,1.0]},{"name":"helmet_glass_piece_10","translation":[-0.02695476,0.03947274,-0.1718201],"rotation":[-0.0,0.0,-0.0,1.0],"scale":[1.0,1.0,1.0]},{"name":"helmet_glass_piece_11","translation":[-0.06724846,0.028709723,-0.1435541],"rotation":[-0.0,0.0,-0.0,1.0],"scale":[1.0,1.0,1.0]},{"name":"helmet_glass_piece_12","translation":[0.047268905,0.03970147,-0.15944897],"rotation":[-0.0,0.0,-0.0,1.0],"scale":[1.0,1.0,1.0]},{"name":"helmet_glass_piece_13","translation":[0.08121569,0.043691028,-0.13303727],"rotation":[-0.0,0.0,-0.0,1.0],"scale":[1.0,1.0,1.0]},{"name":"helmet_glass_piece_14","translation":[0.03626193,0.03766282,-0.17079398],"rotation":[-0.0,0.0,-0.0,1.0],"scale":[1.0,1.0,1.0]},{"name":"helmet_rubber","translation":[0.00038731098,0.021356285,-0.1050592],"rotation":[-0.0,0.0,-0.0,1.0],"scale":[1.0,1.0,1.0]},{"name":"LeftShoulder","translation":[-0.2532802,-0.07323733,0.053579815],"rotation":[-0.028079607,0.015987562,0.7070591,0.7064159],"scale":[1.0000005,0.99999964,1.0000002],"children":[34]},{"name":"LeftArm","translation":[-0.14903358,1.0228359e-06,2.0617708e-06],"rotation":[-0.061077334,0.046680555,0.0031620534,0.99703586],"scale":[1.0000004,0.9999998,0.99999964],"children":[35]},{"name":"LeftForeArm","translation":[-0.26079804,-2.8898487e-06,6.979684e-06],"rotation":[0.011394232,-0.13164645,-0.015512251,0.9911099],"scale":[1.0000005,0.99999964,0.9999998],"children":[36]},{"name":"LeftHand","translation":[-0.30508122,-3.233195e-07,1.130897e-07],"rotation":[0.056229074,0.017045004,0.00084508746,0.99827206],"scale":[0.9999969,1.0000029,1.0000001],"children":[37,39]},{"name":"LeftHandMiddle1","translation":[-0.0718778,7.504655e-07,-5.2248815e-08],"rotation":[0.002422204,-0.009001078,8.245368e-05,0.9999566],"scale":[0.99999845,1.0000015,1.0000001],"children":[38]},{"name":"LeftHandMiddle2","translation":[-0.050000552,-3.0956315e-07,3.5060805e-07],"rotation":[-0.0,0.0,-0.0,1.0],"scale":[0.99999785,1.0000021,0.99999994]},{"name":"LeftHandThumb1","translation":[-0.005210002,-0.002886516,-0.035751503],"rotation":[0.68841845,-0.090490356,0.19463769,0.69282585],"scale":[1.0000024,0.9999995,0.99999785],"children":[40]},{"name":"LeftHandThumb2","translation":[-0.057258368,6.182831e-07,5.768541e-08],"rotation":[0.0039843307,0.031895693,-0.123890094,0.9917752],"scale":[0.9999992,1.0000011,0.99999976]},{"name":"RightShoulder","translation":[-0.25342435,0.0730254,0.053261556],"rotation":[0.02653324,0.014485703,-0.7063708,0.70719624],"scale":[1.0000002,1.0,1.0000004],"children":[42]},{"name":"RightArm","translation":[-0.1490286,-1.2249344e-06,5.5803577e-07],"rotation":[0.061078172,0.046673853,-0.0031601875,0.99703616],"scale":[1.0000004,0.99999994,0.99999976],"children":[43]},{"name":"RightForeArm","translation":[-0.26078865,-2.68041e-07,1.4963888e-06],"rotation":[-0.01139156,-0.13163796,0.015511715,0.99111104],"scale":[1.0000004,0.99999994,0.99999976],"children":[44]},{"name":"RightHand","translation":[-0.30507544,5.6109975e-08,-2.3614425e-06],"rotation":[-0.058660448,0.00805476,-0.00037970828,0.9982454],"scale":[1.0000001,0.99999976,1.0],"children":[45,53,55]},{"name":"gun","translation":[-0.06328802,0.042795572,0.026985766],"rotation":[0.10035708,-0.09418604,-0.62761444,0.7662621],"scale":[0.99999976,1.0000001,1.0000001],"children":[46]},{"name":"Items","translation":[0.0,0.0,-0.0],"rotation":[-0.0,-0.0,0.0,1.0],"scale":[1.0,1.0,1.0],"children":[47,48,49,50,51,52]},{"name":"RevolverOld","translation":[-0.0027824268,0.0001692418,0.00055055134],"rotation":[-0.00012337044,0.0035766067,-0.00063917413,-0.99999344],"scale":[1.0,1.0,1.0]},{"name":"Knife","translation":[0.0075816745,-0.011451462,-0.019294064],"rotation":[0.56027,0.016661018,-0.27421477,0.7814257],"scale":[1.0,1.0,1.0]},{"name":"Baton","translation":[-0.0043090256,-0.0127265835,-0.02211605],"rotation":[0.19072783,0.17258118,0.72757494,-0.6359822],"scale":[1.0,1.0,1.0]},{"name":"Taser","translation":[-0.0027824268,0.0001692418,0.00055055134],"rotation":[-0.00012337044,0.0035766067,-0.00063917413,-0.99999344],"scale":[1.0,1.0,1.0]},{"name":"Grenade","translation":[-0.0011535371,-0.016396921,-0.018659003],"rotation":[-0.25800943,0.051150523,-0.7747192,0.57500005],"scale":[1.0,1.0,1.0]},{"name":"BoxInHand","translation":[-0.20171714,0.056146674,0.022748176],"rotation":[-0.7439118,0.28079355,-0.05160535,0.60422456],"scale":[1.0,1.0,1.0]},{"name":"RightHandMiddle1","translation":[-0.07019422,-1.5381688e-07,3.3586005e-08],"rotation":[-0.0,2.667429e-06,-0.0,1.0],"scale":[0.9999998,1.0000001,0.9999999],"children":[54]},{"name":"RightHandMiddle2","translation":[-0.0500002,4.48295e-07,5.0186713e-07],"rotation":[-0.0,0.0,-0.0,1.0],"scale":[0.99999976,1.0000002,1.0000012]},{"name":"RightHandThumb1","translation":[-0.005651744,0.003230337,-0.035652187],"rotation":[-0.69362736,-0.058725268,-0.21355164,0.6854401],"scale":[0.9999999,1.0,1.0000004],"children":[56]},{"name":"RightHandThumb2","translation":[-0.057257175,-1.7046474e-07,-4.1732952e-07],"rotation":[-0.0039843405,0.03189583,0.12388987,0.9917752],"scale":[0.99999994,1.0,1.0]},{"name":"ladycop","translation":[-0.0,0.0,-0.0],"rotation":[-0.0,0.0,-0.0,1.0],"scale":[1.0,1.0,1.0],"mesh":0,"skin":0},{"name":"ladycop_hairstyle_v1","translation":[-0.0,0.0,-0.0],"rotation":[-0.0,0.0,-0.0,1.0],"scale":[1.0,1.0,1.0],"mesh":1,"skin":1},{"name":"ladycop_hairstyle_v2","translation":[-0.0,0.0,-0.0],"rotation":[-0.0,0.0,-0.0,1.0],"scale":[1.0,1.0,1.0]},{"name":"ladycop_hairstyle_v3","translation":[-0.0,0.0,-0.0],"rotation":[-0.0,0.0,-0.0,1.0],"scale":[1.0,1.0,1.0]},{"name":"ladycop_hat","translation":[-0.0,0.0,-0.0],"rotation":[-0.0,0.0,-0.0,1.0],"scale":[1.0,1.0,1.0],"mesh":2,"skin":2},{"name":"revolver","translation":[-0.0,0.0,-0.0],"rotation":[-0.0,0.0,-0.0,1.0],"scale":[1.0,1.0,1.0],"mesh":4,"skin":4},{"name":"rifle","translation":[-0.0,0.0,-0.0],"rotation":[-0.0,0.0,-0.0,1.0],"scale":[1.0,1.0,1.0],"mesh":5,"skin":5},{"name":"rifle_back","translation":[-0.0,0.0,-0.0],"rotation":[-0.0,0.0,-0.0,1.0],"scale":[1.0,1.0,1.0]},{"name":"Covers","translation":[0.0,0.0,-0.0],"rotation":[0.0,0.0,-0.0,1.0],"scale":[1.0,1.0,1.0],"children":[66,67,68,69,70,71,72,73]},{"name":"HalfCover Left","translation":[-0.5,2.0,-0.0],"rotation":[0.0,-0.7071068,-0.0,0.7071068],"scale":[1.0000005,1.0,1.0000005]},{"name":"FullCover Left","translation":[-0.5,2.0,-0.0],"rotation":[0.0,-0.7071068,-0.0,0.7071068],"scale":[1.0000005,1.0,1.0000005]},{"name":"FullCover Right","translation":[0.5,2.0,-0.0],"rotation":[-0.0,-0.7071068,0.0,0.7071068],"scale":[1.0,1.0,1.0]},{"name":"HalfCover Right","translation":[0.5,2.0,-0.0],"rotation":[-0.0,-0.7071068,0.0,0.7071068],"scale":[1.0,1.0,1.0]},{"name":"FullCover Front","translation":[0.0,2.0,-0.5],"rotation":[0.0,0.0,-0.0,1.0],"scale":[1.0,1.0,1.0]},{"name":"HalfCover Front","translation":[0.0,2.0,-0.5],"rotation":[0.0,0.0,-0.0,1.0],"scale":[1.0,1.0,1.0]},{"name":"HalfCover Back","translation":[0.0,2.0,0.5],"rotation":[0.0,0.0,-0.0,1.0],"scale":[1.0,1.0,1.0]},{"name":"FullCover Back","translation":[0.0,2.0,0.5],"rotation":[0.0,0.0,-0.0,1.0],"scale":[1.0,1.0,1.0]},{"name":"shotgun_back","translation":[-0.0,0.0,-0.0],"rotation":[-0.0,0.0,-0.0,1.0],"scale":[1.0,1.0,1.0]},{"name":"shotgun","translation":[-0.0,0.0,-0.0],"rotation":[-0.0,0.0,-0.0,1.0],"scale":[1.0,1.0,1.0],"mesh":6,"skin":6},{"name":"helmet_animation","translation":[0.0,0.0,-0.0],"rotation":[-0.0,-0.0,0.0,1.0],"scale":[1.0,1.0,1.0],"children":[77]},{"name":"helmet_group_ladycop","translation":[0.04783581,1.5433842,-0.08879833],"rotation":[-0.06171182,-0.0019274438,0.002223409,0.99808973],"scale":[1.0,1.0,1.0],"children":[78,79]},{"name":"helmet","translation":[-0.0,0.15438043,-0.05830202],"rotation":[-0.0,0.0,-0.0,1.0],"scale":[1.0,1.0,1.0]},{"name":"helmet_rubber","translation":[0.00038731098,0.021356285,-0.1050592],"rotation":[-0.0,0.0,-0.0,1.0],"scale":[1.0,1.0,1.0]},{"name":"box","translation":[0.0,0.0,-0.0],"rotation":[0.0,0.0,-0.0,1.0],"scale":[1.0,1.0,1.0]}],"meshes":[{"name":"ladycop","primitives":[{"attributes":{"POSITION":0,"NORMAL":1,"TEXCOORD_0":2,"COLOR_0":3,"WEIGHTS_0":4,"JOINTS_0":5},"indices":6,"mode":4,"material":0}]},{"name":"ladycop_hairstyle_v1","primitives":[{"attributes":{"POSITION":8,"NORMAL":9,"TEXCOORD_0":10,"COLOR_0":11,"WEIGHTS_0":12,"JOINTS_0":13},"indices":14,"mode":4,"material":0}]},{"name":"ladycop_hat","primitives":[{"attributes":{"POSITION":16,"NORMAL":17,"TEXCOORD_0":18,"COLOR_0":19,"WEIGHTS_0":20,"JOINTS_0":21},"indices":22,"mode":4,"material":0}]},{"name":"glock","primitives":[{"attributes":{"POSITION":24,"NORMAL":25,"TEXCOORD_0":26,"COLOR_0":27,"WEIGHTS_0":28,"JOINTS_0":29},"indices":30,"mode":4,"material":0}]},{"name":"revolver","primitives":[{"attributes":{"POSITION":32,"NORMAL":33,"TEXCOORD_0":34,"COLOR_0":35,"WEIGHTS_0":36,"JOINTS_0":37},"indices":38,"mode":4,"material":0}]},{"name":"rifle","primitives":[{"attributes":{"POSITION":40,"NORMAL":41,"TEXCOORD_0":42,"COLOR_0":43,"WEIGHTS_0":44,"JOINTS_0":45},"indices":46,"mode":4,"material":0}]},{"name":"shotgun","primitives":[{"attributes":{"POSITION":48,"NORMAL":49,"TEXCOORD_0":50,"COLOR_0":51,"WEIGHTS_0":52,"JOINTS_0":53},"indices":54,"mode":4,"material":0}]}],"skins":[{"name":"ladycop bones","joints":[2,7,8,9,10,3,4,5,6,11,12,13,41,42,43,44,53,54,55,56,45,33,34,35,36,37,38,39,40],"skeleton":2,"inverseBindMatrices":7},{"name":"ladycop_hairstyle_v1 bones","joints":[2,11,12,13,41,42,33,34],"skeleton":2,"inverseBindMatrices":15},{"name":"ladycop_hat bones","joints":[12,13,41,42,33,34],"skeleton":12,"inverseBindMatrices":23},{"name":"glock bones","joints":[45],"skeleton":45,"inverseBindMatrices":31},{"name":"revolver bones","joints":[45],"skeleton":45,"inverseBindMatrices":39},{"name":"rifle bones","joints":[45],"skeleton":45,"inverseBindMatrices":47},{"name":"shotgun bones","joints":[43,44,53,54,55,56,45],"skeleton":43,"inverseBindMatrices":55}],"materials":[{"name":"CopVertexColor","pbrMetallicRoughness":{"baseColorFactor":[1,1,1,1],"metallicFactor":0,"roughnessFactor":1},"doubleSided":true}],"buffers":[{"uri":"cop_female_rig.bin","byteLength":655400}],"bufferViews":[{"buffer":0,"byteOffset":0,"byteLength":44472},{"buffer":0,"byteOffset":44472,"byteLength":44472},{"buffer":0,"byteOffset":88944,"byteLength":29648},{"buffer":0,"byteOffset":118592,"byteLength":59296},{"buffer":0,"byteOffset":177888,"byteLength":59296},{"buffer":0,"byteOffset":237184,"byteLength":29648},{"buffer":0,"byteOffset":266832,"byteLength":43284},{"buffer":0,"byteOffset":310116,"byteLength":1856},{"buffer":0,"byteOffset":311972,"byteLength":7560},{"buffer":0,"byteOffset":319532,"byteLength":7560},{"buffer":0,"byteOffset":327092,"byteLength":5040},{"buffer":0,"byteOffset":332132,"byteLength":10080},{"buffer":0,"byteOffset":342212,"byteLength":10080},{"buffer":0,"byteOffset":352292,"byteLength":5040},{"buffer":0,"byteOffset":357332,"byteLength":4596},{"buffer":0,"byteOffset":361928,"byteLength":512},{"buffer":0,"byteOffset":362440,"byteLength":4392},{"buffer":0,"byteOffset":366832,"byteLength":4392},{"buffer":0,"byteOffset":371224,"byteLength":2928},{"buffer":0,"byteOffset":374152,"byteLength":5856},{"buffer":0,"byteOffset":380008,"byteLength":5856},{"buffer":0,"byteOffset":385864,"byteLength":2928},{"buffer":0,"byteOffset":388792,"byteLength":4944},{"buffer":0,"byteOffset":393736,"byteLength":384},{"buffer":0,"byteOffset":394120,"byteLength":7476},{"buffer":0,"byteOffset":401596,"byteLength":7476},{"buffer":0,"byteOffset":409072,"byteLength":4984},{"buffer":0,"byteOffset":414056,"byteLength":9968},{"buffer":0,"byteOffset":424024,"byteLength":9968},{"buffer":0,"byteOffset":433992,"byteLength":4984},{"buffer":0,"byteOffset":438976,"byteLength":7584},{"buffer":0,"byteOffset":446560,"byteLength":64},{"buffer":0,"byteOffset":446624,"byteLength":7092},{"buffer":0,"byteOffset":453716,"byteLength":7092},{"buffer":0,"byteOffset":460808,"byteLength":4728},{"buffer":0,"byteOffset":465536,"byteLength":9456},{"buffer":0,"byteOffset":474992,"byteLength":9456},{"buffer":0,"byteOffset":484448,"byteLength":4728},{"buffer":0,"byteOffset":489176,"byteLength":4872},{"buffer":0,"byteOffset":494048,"byteLength":64},{"buffer":0,"byteOffset":494112,"byteLength":8988},{"buffer":0,"byteOffset":503100,"byteLength":8988},{"buffer":0,"byteOffset":512088,"byteLength":5992},{"buffer":0,"byteOffset":518080,"byteLength":11984},{"buffer":0,"byteOffset":530064,"byteLength":11984},{"buffer":0,"byteOffset":542048,"byteLength":5992},{"buffer":0,"byteOffset":548040,"byteLength":6192},{"buffer":0,"byteOffset":554232,"byteLength":64},{"buffer":0,"byteOffset":554296,"byteLength":15252},{"buffer":0,"byteOffset":569548,"byteLength":15252},{"buffer":0,"byteOffset":584800,"byteLength":10168},{"buffer":0,"byteOffset":594968,"byteLength":20336},{"buffer":0,"byteOffset":615304,"byteLength":20336},{"buffer":0,"byteOffset":635640,"byteLength":10168},{"buffer":0,"byteOffset":645808,"byteLength":9144},{"buffer":0,"byteOffset":654952,"byteLength":448}],"accessors":[{"bufferView":0,"componentType":5126,"count":3706,"type":"VEC3","min":[-0.9478166103363037,0.0015839999541640282,-0.1592981517314911],"max":[0.9478306174278259,1.8252756595611572,0.1494983583688736]},{"bufferView":1,"componentType":5126,"count":3706,"type":"VEC3"},{"bufferView":2,"componentType":5126,"count":3706,"type":"VEC2"},{"bufferView":3,"componentType":5126,"count":3706,"type":"VEC4"},{"bufferView":4,"componentType":5126,"count":3706,"type":"VEC4"},{"bufferView":5,"componentType":5123,"count":3706,"type":"VEC4"},{"bufferView":6,"componentType":5125,"count":10821,"type":"SCALAR"},{"bufferView":7,"componentType":5126,"count":29,"type":"MAT4"},{"bufferView":8,"componentType":5126,"count":630,"type":"VEC3","min":[-0.1279035210609436,1.3461823463439941,-0.09467967599630356],"max":[0.1279035359621048,1.8328280448913574,0.18247048556804657]},{"bufferView":9,"componentType":5126,"count":630,"type":"VEC3"},{"bufferView":10,"componentType":5126,"count":630,"type":"VEC2"},{"bufferView":11,"componentType":5126,"count":630,"type":"VEC4"},{"bufferView":12,"componentType":5126,"count":630,"type":"VEC4"},{"bufferView":13,"componentType":5123,"count":630,"type":"VEC4"},{"bufferView":14,"componentType":5125,"count":1149,"type":"SCALAR"},{"bufferView":15,"componentType":5126,"count":8,"type":"MAT4"},{"bufferView":16,"componentType":5126,"count":366,"type":"VEC3","min":[-0.17392298579216003,1.7097889184951782,-0.19492028653621674],"max":[0.17392298579216003,1.8888492584228516,0.20427356660366058]},{"bufferView":17,"componentType":5126,"count":366,"type":"VEC3"},{"bufferView":18,"componentType":5126,"count":366,"type":"VEC2"},{"bufferView":19,"componentType":5126,"count":366,"type":"VEC4"},{"bufferView":20,"componentType":5126,"count":366,"type":"VEC4"},{"bufferView":21,"componentType":5123,"count":366,"type":"VEC4"},{"bufferView":22,"componentType":5125,"count":1236,"type":"SCALAR"},{"bufferView":23,"componentType":5126,"count":6,"type":"MAT4"},{"bufferView":24,"componentType":5126,"count":623,"type":"VEC3","min":[0.802600085735321,1.4825005531311035,-0.11016859114170074],"max":[1.0190914869308472,1.5586353540420532,0.111315056681633]},{"bufferView":25,"componentType":5126,"count":623,"type":"VEC3"},{"bufferView":26,"componentType":5126,"count":623,"type":"VEC2"},{"bufferView":27,"componentType":5126,"count":623,"type":"VEC4"},{"bufferView":28,"componentType":5126,"count":623,"type":"VEC4"},{"bufferView":29,"componentType":5123,"count":623,"type":"VEC4"},{"bufferView":30,"componentType":5125,"count":1896,"type":"SCALAR"},{"bufferView":31,"componentType":5126,"count":1,"type":"MAT4"},{"bufferView":32,"componentType":5126,"count":591,"type":"VEC3","min":[0.8171950578689575,1.4839335680007935,-0.1288590431213379],"max":[1.0486518144607544,1.5639699697494507,0.11717143654823303]},{"bufferView":33,"componentType":5126,"count":591,"type":"VEC3"},{"bufferView":34,"componentType":5126,"count":591,"type":"VEC2"},{"bufferView":35,"componentType":5126,"count":591,"type":"VEC4"},{"bufferView":36,"componentType":5126,"count":591,"type":"VEC4"},{"bufferView":37,"componentType":5123,"count":591,"type":"VEC4"},{"bufferView":38,"componentType":5125,"count":1218,"type":"SCALAR"},{"bufferView":39,"componentType":5126,"count":1,"type":"MAT4"},{"bufferView":40,"componentType":5126,"count":749,"type":"VEC3","min":[0.7776893973350525,1.1094807386398315,-0.6419730186462402],"max":[0.9152734279632568,1.6954271793365479,0.35631877183914185]},{"bufferView":41,"componentType":5126,"count":749,"type":"VEC3"},{"bufferView":42,"componentType":5126,"count":749,"type":"VEC2"},{"bufferView":43,"componentType":5126,"count":749,"type":"VEC4"},{"bufferView":44,"componentType":5126,"count":749,"type":"VEC4"},{"bufferView":45,"componentType":5123,"count":749,"type":"VEC4"},{"bufferView":46,"componentType":5125,"count":1548,"type":"SCALAR"},{"bufferView":47,"componentType":5126,"count":1,"type":"MAT4"},{"bufferView":48,"componentType":5126,"count":1271,"type":"VEC3","min":[0.7782161831855774,1.1954742670059204,-0.48693007230758667],"max":[0.9436890482902527,1.6880511045455933,0.34970998764038086]},{"bufferView":49,"componentType":5126,"count":1271,"type":"VEC3"},{"bufferView":50,"componentType":5126,"count":1271,"type":"VEC2"},{"bufferView":51,"componentType":5126,"count":1271,"type":"VEC4"},{"bufferView":52,"componentType":5126,"count":1271,"type":"VEC4"},{"bufferView":53,"componentType":5123,"count":1271,"type":"VEC4"},{"bufferView":54,"componentType":5125,"count":2286,"type":"SCALAR"},{"bufferView":55,"componentType":5126,"count":7,"type":"MAT4"}]}