{"asset":{"version":"2.0","generator":"Codex Unity YAML static scene converter"},"scene":0,"scenes":[{"name":"window1_original static geometry","nodes":[0]}],"nodes":[{"name":"Window1","translation":[0,0,0],"rotation":[0,0,0,1],"scale":[1.0,1.0,1.0],"children":[1]},{"name":"Frame","translation":[0.0,1.55,-0.0],"rotation":[1.9861236e-07,0.7071068,-0.7071068,1.9861236e-07],"scale":[1.0,1.0000005,1.0000005],"mesh":0,"children":[2,4]},{"name":"Glass","translation":[0.0,0.0,-0.0010000464],"rotation":[-5.366709e-07,0.7071068,-0.7071068,5.366709e-07],"scale":[1.3272425,1.4307563,1.0],"children":[3]},{"name":"Front","translation":[0.0,0.0,-0.0],"rotation":[0.0,0.0,-0.0,1.0],"scale":[1.0,1.0,1.0]},{"name":"Broken","translation":[0.0,0.0,0.7234529],"rotation":[0.0,0.0,-0.0,1.0],"scale":[1.0,1.0,1.0],"mesh":1}],"meshes":[{"name":"window_frame009_6","primitives":[{"attributes":{"POSITION":0,"NORMAL":1,"TEXCOORD_0":2},"indices":3,"mode":4,"material":0}]},{"name":"Object002_0","primitives":[{"attributes":{"POSITION":4,"NORMAL":5,"TEXCOORD_0":6},"indices":7,"mode":4,"material":1}]}],"buffers":[{"uri":"window1_original.bin","byteLength":7512}],"bufferViews":[{"buffer":0,"byteOffset":0,"byteLength":984},{"buffer":0,"byteOffset":984,"byteLength":984},{"buffer":0,"byteOffset":1968,"byteLength":656},{"buffer":0,"byteOffset":2624,"byteLength":768},{"buffer":0,"byteOffset":3392,"byteLength":1284},{"buffer":0,"byteOffset":4676,"byteLength":1284},{"buffer":0,"byteOffset":5960,"byteLength":856},{"buffer":0,"byteOffset":6816,"byteLength":696}],"accessors":[{"bufferView":0,"componentType":5126,"count":82,"type":"VEC3","min":[-0.699999988079071,-0.02499999850988388,-0.7500000596046448],"max":[0.699999988079071,0.02499999850988388,0.7499998807907104]},{"bufferView":1,"componentType":5126,"count":82,"type":"VEC3"},{"bufferView":2,"componentType":5126,"count":82,"type":"VEC2"},{"bufferView":3,"componentType":5125,"count":192,"type":"SCALAR"},{"bufferView":4,"componentType":5126,"count":107,"type":"VEC3","min":[-0.6687755584716797,0.002739301882684231,-1.45142662525177],"max":[0.6687755584716797,0.007739301770925522,-0.044431399554014206]},{"bufferView":5,"componentType":5126,"count":107,"type":"VEC3"},{"bufferView":6,"componentType":5126,"count":107,"type":"VEC2"},{"bufferView":7,"componentType":5125,"count":174,"type":"SCALAR"}],"images":[],"textures":[],"materials":[{"name":"Frame_1","pbrMetallicRoughness":{"baseColorFactor":[0.882353,0.56078434,0.3372549,1.0],"metallicFactor":0,"roughnessFactor":1},"doubleSided":true},{"name":"Glass_0","pbrMetallicRoughness":{"baseColorFactor":[0.44705886,0.44705886,0.44705886,0.44705883],"metallicFactor":0,"roughnessFactor":1},"doubleSided":true}]}