{"asset":{"version":"2.0","generator":"Codex original Unity character rig converter"},"scene":0,"scenes":[{"name":"HeavyGuy","nodes":[0]}],"nodes":[{"name":"HeavyGuy","translation":[0.0,0.0,-0.0],"rotation":[-0.0,-0.0,0.0,1.0],"scale":[1.1,1.1,1.1],"children":[1,2,3,4,34,35,36]},{"name":"heavy_guy","translation":[-0.0,0.0,-0.0],"rotation":[-0.0,0.0,-0.0,1.0],"scale":[1.0,1.0,1.0],"mesh":0,"skin":0},{"name":"heavy_guy_beard","translation":[-0.0,0.0,-0.0],"rotation":[-0.0,0.0,-0.0,1.0],"scale":[1.0,1.0,1.0],"mesh":1,"skin":1},{"name":"heavy_guy_hat","translation":[-0.0,0.0,-0.0],"rotation":[-0.0,0.0,-0.0,1.0],"scale":[1.0,1.0,1.0],"mesh":2,"skin":2},{"name":"Hips","translation":[-0.0,1.0142282,-0.0066957306],"rotation":[-0.032444403,-0.03224387,-0.70544595,0.7072862],"scale":[0.99999994,1.0,0.9999999],"children":[5,9,13]},{"name":"LeftUpLeg","translation":[-0.013565604,-0.08065275,0.027092358],"rotation":[0.090101585,-0.013689502,0.9949072,0.043057263],"scale":[0.99999964,1.0000002,0.9999998],"children":[6]},{"name":"LeftLeg","translation":[-0.46590608,-3.3735578e-05,2.3960154e-05],"rotation":[0.02346844,0.13179277,0.034685396,0.99039227],"scale":[1.0000002,1.0,0.99999994],"children":[7]},{"name":"LeftFoot","translation":[-0.5210636,4.4143994e-06,1.1958404e-05],"rotation":[0.019643294,-0.7115827,0.019511046,0.7020567],"scale":[0.99999994,1.0,1.0000001],"children":[8]},{"name":"LeftToeBase","translation":[-0.07434048,-1.2715225e-06,2.87705e-06],"rotation":[0.0015102029,0.07063709,0.036466643,0.99683416],"scale":[1.0000006,1.0000002,0.99999964]},{"name":"RightUpLeg","translation":[-0.013143966,0.08053555,0.027119173],"rotation":[0.09012993,0.013288676,0.9950186,-0.040472325],"scale":[1.0,1.0,1.0],"children":[10]},{"name":"RightLeg","translation":[-0.46589082,2.1450529e-05,2.4208046e-05],"rotation":[-0.023469193,0.13179176,-0.0346858,0.9903924],"scale":[1.0,1.0,0.99999994],"children":[11]},{"name":"RightFoot","translation":[-0.521101,1.0937866e-05,2.0539124e-05],"rotation":[-0.013802175,-0.7115325,-0.023665994,0.70211893],"scale":[1.0000001,1.0,0.99999994],"children":[12]},{"name":"RightToeBase","translation":[-0.07433805,-1.1928564e-06,1.6052654e-06],"rotation":[-0.0015085022,0.07063779,-0.036467608,0.9968341],"scale":[0.9999998,1.0,1.0]},{"name":"Spine","translation":[-0.09709522,0.00016874357,-0.008134935],"rotation":[0.00010005884,0.06712898,-0.0011845315,0.9977436],"scale":[0.9999998,1.0,0.9999999],"children":[14]},{"name":"Spine1","translation":[-0.18412946,3.255165e-07,-9.1093733e-07],"rotation":[0.0011661922,-0.016093992,-0.0006032786,0.99986964],"scale":[1.0000004,1.0000001,0.99999964],"children":[15,16,25]},{"name":"Head","translation":[-0.30435738,2.3125847e-06,-7.4164095e-06],"rotation":[0.0011652553,-0.23362023,0.002654153,0.9723236],"scale":[0.9999999,1.0000001,1.0]},{"name":"LeftShoulder","translation":[-0.25328398,-0.073238306,0.05357903],"rotation":[-0.028079221,0.015987244,0.70706016,0.7064148],"scale":[1.0000005,0.99999964,1.0000002],"children":[17]},{"name":"LeftArm","translation":[-0.14903861,-2.6355226e-08,-9.029953e-07],"rotation":[-0.061077207,0.046683036,0.0031608648,0.9970358],"scale":[1.0000004,0.9999998,0.99999964],"children":[18]},{"name":"LeftForeArm","translation":[-0.26080576,0.00038991176,0.00020263105],"rotation":[0.0113941515,-0.13165009,-0.0155126825,0.9911094],"scale":[1.0000005,0.99999964,0.9999998],"children":[19]},{"name":"LeftHand","translation":[-0.30509806,-1.3918144e-06,2.5086692e-06],"rotation":[0.05622906,0.01704683,0.0008450046,0.998272],"scale":[0.9999969,1.0000029,1.0000001],"children":[20,22,24]},{"name":"LeftHandMiddle1","translation":[-0.07187971,1.5201905e-06,9.385532e-07],"rotation":[0.002422211,-0.009001082,8.2466475e-05,0.9999566],"scale":[0.99999845,1.0000015,1.0000001],"children":[21]},{"name":"LeftHandMiddle2","translation":[-0.0500007,1.5022734e-07,4.0774498e-07],"rotation":[-0.0,0.0,-0.0,1.0],"scale":[0.99999785,1.0000021,0.99999994]},{"name":"LeftHandThumb1","translation":[-0.005210357,-0.0028866727,-0.035752118],"rotation":[0.6884184,-0.09049035,0.19463769,0.692826],"scale":[1.0000024,0.9999995,0.99999785],"children":[23]},{"name":"LeftHandThumb2","translation":[-0.057259873,6.994274e-07,4.514034e-07],"rotation":[0.0039843284,0.03189568,-0.12389008,0.9917752],"scale":[0.9999992,1.0000011,0.99999976]},{"name":"walkie","translation":[-0.068999924,-0.07319989,-0.01649999],"rotation":[0.26028457,0.11892241,0.040168863,0.957338],"scale":[1.0,1.0,1.0]},{"name":"RightShoulder","translation":[-0.25343227,0.073028915,0.05326196],"rotation":[0.026533242,0.014485704,-0.7063708,0.70719624],"scale":[1.0000001,1.0,1.0000004],"children":[26]},{"name":"RightArm","translation":[-0.14904603,-3.3342674e-06,4.75325e-06],"rotation":[0.061078176,0.04667385,-0.0031601873,0.99703616],"scale":[0.9999999,1.0000001,0.9999998],"children":[27]},{"name":"RightForeArm","translation":[-0.26080874,-7.032455e-05,4.151064e-05],"rotation":[-0.011391569,-0.13163789,0.015511705,0.99111104],"scale":[1.0000002,0.9999998,0.9999998],"children":[28]},{"name":"RightHand","translation":[-0.30510896,-1.5803524e-05,-1.4383835e-06],"rotation":[-0.05866045,0.008054745,-0.0003797087,0.9982454],"scale":[0.9999998,0.9999999,1.0000002],"children":[29,30,32]},{"name":"gun","translation":[-0.059039127,0.053654213,0.015360275],"rotation":[-0.068044886,-0.21563391,-0.6382023,0.7359143],"scale":[1.0,1.0,1.0]},{"name":"RightHandMiddle1","translation":[-0.07019541,-1.746647e-07,1.9038324e-06],"rotation":[-0.0,2.6741639e-06,-0.0,1.0],"scale":[1.0,0.9999999,1.0],"children":[31]},{"name":"RightHandMiddle2","translation":[-0.050000776,7.51865e-07,6.9248074e-07],"rotation":[-0.0,0.0,-0.0,1.0],"scale":[1.0000001,0.99999994,1.0]},{"name":"RightHandThumb1","translation":[-0.0056515397,0.00322989,-0.035652455],"rotation":[-0.69362736,-0.058725283,-0.21355174,0.68544006],"scale":[0.9999997,1.0000002,1.0000001],"children":[33]},{"name":"RightHandThumb2","translation":[-0.057257473,-8.627416e-07,1.0278769e-07],"rotation":[-0.003984343,0.031895842,0.123889886,0.9917752],"scale":[1.0,0.9999999,1.0]},{"name":"shotgun_back","translation":[0.0,0.0,-0.0],"rotation":[0.0,0.0,-0.0,1.0],"scale":[1.0,1.0,1.0]},{"name":"shotgun","translation":[1.472,0.0,-0.0],"rotation":[0.0,0.0,-0.0,1.0],"scale":[1.0,1.0,1.0],"mesh":3,"skin":3},{"name":"ShieldIcon","translation":[0.0,2.5,-0.0],"rotation":[0.0,0.0,-0.0,1.0],"scale":[1.0,1.0,1.0]}],"meshes":[{"name":"heavy_guy","primitives":[{"attributes":{"POSITION":0,"NORMAL":1,"TEXCOORD_0":2,"COLOR_0":3,"WEIGHTS_0":4,"JOINTS_0":5},"indices":6,"mode":4,"material":0},{"attributes":{"POSITION":0,"NORMAL":1,"TEXCOORD_0":2,"COLOR_0":3,"WEIGHTS_0":4,"JOINTS_0":5},"indices":7,"mode":4,"material":0}]},{"name":"heavy_guy_beard","primitives":[{"attributes":{"POSITION":9,"NORMAL":10,"TEXCOORD_0":11,"COLOR_0":12,"WEIGHTS_0":13,"JOINTS_0":14},"indices":15,"mode":4,"material":0}]},{"name":"heavy_guy_hat","primitives":[{"attributes":{"POSITION":17,"NORMAL":18,"TEXCOORD_0":19,"COLOR_0":20,"WEIGHTS_0":21,"JOINTS_0":22},"indices":23,"mode":4,"material":0}]},{"name":"shotgun","primitives":[{"attributes":{"POSITION":25,"NORMAL":26,"TEXCOORD_0":27,"COLOR_0":28,"WEIGHTS_0":29,"JOINTS_0":30},"indices":31,"mode":4,"material":0}]}],"skins":[{"name":"heavy_guy bones","joints":[4,9,10,11,12,5,6,7,8,13,14,15,25,26,27,28,30,31,32,33,29,16,17,18,19,20,21,22,23],"skeleton":4,"inverseBindMatrices":8},{"name":"heavy_guy_beard bones","joints":[15],"skeleton":15,"inverseBindMatrices":16},{"name":"heavy_guy_hat bones","joints":[15],"skeleton":15,"inverseBindMatrices":24},{"name":"shotgun bones","joints":[27,28,30,31,32,33,29],"skeleton":27,"inverseBindMatrices":32}],"materials":[{"name":"CopVertexColor","pbrMetallicRoughness":{"baseColorFactor":[1,1,1,1],"metallicFactor":0,"roughnessFactor":1},"doubleSided":true}],"buffers":[{"uri":"HeavyGuy.bin","byteLength":426248}],"bufferViews":[{"buffer":0,"byteOffset":0,"byteLength":37680},{"buffer":0,"byteOffset":37680,"byteLength":37680},{"buffer":0,"byteOffset":75360,"byteLength":25120},{"buffer":0,"byteOffset":100480,"byteLength":50240},{"buffer":0,"byteOffset":150720,"byteLength":50240},{"buffer":0,"byteOffset":200960,"byteLength":25120},{"buffer":0,"byteOffset":226080,"byteLength":40728},{"buffer":0,"byteOffset":266808,"byteLength":4608},{"buffer":0,"byteOffset":271416,"byteLength":1856},{"buffer":0,"byteOffset":273272,"byteLength":1704},{"buffer":0,"byteOffset":274976,"byteLength":1704},{"buffer":0,"byteOffset":276680,"byteLength":1136},{"buffer":0,"byteOffset":277816,"byteLength":2272},{"buffer":0,"byteOffset":280088,"byteLength":2272},{"buffer":0,"byteOffset":282360,"byteLength":1136},{"buffer":0,"byteOffset":283496,"byteLength":1872},{"buffer":0,"byteOffset":285368,"byteLength":64},{"buffer":0,"byteOffset":285432,"byteLength":5760},{"buffer":0,"byteOffset":291192,"byteLength":5760},{"buffer":0,"byteOffset":296952,"byteLength":3840},{"buffer":0,"byteOffset":300792,"byteLength":7680},{"buffer":0,"byteOffset":308472,"byteLength":7680},{"buffer":0,"byteOffset":316152,"byteLength":3840},{"buffer":0,"byteOffset":319992,"byteLength":5088},{"buffer":0,"byteOffset":325080,"byteLength":64},{"buffer":0,"byteOffset":325144,"byteLength":15252},{"buffer":0,"byteOffset":340396,"byteLength":15252},{"buffer":0,"byteOffset":355648,"byteLength":10168},{"buffer":0,"byteOffset":365816,"byteLength":20336},{"buffer":0,"byteOffset":386152,"byteLength":20336},{"buffer":0,"byteOffset":406488,"byteLength":10168},{"buffer":0,"byteOffset":416656,"byteLength":9144},{"buffer":0,"byteOffset":425800,"byteLength":448}],"accessors":[{"bufferView":0,"componentType":5126,"count":3140,"type":"VEC3","min":[-0.9478666186332703,0.0014795362949371338,-0.21647462248802185],"max":[0.9478666186332703,1.874813199043274,0.223897323012352]},{"bufferView":1,"componentType":5126,"count":3140,"type":"VEC3"},{"bufferView":2,"componentType":5126,"count":3140,"type":"VEC2"},{"bufferView":3,"componentType":5126,"count":3140,"type":"VEC4"},{"bufferView":4,"componentType":5126,"count":3140,"type":"VEC4"},{"bufferView":5,"componentType":5123,"count":3140,"type":"VEC4"},{"bufferView":6,"componentType":5125,"count":10182,"type":"SCALAR"},{"bufferView":7,"componentType":5125,"count":1152,"type":"SCALAR"},{"bufferView":8,"componentType":5126,"count":29,"type":"MAT4"},{"bufferView":9,"componentType":5126,"count":142,"type":"VEC3","min":[-0.08878438919782639,1.555024266242981,-0.17687837779521942],"max":[0.08878988027572632,1.7325178384780884,-0.04783075675368309]},{"bufferView":10,"componentType":5126,"count":142,"type":"VEC3"},{"bufferView":11,"componentType":5126,"count":142,"type":"VEC2"},{"bufferView":12,"componentType":5126,"count":142,"type":"VEC4"},{"bufferView":13,"componentType":5126,"count":142,"type":"VEC4"},{"bufferView":14,"componentType":5123,"count":142,"type":"VEC4"},{"bufferView":15,"componentType":5125,"count":468,"type":"SCALAR"},{"bufferView":16,"componentType":5126,"count":1,"type":"MAT4"},{"bufferView":17,"componentType":5126,"count":480,"type":"VEC3","min":[-0.12042997777462006,1.7394509315490723,-0.20598942041397095],"max":[0.12042997777462006,1.9135183095932007,0.07941807806491852]},{"bufferView":18,"componentType":5126,"count":480,"type":"VEC3"},{"bufferView":19,"componentType":5126,"count":480,"type":"VEC2"},{"bufferView":20,"componentType":5126,"count":480,"type":"VEC4"},{"bufferView":21,"componentType":5126,"count":480,"type":"VEC4"},{"bufferView":22,"componentType":5123,"count":480,"type":"VEC4"},{"bufferView":23,"componentType":5125,"count":1272,"type":"SCALAR"},{"bufferView":24,"componentType":5126,"count":1,"type":"MAT4"},{"bufferView":25,"componentType":5126,"count":1271,"type":"VEC3","min":[0.7782161831855774,1.1954742670059204,-0.48693007230758667],"max":[0.9436890482902527,1.6880511045455933,0.34970998764038086]},{"bufferView":26,"componentType":5126,"count":1271,"type":"VEC3"},{"bufferView":27,"componentType":5126,"count":1271,"type":"VEC2"},{"bufferView":28,"componentType":5126,"count":1271,"type":"VEC4"},{"bufferView":29,"componentType":5126,"count":1271,"type":"VEC4"},{"bufferView":30,"componentType":5123,"count":1271,"type":"VEC4"},{"bufferView":31,"componentType":5125,"count":2286,"type":"SCALAR"},{"bufferView":32,"componentType":5126,"count":7,"type":"MAT4"}]}