{"asset":{"version":"2.0","generator":"Codex Unity YAML static scene converter"},"scene":0,"scenes":[{"name":"armoreddoor1_original static geometry","nodes":[0]}],"nodes":[{"name":"ArmoredDoor1","translation":[0,0,0],"rotation":[0,0,0,1],"scale":[1.0,1.0,1.0],"children":[1]},{"name":"Right","translation":[-0.6,0.0,0.1],"rotation":[-0.0,-0.0,0.0,1.0],"scale":[1.0,1.0,1.0],"children":[2]},{"name":"Left","translation":[-0.0,0.0,-0.19999842],"rotation":[0.0,0.0,-0.0,1.0],"scale":[1.0,1.0,1.0],"children":[3]},{"name":"Mesh","translation":[0.029000878,0.0,0.034999847],"rotation":[-0.0,0.7071068,0.0,0.7071068],"scale":[1.4,1.4,1.4],"mesh":0}],"meshes":[{"name":"door_metalness_door","primitives":[{"attributes":{"POSITION":0,"NORMAL":1,"TEXCOORD_0":2,"COLOR_0":3},"indices":4,"mode":4,"material":0},{"attributes":{"POSITION":0,"NORMAL":1,"TEXCOORD_0":2,"COLOR_0":3},"indices":5,"mode":4,"material":0},{"attributes":{"POSITION":0,"NORMAL":1,"TEXCOORD_0":2,"COLOR_0":3},"indices":6,"mode":4,"material":0}]}],"buffers":[{"uri":"armoreddoor1_original.bin","byteLength":379284}],"bufferViews":[{"buffer":0,"byteOffset":0,"byteLength":76704},{"buffer":0,"byteOffset":76704,"byteLength":76704},{"buffer":0,"byteOffset":153408,"byteLength":51136},{"buffer":0,"byteOffset":204544,"byteLength":102272},{"buffer":0,"byteOffset":306816,"byteLength":768},{"buffer":0,"byteOffset":307584,"byteLength":71652},{"buffer":0,"byteOffset":379236,"byteLength":48}],"accessors":[{"bufferView":0,"componentType":5126,"count":6392,"type":"VEC3","min":[-0.09703326225280762,0.0,-0.027539372444152832],"max":[0.15800487995147705,1.69999361038208,0.9597750306129456]},{"bufferView":1,"componentType":5126,"count":6392,"type":"VEC3"},{"bufferView":2,"componentType":5126,"count":6392,"type":"VEC2"},{"bufferView":3,"componentType":5126,"count":6392,"type":"VEC4"},{"bufferView":4,"componentType":5125,"count":192,"type":"SCALAR"},{"bufferView":5,"componentType":5125,"count":17913,"type":"SCALAR"},{"bufferView":6,"componentType":5125,"count":12,"type":"SCALAR"}],"images":[],"textures":[],"materials":[{"name":"VertexColor_12","pbrMetallicRoughness":{"baseColorFactor":[1.0,1.0,1.0,1.0],"metallicFactor":0,"roughnessFactor":1},"doubleSided":true}]}