{"asset":{"version":"2.0","generator":"Codex original Unity character rig converter"},"scene":0,"scenes":[{"name":"FinalMissionEnemy","nodes":[0]}],"nodes":[{"name":"FinalMissionEnemy","translation":[70.91052,-1.04904175e-05,-12.530552],"rotation":[-0.0,-0.0,0.0,1.0],"scale":[1.0,1.0,1.0],"children":[1,2,3,4,5,6,7,8,9,40,41,42,43,44,45]},{"name":"cigarette","translation":[-0.0,0.0,-0.0],"rotation":[-0.0,0.0,-0.0,1.0],"scale":[1.0,1.0,1.0]},{"name":"cop","translation":[-0.0,0.0,-0.0],"rotation":[-0.0,0.0,-0.0,1.0],"scale":[1.0,1.0,1.0],"mesh":0,"skin":0},{"name":"cop_beard_v1","translation":[-0.0,0.0,-0.0],"rotation":[-0.0,0.0,-0.0,1.0],"scale":[1.0,1.0,1.0]},{"name":"cop_beard_v2","translation":[-0.0,0.0,-0.0],"rotation":[-0.0,0.0,-0.0,1.0],"scale":[1.0,1.0,1.0]},{"name":"cop_hairstyle_v1","translation":[-0.0,0.0,-0.0],"rotation":[-0.0,0.0,-0.0,1.0],"scale":[1.0,1.0,1.0]},{"name":"cop_hairstyle_v2","translation":[-0.0,0.0,-0.0],"rotation":[-0.0,0.0,-0.0,1.0],"scale":[1.0,1.0,1.0]},{"name":"cop_hat","translation":[-0.0,0.0,-0.0],"rotation":[-0.0,0.0,-0.0,1.0],"scale":[1.0,1.0,1.0],"mesh":1,"skin":1},{"name":"glock","translation":[-0.0,0.0,-0.0],"rotation":[-0.0,0.0,-0.0,1.0],"scale":[1.0,1.0,1.0]},{"name":"Hips","translation":[1.9073486e-08,1.0142282,-0.006695708],"rotation":[-0.0324444,-0.03224387,-0.70544595,0.7072862],"scale":[0.99999994,1.0,0.9999999],"children":[10,14,18]},{"name":"LeftUpLeg","translation":[-0.013565468,-0.08065183,0.027092151],"rotation":[0.09009835,-0.013689486,0.9949075,0.04305711],"scale":[0.99999964,1.0000002,0.9999998],"children":[11]},{"name":"LeftLeg","translation":[-0.46587953,-3.57106e-05,1.8325874e-05],"rotation":[0.023468569,0.13178661,0.034685392,0.9903931],"scale":[1.0000002,1.0,0.99999994],"children":[12]},{"name":"LeftFoot","translation":[-0.5209705,-4.56227e-06,7.0397946e-06],"rotation":[0.019643245,-0.7115806,0.019510854,0.7020588],"scale":[0.99999994,1.0,1.0000001],"children":[13]},{"name":"LeftToeBase","translation":[-0.07433133,-1.6850261e-06,9.00776e-07],"rotation":[0.001510203,0.07063709,0.036466643,0.99683416],"scale":[1.0000006,1.0000002,0.99999964]},{"name":"RightUpLeg","translation":[-0.01314399,0.080534734,0.027118934],"rotation":[0.09012725,0.013288672,0.99501884,-0.040472347],"scale":[1.0,1.0,1.0],"children":[15]},{"name":"RightLeg","translation":[-0.46586853,1.9151381e-05,1.4722942e-05],"rotation":[-0.023469284,0.13178681,-0.034685872,0.99039304],"scale":[1.0,1.0,0.99999994],"children":[16]},{"name":"RightFoot","translation":[-0.5210156,3.3610688e-06,4.2022007e-06],"rotation":[-0.01380177,-0.71153086,-0.023665356,0.7021206],"scale":[1.0000001,1.0,0.99999994],"children":[17]},{"name":"RightToeBase","translation":[-0.074333064,-3.4046067e-07,-9.701113e-09],"rotation":[-0.001509181,0.07063777,-0.036467746,0.9968341],"scale":[0.9999998,1.0,1.0]},{"name":"Spine","translation":[-0.09709515,0.00016891543,-0.008135784],"rotation":[0.00010005772,0.06712898,-0.0011845313,0.9977436],"scale":[0.9999998,1.0,0.9999999],"children":[19]},{"name":"Spine1","translation":[-0.18412958,1.2365386e-07,6.8158535e-08],"rotation":[0.0011661922,-0.016093992,-0.0006032787,0.99986964],"scale":[1.0000004,1.0000001,0.99999964],"children":[20,21,31]},{"name":"Head","translation":[-0.30432126,5.607396e-07,-2.3204025e-06],"rotation":[0.0011652253,-0.23362024,0.002654054,0.9723236],"scale":[0.9999999,1.0000001,1.0]},{"name":"LeftShoulder","translation":[-0.2532802,-0.07323733,0.053579815],"rotation":[-0.028079607,0.015987562,0.7070591,0.7064159],"scale":[1.0000005,0.99999964,1.0000002],"children":[22]},{"name":"LeftArm","translation":[-0.14903358,1.0228359e-06,2.0617708e-06],"rotation":[-0.061077334,0.046680555,0.0031620534,0.99703586],"scale":[1.0000004,0.9999998,0.99999964],"children":[23]},{"name":"LeftForeArm","translation":[-0.26079804,-2.8898487e-06,6.979684e-06],"rotation":[0.011394232,-0.13164645,-0.015512251,0.9911099],"scale":[1.0000005,0.99999964,0.9999998],"children":[24]},{"name":"LeftHand","translation":[-0.30508122,-3.233195e-07,1.130897e-07],"rotation":[0.056229074,0.017045004,0.00084508746,0.99827206],"scale":[0.9999969,1.0000029,1.0000001],"children":[25,27,29]},{"name":"LeftHandMiddle1","translation":[-0.0718778,7.504655e-07,-5.2248815e-08],"rotation":[0.002422204,-0.009001078,8.245368e-05,0.9999566],"scale":[0.99999845,1.0000015,1.0000001],"children":[26]},{"name":"LeftHandMiddle2","translation":[-0.050000552,-3.0956315e-07,3.5060805e-07],"rotation":[-0.0,0.0,-0.0,1.0],"scale":[0.99999785,1.0000021,0.99999994]},{"name":"LeftHandThumb1","translation":[-0.005210002,-0.002886516,-0.035751503],"rotation":[0.68841845,-0.090490356,0.19463769,0.69282585],"scale":[1.0000024,0.9999995,0.99999785],"children":[28]},{"name":"LeftHandThumb2","translation":[-0.057258368,6.182831e-07,5.768541e-08],"rotation":[0.0039843307,0.031895693,-0.123890094,0.9917752],"scale":[0.9999992,1.0000011,0.99999976]},{"name":"Walkie","translation":[0.0,0.0,-0.0],"rotation":[-0.0,-0.0,0.0,1.0],"scale":[1.0,1.0,1.0],"children":[30]},{"name":"walkie","translation":[-0.07000008,-0.043999877,-0.041999973],"rotation":[0.22368078,0.10986306,0.0772198,0.9653674],"scale":[1.0,1.0,1.0]},{"name":"RightShoulder","translation":[-0.25342435,0.0730254,0.053261556],"rotation":[0.02653324,0.014485703,-0.7063708,0.70719624],"scale":[1.0000002,1.0,1.0000004],"children":[32]},{"name":"RightArm","translation":[-0.1490286,-1.2249344e-06,5.5803577e-07],"rotation":[0.061078172,0.046673853,-0.0031601875,0.99703616],"scale":[1.0000004,0.99999994,0.99999976],"children":[33]},{"name":"RightForeArm","translation":[-0.26078865,-2.68041e-07,1.4963888e-06],"rotation":[-0.01139156,-0.13163796,0.015511715,0.99111104],"scale":[1.0000004,0.99999994,0.99999976],"children":[34]},{"name":"RightHand","translation":[-0.30507544,5.6109975e-08,-2.3614425e-06],"rotation":[-0.058660448,0.00805476,-0.00037970828,0.9982454],"scale":[1.0000001,0.99999976,1.0],"children":[35,36,38]},{"name":"gun","translation":[-0.06328802,0.042795572,0.026985766],"rotation":[0.10035708,-0.09418604,-0.62761444,0.7662621],"scale":[0.99999976,1.0000001,1.0000001]},{"name":"RightHandMiddle1","translation":[-0.07019422,-1.5381688e-07,3.3586005e-08],"rotation":[-0.0,2.667429e-06,-0.0,1.0],"scale":[0.9999998,1.0000001,0.9999999],"children":[37]},{"name":"RightHandMiddle2","translation":[-0.0500002,4.48295e-07,5.0186713e-07],"rotation":[-0.0,0.0,-0.0,1.0],"scale":[0.99999976,1.0000002,1.0000012]},{"name":"RightHandThumb1","translation":[-0.005651744,0.003230337,-0.035652187],"rotation":[-0.69362736,-0.058725268,-0.21355164,0.6854401],"scale":[0.9999999,1.0,1.0000004],"children":[39]},{"name":"RightHandThumb2","translation":[-0.057257175,-1.7046474e-07,-4.1732952e-07],"rotation":[-0.0039843405,0.03189583,0.12388987,0.9917752],"scale":[0.99999994,1.0,1.0]},{"name":"revolver","translation":[-0.0,0.0,-0.0],"rotation":[-0.0,0.0,-0.0,1.0],"scale":[1.0,1.0,1.0]},{"name":"rifle","translation":[-0.0,0.0,-0.0],"rotation":[-0.0,0.0,-0.0,1.0],"scale":[1.0,1.0,1.0]},{"name":"rifle_back","translation":[-0.0,0.0,-0.0],"rotation":[-0.0,0.0,-0.0,1.0],"scale":[1.0,1.0,1.0]},{"name":"shotgun_back","translation":[-0.0,0.0,-0.0],"rotation":[-0.0,0.0,-0.0,1.0],"scale":[1.0,1.0,1.0]},{"name":"shotgun","translation":[-0.0,0.0,-0.0],"rotation":[-0.0,0.0,-0.0,1.0],"scale":[1.0,1.0,1.0]},{"name":"machine_gun","translation":[0.0,0.0,-0.0],"rotation":[0.0,0.0,-0.0,1.0],"scale":[1.0,1.0,1.0],"mesh":2,"skin":2}],"meshes":[{"name":"cop","primitives":[{"attributes":{"POSITION":0,"NORMAL":1,"TEXCOORD_0":2,"COLOR_0":3,"WEIGHTS_0":4,"JOINTS_0":5},"indices":6,"mode":4,"material":0}]},{"name":"cop_hat","primitives":[{"attributes":{"POSITION":8,"NORMAL":9,"TEXCOORD_0":10,"COLOR_0":11,"WEIGHTS_0":12,"JOINTS_0":13},"indices":14,"mode":4,"material":0}]},{"name":"machine_gun","primitives":[{"attributes":{"POSITION":16,"NORMAL":17,"TEXCOORD_0":18,"COLOR_0":19,"WEIGHTS_0":20,"JOINTS_0":21},"indices":22,"mode":4,"material":0},{"attributes":{"POSITION":16,"NORMAL":17,"TEXCOORD_0":18,"COLOR_0":19,"WEIGHTS_0":20,"JOINTS_0":21},"indices":23,"mode":4,"material":0}]}],"skins":[{"name":"cop bones","joints":[9,14,15,16,17,10,11,12,13,18,19,20,31,32,33,34,36,37,38,39,35,21,22,23,24,25,26,27,28],"skeleton":9,"inverseBindMatrices":7},{"name":"cop_hat bones","joints":[19,20,31,32,21,22],"skeleton":19,"inverseBindMatrices":15},{"name":"machine_gun bones","joints":[35],"skeleton":35,"inverseBindMatrices":24}],"materials":[{"name":"CopVertexColor","pbrMetallicRoughness":{"baseColorFactor":[1,1,1,1],"metallicFactor":0,"roughnessFactor":1},"doubleSided":true}],"buffers":[{"uri":"FinalMissionEnemy.bin","byteLength":439572}],"bufferViews":[{"buffer":0,"byteOffset":0,"byteLength":44520},{"buffer":0,"byteOffset":44520,"byteLength":44520},{"buffer":0,"byteOffset":89040,"byteLength":29680},{"buffer":0,"byteOffset":118720,"byteLength":59360},{"buffer":0,"byteOffset":178080,"byteLength":59360},{"buffer":0,"byteOffset":237440,"byteLength":29680},{"buffer":0,"byteOffset":267120,"byteLength":43332},{"buffer":0,"byteOffset":310452,"byteLength":1856},{"buffer":0,"byteOffset":312308,"byteLength":4392},{"buffer":0,"byteOffset":316700,"byteLength":4392},{"buffer":0,"byteOffset":321092,"byteLength":2928},{"buffer":0,"byteOffset":324020,"byteLength":5856},{"buffer":0,"byteOffset":329876,"byteLength":5856},{"buffer":0,"byteOffset":335732,"byteLength":2928},{"buffer":0,"byteOffset":338660,"byteLength":4944},{"buffer":0,"byteOffset":343604,"byteLength":384},{"buffer":0,"byteOffset":343988,"byteLength":13644},{"buffer":0,"byteOffset":357632,"byteLength":13644},{"buffer":0,"byteOffset":371276,"byteLength":9096},{"buffer":0,"byteOffset":380372,"byteLength":18192},{"buffer":0,"byteOffset":398564,"byteLength":18192},{"buffer":0,"byteOffset":416756,"byteLength":9096},{"buffer":0,"byteOffset":425852,"byteLength":7416},{"buffer":0,"byteOffset":433268,"byteLength":6240},{"buffer":0,"byteOffset":439508,"byteLength":64}],"accessors":[{"bufferView":0,"componentType":5126,"count":3710,"type":"VEC3","min":[-0.9478166103363037,0.0015839999541640282,-0.19562798738479614],"max":[0.9478306174278259,1.834563970565796,0.1865769922733307]},{"bufferView":1,"componentType":5126,"count":3710,"type":"VEC3"},{"bufferView":2,"componentType":5126,"count":3710,"type":"VEC2"},{"bufferView":3,"componentType":5126,"count":3710,"type":"VEC4"},{"bufferView":4,"componentType":5126,"count":3710,"type":"VEC4"},{"bufferView":5,"componentType":5123,"count":3710,"type":"VEC4"},{"bufferView":6,"componentType":5125,"count":10833,"type":"SCALAR"},{"bufferView":7,"componentType":5126,"count":29,"type":"MAT4"},{"bufferView":8,"componentType":5126,"count":366,"type":"VEC3","min":[-0.17392298579216003,1.7134249210357666,-0.26954901218414307],"max":[0.17392298579216003,1.8850219249725342,0.13012200593948364]},{"bufferView":9,"componentType":5126,"count":366,"type":"VEC3"},{"bufferView":10,"componentType":5126,"count":366,"type":"VEC2"},{"bufferView":11,"componentType":5126,"count":366,"type":"VEC4"},{"bufferView":12,"componentType":5126,"count":366,"type":"VEC4"},{"bufferView":13,"componentType":5123,"count":366,"type":"VEC4"},{"bufferView":14,"componentType":5125,"count":1236,"type":"SCALAR"},{"bufferView":15,"componentType":5126,"count":6,"type":"MAT4"},{"bufferView":16,"componentType":5126,"count":1137,"type":"VEC3","min":[0.7197744846343994,1.2166463136672974,-0.4424766004085541],"max":[1.0057913064956665,1.6854090690612793,0.3501589596271515]},{"bufferView":17,"componentType":5126,"count":1137,"type":"VEC3"},{"bufferView":18,"componentType":5126,"count":1137,"type":"VEC2"},{"bufferView":19,"componentType":5126,"count":1137,"type":"VEC4"},{"bufferView":20,"componentType":5126,"count":1137,"type":"VEC4"},{"bufferView":21,"componentType":5123,"count":1137,"type":"VEC4"},{"bufferView":22,"componentType":5125,"count":1854,"type":"SCALAR"},{"bufferView":23,"componentType":5125,"count":1560,"type":"SCALAR"},{"bufferView":24,"componentType":5126,"count":1,"type":"MAT4"}]}