{"asset":{"version":"2.0","generator":"Codex original Unity character rig converter"},"scene":0,"scenes":[{"name":"hostage_male","nodes":[0]}],"nodes":[{"name":"HostageMale","translation":[0.0,0.0,-0.0],"rotation":[-0.0,-0.0,0.0,1.0],"scale":[1.0,1.0,1.0],"children":[1,2,3]},{"name":"Body","translation":[-0.092169605,1.2745402,-0.0],"rotation":[0.0,0.0,-0.0,1.0],"scale":[1.0,1.0,1.0],"mesh":0,"skin":0},{"name":"Hat","translation":[-0.092169605,1.2745402,-0.0],"rotation":[0.0,0.0,-0.0,1.0],"scale":[1.0,1.0,1.0]},{"name":"Hips","translation":[-0.0,1.0142283,-0.0],"rotation":[-0.032443844,-0.032245383,-0.705446,0.70728606],"scale":[1.0,0.99999994,1.0],"children":[4,8,12]},{"name":"LeftUpLeg","translation":[-0.013565549,-0.08064689,0.027091444],"rotation":[0.046839133,-0.016216503,0.99842626,0.026232848],"scale":[1.0,1.0000001,1.0000001],"children":[5]},{"name":"LeftLeg","translation":[-0.4874366,6.078948e-07,1.4843297e-07],"rotation":[0.027025918,0.0469469,0.020815702,0.99831474],"scale":[1.000001,0.99999976,0.99999887],"children":[6]},{"name":"LeftFoot","translation":[-0.49832657,-8.0293586e-07,1.0131945e-07],"rotation":[0.056737665,-0.7164069,-0.0246757,0.6949339],"scale":[1.0000019,0.99999946,0.99999803],"children":[7]},{"name":"LeftToeBase","translation":[-0.07712469,-2.2427075e-07,-2.1445787e-07],"rotation":[-0.013509122,0.075357035,0.025829157,0.9967305],"scale":[0.9999986,1.0000001,0.99999976]},{"name":"RightUpLeg","translation":[-0.013144034,0.08071024,0.027117388],"rotation":[0.046878975,0.015934674,0.99849385,-0.023632538],"scale":[1.0000004,1.0000001,1.0],"children":[9]},{"name":"RightLeg","translation":[-0.48743647,-4.9977666e-07,1.5895544e-07],"rotation":[-0.027024642,0.04695033,-0.020815823,0.9983146],"scale":[1.0,1.0,1.0],"children":[10]},{"name":"RightFoot","translation":[-0.49832705,7.3520874e-07,5.146307e-08],"rotation":[-0.05673868,-0.71640813,0.024675315,0.6949325],"scale":[1.0000001,0.9999999,1.0000001],"children":[11]},{"name":"RightToeBase","translation":[-0.077124745,2.4475418e-07,-2.0989218e-07],"rotation":[0.013508898,0.07535739,-0.025829187,0.9967305],"scale":[1.0,1.0,1.0000001]},{"name":"Spine","translation":[-0.0939731,0.000155763,0.025891347],"rotation":[9.9106415e-05,0.067129344,-0.0011844514,0.9977436],"scale":[1.0,1.0,1.0],"children":[13]},{"name":"Spine1","translation":[-0.18412931,-1.2825695e-08,1.7753882e-07],"rotation":[0.0011661911,-0.016093992,-0.0006032711,0.99986964],"scale":[1.0000007,1.000001,1.0000021],"children":[14,15,24]},{"name":"Head","translation":[-0.30428663,-3.3657233e-08,-4.3285464e-09],"rotation":[0.0013295908,-0.30121014,0.0026444497,0.9535532],"scale":[1.0000005,1.0000007,0.9999989]},{"name":"LeftShoulder","translation":[-0.2310796,-0.07328491,0.019646412],"rotation":[0.0010911843,-0.016437743,0.7228642,0.69079375],"scale":[1.0000002,0.99999964,0.9999988],"children":[16]},{"name":"LeftArm","translation":[-0.14902446,4.4614313e-07,3.699077e-08],"rotation":[-0.06843018,0.050439432,0.015112923,0.9962655],"scale":[1.0000013,1.0000017,1.0000021],"children":[17]},{"name":"LeftForeArm","translation":[-0.22860844,-5.544953e-07,-1.2773518e-07],"rotation":[0.031166788,-0.10342227,-0.045789108,0.9930941],"scale":[1.0000006,1.0000002,0.99999976],"children":[18]},{"name":"LeftHand","translation":[-0.33466434,2.0315572e-07,1.6782697e-07],"rotation":[0.009780305,0.01110496,0.007046281,0.9998657],"scale":[1.0000008,1.0000006,1.0000011],"children":[19,21,23]},{"name":"LeftHandMiddle1","translation":[-0.06852219,-9.086783e-08,1.0276801e-08],"rotation":[0.046655294,-0.0047394824,0.017357385,0.998749],"scale":[0.99999505,1.0000008,0.99999636],"children":[20]},{"name":"LeftHandMiddle2","translation":[-0.049999047,-3.4274115e-07,-2.6609277e-09],"rotation":[-0.001366394,-0.003441949,0.25880286,0.9659231],"scale":[0.9999998,0.9999975,0.9999995]},{"name":"LeftHandThumb1","translation":[-0.03411318,0.0004446036,-0.041083083],"rotation":[0.78637046,-0.091787055,0.18337989,0.58272505],"scale":[1.0000005,0.99999654,0.99999416],"children":[22]},{"name":"LeftHandThumb2","translation":[-0.046286166,1.7458176e-07,1.4139168e-07],"rotation":[-0.056386523,0.0066324985,-0.16606395,0.98447925],"scale":[0.9999995,0.99999887,0.99999917]},{"name":"walkie","translation":[-0.068999924,-0.07319989,-0.01649999],"rotation":[0.26028457,0.11892241,0.040168863,0.957338],"scale":[1.0,1.0,1.0]},{"name":"RightShoulder","translation":[-0.23122913,0.07315118,0.019329024],"rotation":[-0.0025710328,-0.018005215,-0.7221203,0.6915284],"scale":[0.99999905,0.9999994,0.99999774],"children":[25]},{"name":"RightArm","translation":[-0.14902484,-4.2292066e-07,-1.4482546e-07],"rotation":[0.06843025,0.050439384,-0.015113063,0.9962654],"scale":[1.0000002,0.99999976,1.0],"children":[26]},{"name":"RightForeArm","translation":[-0.2286089,4.1943233e-07,2.1273888e-08],"rotation":[-0.03116698,-0.1034222,0.045789093,0.9930941],"scale":[1.0,1.0000001,1.0],"children":[27]},{"name":"RightHand","translation":[-0.3346651,-2.1055544e-07,4.3749068e-07],"rotation":[-0.009780054,0.011105054,-0.00704577,0.9998657],"scale":[1.0,1.0,0.99999994],"children":[28,29,31]},{"name":"gun","translation":[-0.0675338,0.023578491,0.002404461],"rotation":[0.0071457345,-0.72935706,-0.6840946,0.0013379698],"scale":[1.0000001,1.0,1.0]},{"name":"RightHandMiddle1","translation":[-0.068522416,2.8846364e-07,-3.0769036e-07],"rotation":[-0.046655517,-0.0047394563,-0.0173581,0.998749],"scale":[0.9999999,1.0,1.0],"children":[30]},{"name":"RightHandMiddle2","translation":[-0.0499988,1.522073e-08,1.5562304e-07],"rotation":[-1.4598902e-08,1.8741725e-08,-0.21643959,0.976296],"scale":[0.99999994,1.0000001,0.99999994]},{"name":"RightHandThumb1","translation":[-0.034113225,-0.0004441454,-0.041083373],"rotation":[-0.7863706,-0.09178692,-0.18338063,0.5827247],"scale":[0.9999999,1.0000001,1.0000002],"children":[32]},{"name":"RightHandThumb2","translation":[-0.046286285,6.73625e-08,-4.3795993e-07],"rotation":[0.05638613,0.006632094,0.1660636,0.98447937],"scale":[1.0000005,0.9999997,0.99999976]}],"meshes":[{"name":"Body","primitives":[{"attributes":{"POSITION":0,"NORMAL":1,"TEXCOORD_0":2,"WEIGHTS_0":3,"JOINTS_0":4},"indices":5,"mode":4,"material":0}]}],"skins":[{"name":"Body bones","joints":[2,3,3,12,13,14,15,16,17,18,24,25,26,27,8,9,10,11,4,5,6,7,19,21,31,29,28],"skeleton":3,"inverseBindMatrices":6}],"materials":[{"name":"CopVertexColor","pbrMetallicRoughness":{"baseColorFactor":[1,1,1,1],"metallicFactor":0,"roughnessFactor":1,"baseColorTexture":{"index":0}},"doubleSided":true}],"buffers":[{"uri":"hostage_male_rig.bin","byteLength":197452}],"bufferViews":[{"buffer":0,"byteOffset":0,"byteLength":37140},{"buffer":0,"byteOffset":37140,"byteLength":37140},{"buffer":0,"byteOffset":74280,"byteLength":24760},{"buffer":0,"byteOffset":99040,"byteLength":49520},{"buffer":0,"byteOffset":148560,"byteLength":24760},{"buffer":0,"byteOffset":173320,"byteLength":22404},{"buffer":0,"byteOffset":195724,"byteLength":1728}],"accessors":[{"bufferView":0,"componentType":5126,"count":3095,"type":"VEC3","min":[-0.8397547602653503,-1.2783995866775513,-0.16272827982902527],"max":[1.0240939855575562,0.6032741665840149,0.21340663731098175]},{"bufferView":1,"componentType":5126,"count":3095,"type":"VEC3"},{"bufferView":2,"componentType":5126,"count":3095,"type":"VEC2"},{"bufferView":3,"componentType":5126,"count":3095,"type":"VEC4"},{"bufferView":4,"componentType":5123,"count":3095,"type":"VEC4"},{"bufferView":5,"componentType":5125,"count":5601,"type":"SCALAR"},{"bufferView":6,"componentType":5126,"count":27,"type":"MAT4"}],"images":[{"uri":"EnemyWithCap1.png"}],"textures":[{"source":0}]}