{"asset":{"version":"2.0","generator":"Codex Unity YAML static scene converter"},"scene":0,"scenes":[{"name":"coldopendoor1_original static geometry","nodes":[0]}],"nodes":[{"name":"ColdOpenDoor1","translation":[0,0,0],"rotation":[0,0,0,1],"scale":[1.0,1.0,1.0],"children":[1]},{"name":"Right","translation":[-0.6,0.0,0.1],"rotation":[-0.0,-0.0,0.0,1.0],"scale":[1.0,1.0,1.0],"children":[2]},{"name":"Left","translation":[-0.0,0.0,-0.1],"rotation":[0.0,0.0,-0.0,1.0],"scale":[1.0,1.0,1.0],"children":[3]},{"name":"Mesh","translation":[0.029000878,0.0,0.034999847],"rotation":[0.0,4.371139e-08,-0.0,1.0],"scale":[1.0,1.0,1.0],"mesh":0}],"meshes":[{"name":"Door2","primitives":[{"attributes":{"POSITION":0,"NORMAL":1,"TEXCOORD_0":2,"COLOR_0":3},"indices":4,"mode":4,"material":0}]}],"buffers":[{"uri":"coldopendoor1_original.bin","byteLength":7968}],"bufferViews":[{"buffer":0,"byteOffset":0,"byteLength":1728},{"buffer":0,"byteOffset":1728,"byteLength":1728},{"buffer":0,"byteOffset":3456,"byteLength":1152},{"buffer":0,"byteOffset":4608,"byteLength":2304},{"buffer":0,"byteOffset":6912,"byteLength":1056}],"accessors":[{"bufferView":0,"componentType":5126,"count":144,"type":"VEC3","min":[-5.7369469175228005e-08,-3.7303491933339365e-15,-0.11918669193983078],"max":[1.1352308988571167,2.342048168182373,0.14952251315116882]},{"bufferView":1,"componentType":5126,"count":144,"type":"VEC3"},{"bufferView":2,"componentType":5126,"count":144,"type":"VEC2"},{"bufferView":3,"componentType":5126,"count":144,"type":"VEC4"},{"bufferView":4,"componentType":5125,"count":264,"type":"SCALAR"}],"images":[],"textures":[],"materials":[{"name":"ColdOpen","pbrMetallicRoughness":{"baseColorFactor":[1.0,1.0,1.0,1.0],"metallicFactor":0,"roughnessFactor":1},"doubleSided":true}]}